<?xml version="1.0" encoding="UTF-8"?>
<svg width="118px" height="276px" viewBox="0 0 118 276" version="1.1" xmlns="http://www.w3.org/2000/svg" xmlns:xlink="http://www.w3.org/1999/xlink">
    <!-- Generator: Sketch 47.1 (45422) - http://www.bohemiancoding.com/sketch -->
    <title>Page 1 Copy 14</title>
    <desc>Created with Sketch.</desc>
    <defs>
        <polygon id="path-1" points="83.3821609 96 0.119028732 96 0.119028732 0.178647665 83.3821609 0.178647665"></polygon>
    </defs>
    <g id="Page-1" stroke="none" stroke-width="1" fill="none" fill-rule="evenodd">
        <g id="Desktop-HD" transform="translate(-1363.000000, -6623.000000)">
            <g id="Group-26">
                <g transform="translate(-320.000000, -66.000000)" id="CONTATO">
                    <g transform="translate(0.000000, 6210.000000)">
                        <g id="Page-1-Copy-14" transform="translate(1683.000000, 479.000000)">
                            <g id="Group-3" transform="translate(34.000000, 180.000000)">
                                <mask id="mask-2" fill="white">
                                    <use xlink:href="#path-1"></use>
                                </mask>
                                <g id="Clip-2"></g>
                                <path d="M0.398583206,91.2499073 L38.6794992,2.25218543 C39.8702473,-0.515284768 43.8272244,-0.511470199 45.0122015,2.25727152 L83.1052397,91.2556291 C84.067713,93.5055894 82.4031023,96.0003179 79.9376061,96.0003179 L3.56429313,96.0003179 C1.09623206,96.0003179 -0.569661069,93.5005033 0.398583206,91.2499073" id="Fill-1" fill="#88DDC0" mask="url(#mask-2)"></path>
                            </g>
                            <g id="Group-6" fill="#88DDC0">
                                <path d="M0.278433077,91.9007993 L38.3939485,2.56762829 C39.5795715,-0.210273026 43.5201562,-0.206444079 44.7000331,2.57273355 L82.6284792,91.9065428 C83.5874485,94.1649836 81.9293638,96.6691151 79.4751177,96.6691151 L3.42987923,96.6691151 C0.973079231,96.6691151 -0.685643846,94.1598783 0.278433077,91.9007993" id="Fill-4"></path>
                            </g>
                        </g>
                    </g>
                </g>
            </g>
        </g>
    </g>
</svg>