<?xml version="1.0" encoding="UTF-8"?>
<svg width="307px" height="968px" viewBox="0 0 307 968" version="1.1" xmlns="http://www.w3.org/2000/svg" xmlns:xlink="http://www.w3.org/1999/xlink">
    <!-- Generator: Sketch 47.1 (45422) - http://www.bohemiancoding.com/sketch -->
    <title>Page 1</title>
    <desc>Created with Sketch.</desc>
    <defs>
        <polygon id="path-1" points="0 26.66922 0 0.58782 28.6502864 0.58782 28.6502864 26.66922 1.14139322e-15 26.66922"></polygon>
    </defs>
    <g id="Page-1" stroke="none" stroke-width="1" fill="none" fill-rule="evenodd">
        <g id="Desktop-HD" transform="translate(-833.000000, -1019.000000)">
            <g id="Group-26">
                <g transform="translate(-320.000000, -66.000000)" id="O-EVENTO">
                    <g transform="translate(6.000000, 1085.000000)">
                        <g id="Page-1" transform="translate(1153.000000, 0.000000)">
                            <path d="M174,846.297227 C174,838.910977 170.954744,832.167037 164.864231,826.707716 C159.535769,821.890082 152.303654,819 144.690513,819 C137.077372,819 129.845993,821.890082 124.135769,826.707716 C118.426282,832.166415 115,838.910977 115,846.297227 L115,849.703395 C115,857.089023 118.426282,864.154429 124.135769,869.292906 C129.43991,874.087533 136.252676,876.654906 143.447205,876.995647 C143.515008,876.998756 143.582812,877 143.649878,877 L144.690513,877 L170.948111,877 C172.633614,877 174,875.8472 174,874.425165 L174,846.297227 Z" id="Fill-1" fill="#71C9AB"></path>
                            <path d="M174,297.297227 C174,289.910977 170.954744,283.167037 164.864231,277.707716 C159.535769,272.890082 152.303654,270 144.690513,270 C137.077372,270 129.845993,272.890082 124.135769,277.707716 C118.426282,283.166415 115,289.910977 115,297.297227 L115,300.703395 C115,308.089023 118.426282,315.154429 124.135769,320.292906 C129.43991,325.087533 136.252676,327.654906 143.447205,327.995647 C143.515008,327.998756 143.582812,328 143.649878,328 L144.690513,328 L170.948111,328 C172.633614,328 174,326.8472 174,325.425165 L174,297.297227 Z" id="Fill-1-Copy-2" fill="#EB6963"></path>
                            <g id="Group-5" transform="translate(127.000000, 203.000000)">
                                <path d="M35.0942998,558.263521 C26.1839755,549.962678 13.4220836,546.869135 2.3876782,550.504478 C-2.51194342,561.868149 0.174083603,575.521263 10.0311377,584.182078 C19.843435,592.804192 33.7963539,593.874892 44.6237593,587.830321 C46.5165971,577.390535 42.7949485,565.916292 35.0942998,558.263521" id="Fill-3" fill="#1E3382"></path>
                                <path d="M35.0942998,9.2635206 C26.1839755,0.962677746 13.4220836,-2.13086511 2.3876782,1.50447775 C-2.51194342,12.8681492 0.174083603,26.5212635 10.0311377,35.1820777 C19.843435,43.804192 33.7963539,44.874892 44.6237593,38.8303206 C46.5165971,28.3905349 42.7949485,16.916292 35.0942998,9.2635206" id="Fill-3-Copy" fill="#F5B430"></path>
                            </g>
                            <path d="M257.492846,787.30997 C245.371956,798.086536 239.603258,814.735493 242.930195,829.999873 C257.255595,838.121738 275.603427,836.410504 288.324671,824.417019 C300.988107,812.477976 304.248807,793.956313 297.71958,778.636253 C284.213118,774.665028 268.597891,778.06213 257.492846,787.30997" id="Fill-6" fill="#EB6963"></path>
                            <g id="Group-10" transform="translate(101.000000, 794.000000)">
                                <mask id="mask-2" fill="white">
                                    <use xlink:href="#path-1"></use>
                                </mask>
                                <g id="Clip-9"></g>
                                <path d="M28.6506818,14.0404 C28.6506818,21.2428 22.2370682,27.0814 14.326,27.0814 C6.41427273,27.0814 0,21.2428 0,14.0404 C0,6.8386 6.41427273,1 14.326,1 C22.2370682,1 28.6506818,6.8386 28.6506818,14.0404" id="Fill-8" fill="#EC6963" mask="url(#mask-2)"></path>
                                <path d="M28.6506818,-534.9596 C28.6506818,-527.7572 22.2370682,-521.9186 14.326,-521.9186 C6.41427273,-521.9186 0,-527.7572 0,-534.9596 C0,-542.1614 6.41427273,-548 14.326,-548 C22.2370682,-548 28.6506818,-542.1614 28.6506818,-534.9596" id="Fill-8-Copy" fill="#EC6963" mask="url(#mask-2)"></path>
                            </g>
                            <path d="M183,932.824334 L178,313.93284 C178,310.536224 180.475,307.757174 183.5,307.757174 C186.525,307.757174 189,310.536224 189,313.93284 L194,932.824334 C194,936.22095 191.525,939 188.5,939 C185.475,939 183,936.22095 183,932.824334 Z" id="Fill-11" fill="#000000"></path>
                            <path d="M178.87533,968 C170.250154,968 162.000119,964.653733 156.000317,959.077028 C150.375042,953.499714 147,946.435847 147,938.999427 L147,898.659474 C147,891.667556 152.716908,886 159.76895,886 L227.098828,886 C234.224053,886 240,891.726702 240,898.791178 L240,938.999427 C240,946.435847 236.624958,953.499714 231.000298,959.077028 C224.999881,964.653733 216.749846,968 208.125285,968 L178.87533,968 Z" id="Fill-13" fill="#E789A1"></path>
                            <path d="M161.933743,800 L161.089634,806.184496 C160.628369,809.563975 161.968323,812.935501 164.626,815.103041 C172.745376,821.723125 180.004725,830.726761 183.202706,841.105017 L193.354951,841.105017 C188.815781,822.917375 177.644542,808.770495 161.933743,800 Z" id="Fill-15" fill="#000000"></path>
                            <path d="M156.933743,249 L156.089634,255.184496 C155.628369,258.563975 156.968323,261.935501 159.626,264.103041 C167.745376,270.723125 175.004725,279.726761 178.202706,290.105017 L188.354951,290.105017 C183.815781,271.917375 172.644542,257.770495 156.933743,249 Z" id="Fill-15-Copy-2" fill="#000000"></path>
                            <path d="M239,831 C212.707412,834.10867 190.645978,852.478142 183.327525,877.861846 L183,879 L191.955913,878.376798 C191.9555,878.37639 192.288006,878.375371 192.953432,878.37374 C198.906576,860.984022 215.344983,847.949379 233.002193,843.395541 C236.512545,842.490399 239,839.422705 239,835.845563 L239,831 Z" id="Fill-17" fill="#000000"></path>
                            <path d="M234,280 C207.707412,283.10867 185.645978,301.478142 178.327525,326.861846 L178,328 L186.955913,327.376798 C186.9555,327.37639 187.288006,327.375371 187.953432,327.37374 C193.906576,309.984022 210.344983,296.949379 228.002193,292.395541 C231.512545,291.490399 234,288.422705 234,284.845563 L234,280 Z" id="Fill-17-Copy-3" fill="#000000"></path>
                            <path d="M238,789.999701 C238,797.179622 232.18022,803 225.000299,803 C217.820378,803 212,797.179622 212,789.999701 C212,782.820378 217.820378,777 225.000299,777 C232.18022,777 238,782.820378 238,789.999701" id="Fill-19" fill="#EC6963"></path>
                            <path d="M222,260.999701 C222,268.179622 216.18022,274 209.000299,274 C201.820378,274 196,268.179622 196,260.999701 C196,253.820378 201.820378,248 209.000299,248 C216.18022,248 222,253.820378 222,260.999701" id="Fill-19-Copy-3" fill="#74C7AA"></path>
                            <path d="M183.221433,327.77901 L183.221433,208.644985 L183.221433,208.644985 C183.221433,175.5079 156.358518,148.644985 123.221433,148.644985 L60.4047395,148.644985 L60.4047395,148.644985 C27.2676545,148.644985 0.404739495,121.78207 0.404739495,88.6449851 L0.404739495,0.770504113" id="Path-2" stroke="#000000" stroke-width="11"></path>
                        </g>
                    </g>
                </g>
            </g>
        </g>
    </g>
</svg>