<?xml version="1.0" encoding="UTF-8"?>
<svg width="227px" height="268px" viewBox="0 0 227 268" version="1.1" xmlns="http://www.w3.org/2000/svg" xmlns:xlink="http://www.w3.org/1999/xlink">
    <!-- Generator: Sketch 47.1 (45422) - http://www.bohemiancoding.com/sketch -->
    <title>Page 1 Copy 18</title>
    <desc>Created with Sketch.</desc>
    <defs>
        <polygon id="path-1" points="70.5468203 82.5482906 70.5468203 0.0279080537 0.0264585938 0.0279080537 0.0264585938 82.5482906 70.5468203 82.5482906"></polygon>
        <polygon id="path-3" points="110.696953 258 0.327812563 258 0.327812563 0.269980562 110.696953 0.269980562 110.696953 258"></polygon>
    </defs>
    <g id="Page-1" stroke="none" stroke-width="1" fill="none" fill-rule="evenodd">
        <g id="Desktop-HD" transform="translate(-93.000000, -6459.000000)">
            <g id="Group-26">
                <g transform="translate(-320.000000, -66.000000)" id="CONTATO">
                    <g transform="translate(0.000000, 6210.000000)">
                        <g id="Group-34" transform="translate(320.000000, 283.000000)">
                            <g id="Page-1-Copy-18" transform="translate(195.969083, 185.969083) rotate(-315.000000) translate(-195.969083, -185.969083) translate(61.969083, 56.969083)">
                                <path d="M83.7436923,116.080159 C84.191704,116.798434 84.0401211,117.828764 83.3849461,118.901797 C82.7954571,119.93596 81.726517,120.911544 80.3740607,121.714129 C79.0856061,122.478391 77.7056403,122.954686 76.4924158,122.990271 C75.2146281,123.063632 74.2063212,122.720918 73.7583095,122.002643 L64.2563077,106.919415 C63.808296,106.201688 63.9598789,105.17081 64.6150539,104.098324 C65.2051043,103.063614 66.273483,102.08803 67.6259393,101.285993 C68.9143939,100.521731 70.2943597,100.044888 71.5075842,100.00985 C72.7853719,99.9359425 73.7936788,100.279203 74.2416905,100.996931 L83.7436923,116.080159 Z" id="Fill-1" fill="#1E3382"></path>
                                <path d="M0.256341439,116.080159 C-0.19167295,116.798434 -0.040089134,117.828764 0.614528381,118.901797 C1.20458242,119.93596 2.27296761,120.911544 3.62599352,121.714129 C4.91445595,122.478391 6.29443009,122.954686 7.50766204,122.990271 C8.78545746,123.063632 9.79377055,122.720918 10.2417849,122.002643 L19.7438445,106.919415 C20.1918589,106.201688 20.0397136,105.17081 19.3850961,104.098324 C18.7950421,103.063614 17.7266569,102.08803 16.373631,101.285993 C15.0851686,100.521731 13.7057558,100.044888 12.4919625,100.00985 C11.214167,99.9359425 10.2064154,100.279203 9.75840099,100.996931 L0.256341439,116.080159 Z" id="Fill-3" fill="#1E3382"></path>
                                <path d="M22.0619638,127.019553 C21.832448,127.836179 22.2503968,128.799322 23.1520268,129.671237 C23.9835422,130.522695 25.2483439,131.191698 26.7349927,131.616874 C28.1504313,132.021593 29.5757297,132.122773 30.7254997,131.838032 C31.9470276,131.573748 32.8031926,130.974963 33.0327084,130.158338 L37.9379919,112.980447 C38.1675077,112.163821 37.7501067,111.200678 36.8479289,110.328763 C36.0169613,109.476752 34.7516118,108.808302 33.264963,108.383126 C31.8495244,107.978407 30.4247738,107.877227 29.274456,108.161968 C28.0534759,108.426252 27.1967631,109.025037 26.9672473,109.841662 L22.0619638,127.019553 Z" id="Fill-5" fill="#1E3382"></path>
                                <path d="M60.9380416,127.019553 C61.1675496,127.836179 60.7496149,128.799322 59.8474677,129.671237 C59.0159804,130.522695 57.7512215,131.191698 56.264623,131.616874 C54.8492323,132.021593 53.4245298,132.122773 52.274251,131.838032 C51.0527644,131.573748 50.1966283,130.974963 49.9671203,130.158338 L45.0620027,112.980447 C44.8324947,112.163821 45.2498816,111.200678 46.1525766,110.328763 C46.9835161,109.476752 48.2488228,108.808302 49.7348735,108.383126 C51.150812,107.978407 52.5749667,107.877227 53.7257933,108.161968 C54.9467321,108.426252 55.803416,109.025037 56.0323762,109.841662 L60.9380416,127.019553 Z" id="Fill-7" fill="#1E3382"></path>
                                <path d="M75.4967939,82.1948197 C70.6459903,96.4417774 57.1946445,106.800715 41.4310619,106.800715 C25.4973147,106.800715 11.974789,96.3474378 7.17681424,82 C5.25995993,85.3214246 3.86805788,88.998437 3.11955603,92.9668416 C2.77144149,94.8128838 3.18851162,96.7320531 4.30570347,98.238696 C12.7388615,109.604667 26.2163437,117 41.4310619,117 C56.7920328,117 70.4546941,109.386402 78.8845156,97.7390867 C79.8760303,96.3692084 80.2196961,94.6336943 79.862684,92.9785643 C79.0290999,89.1201295 77.524867,85.4989394 75.4967939,82.1948197" id="Fill-9" fill="#1E3382"></path>
                                <path d="M7.50320566,57.8051803 C12.3540089,43.5587808 25.8059096,33.1992855 41.5689347,33.1992855 C57.5026805,33.1992855 71.0257611,43.6531205 75.8231794,58 C77.7400335,54.6785754 79.1319355,51.001563 79.8804372,47.0331584 C80.2285517,45.1876744 79.8114817,43.2679469 78.694846,41.761304 C70.2611326,30.3958915 56.7836516,23 41.5689347,23 C26.2079651,23 12.545305,30.6135983 4.11548433,42.2609133 C3.1239697,43.6307916 2.78030394,45.3663057 3.13731594,47.0214357 C3.97145612,50.8798705 5.47513283,54.5016188 7.50320566,57.8051803" id="Fill-11" fill="#F6DC8E"></path>
                                <path d="M77,70.5 C77,90.6582929 60.8821519,107 41,107 C21.1178481,107 5,90.6582929 5,70.5 C5,50.3417071 21.1178481,34 41,34 C60.8821519,34 77,50.3417071 77,70.5" id="Fill-13" fill="#E74F42"></path>
                                <path d="M43.1170079,63.017854 C28.211487,62.5854516 14.064701,70.0357348 7,82.2659088 C11.8468178,96.640218 25.4709573,107 41.5328056,107 C57.5223133,107 71.0965435,96.7335142 76,82.4597637 C69.1730696,71.3569645 56.3906602,63.830145 43.1170079,63.017854" id="Fill-15" fill="#E789A1"></path>
                                <path d="M55,84.5 C55,91.9559907 48.9559907,98 41.5,98 C34.0440093,98 28,91.9559907 28,84.5 C28,77.0440093 34.0440093,71 41.5,71 C48.9559907,71 55,77.0440093 55,84.5" id="Fill-17" fill="#FFFFFF"></path>
                                <g id="Group-21" transform="translate(197.000000, 66.000000)">
                                    <mask id="mask-2" fill="white">
                                        <use xlink:href="#path-1"></use>
                                    </mask>
                                    <g id="Clip-20"></g>
                                    <path d="M0.0264585938,38.8652235 C0.0264585938,28.3565322 3.66631797,18.761398 10.9460367,10.9939349 C17.3155133,4.14058591 25.9597633,0.0279080537 35.058857,0.0279080537 C44.1590602,0.0279080537 52.8027555,4.14058591 59.6276305,10.9939349 C66.4519508,18.761398 70.5472086,28.3565322 70.5472086,38.8652235 L70.5472086,43.7109752 C70.5472086,54.2196664 66.4519508,64.2715792 59.6276305,71.5822638 C53.288107,78.4038611 45.1452945,82.0569752 36.5448648,82.541606 C36.4644352,82.5460624 36.3834508,82.5482906 36.3024664,82.5482906 L35.058857,82.5482906 L3.67408359,82.5482906 C1.65945859,82.5482906 0.0264585938,80.9077872 0.0264585938,78.8845926 L0.0264585938,38.8652235 Z" id="Fill-19" fill="#EC6963" mask="url(#mask-2)"></path>
                                </g>
                                <g id="Group-24" transform="translate(86.000000, 0.000000)">
                                    <mask id="mask-4" fill="white">
                                        <use xlink:href="#path-3"></use>
                                    </mask>
                                    <g id="Clip-23"></g>
                                    <path d="M57.5006216,0.269980562 L53.5241442,0.269980562 C24.191697,0.269980562 0.327812563,24.1101836 0.327812563,53.4135227 L0.327812563,204.856737 C0.327812563,234.159518 24.191697,258.000279 53.5241442,258.000279 L57.5006216,258.000279 C86.8330688,258.000279 110.696953,234.159518 110.696953,204.856737 L110.696953,53.4135227 C110.696953,24.1101836 86.8330688,0.269980562 57.5006216,0.269980562" id="Fill-22" fill="#F6B533" mask="url(#mask-4)"></path>
                                </g>
                                <path d="M86.5,194 L86.5,194 C74.1248318,194 64,183.894414 64,171.54277 L64,101.456671 C64,89.1055858 74.1248318,79 86.5,79 C98.8746076,79 109,89.1055858 109,101.456671 L109,171.54277 C109,183.894414 98.8746076,194 86.5,194" id="Fill-25" fill="#000000"></path>
                                <path d="M203.743844,125.080159 C204.191859,125.798434 204.039714,126.828764 203.385096,127.901797 C202.795042,128.93596 201.726657,129.911544 200.373631,130.714129 C199.085169,131.478391 197.705194,131.954686 196.491962,131.990271 C195.214167,132.063632 194.205854,131.720918 193.758401,131.002643 L184.256341,115.919415 C183.808327,115.201688 183.959911,114.17081 184.614528,113.098324 C185.205144,112.063614 186.272968,111.08803 187.625994,110.285993 C188.914456,109.521731 190.29443,109.044888 191.507662,109.00985 C192.785457,108.935942 193.793771,109.279203 194.241785,109.996931 L203.743844,125.080159 Z" id="Fill-27" fill="#1E3382"></path>
                                <path d="M120.256156,125.080159 C119.808141,125.798434 119.960286,126.828764 120.614904,127.901797 C121.204958,128.93596 122.273343,129.911544 123.626369,130.714129 C124.914831,131.478391 126.294244,131.954686 127.508038,131.990271 C128.785833,132.063632 129.793585,131.720918 130.241599,131.002643 L139.743659,115.919415 C140.191673,115.201688 140.040089,114.17081 139.385472,113.098324 C138.794856,112.063614 137.727032,111.08803 136.374006,110.285993 C135.085544,109.521731 133.70557,109.044888 132.492338,109.00985 C131.214543,108.935942 130.206229,109.279203 129.758215,109.996931 L120.256156,125.080159 Z" id="Fill-29" fill="#1E3382"></path>
                                <path d="M142.06176,137.019553 C141.832796,137.836179 142.250188,138.799322 143.152347,139.671237 C143.983845,140.522695 145.248619,141.191698 146.735236,141.616874 C148.150645,142.021593 149.575365,142.122773 150.725658,141.838032 C151.94716,141.573748 152.803307,140.974963 153.032818,140.158338 L157.937997,122.980447 C158.167507,122.163821 157.750115,121.200678 156.847409,120.328763 C156.016459,119.476752 154.751137,118.808302 153.265067,118.383126 C151.849111,117.978407 150.424939,117.877227 149.274098,118.161968 C148.053144,118.426252 147.196449,119.025037 146.967486,119.841662 L142.06176,137.019553 Z" id="Fill-31" fill="#1E3382"></path>
                                <path d="M180.938036,137.019553 C181.167552,137.836179 180.749603,138.799322 179.847973,139.671237 C179.016458,140.522695 177.751656,141.191698 176.265007,141.616874 C174.849569,142.021593 173.42427,142.122773 172.2745,141.838032 C171.052972,141.573748 170.196807,140.974963 169.967292,140.158338 L165.062008,122.980447 C164.832492,122.163821 165.249893,121.200678 166.152071,120.328763 C166.983039,119.476752 168.248388,118.808302 169.735037,118.383126 C171.150476,117.978407 172.575226,117.877227 173.725544,118.161968 C174.946524,118.426252 175.803237,119.025037 176.032753,119.841662 L180.938036,137.019553 Z" id="Fill-33" fill="#1E3382"></path>
                                <path d="M195.497013,92.1948197 C190.645643,106.441777 177.194271,116.800715 161.431213,116.800715 C145.497434,116.800715 131.974325,106.347438 127.176897,92 C125.260039,95.3214246 123.868134,98.998437 123.119631,102.9674 C122.771516,104.812884 123.18803,106.732053 124.305225,108.238696 C132.738955,119.604667 146.216464,127 161.431213,127 C176.792214,127 190.454903,119.38696 198.884741,107.739087 C199.876258,106.369208 200.219924,104.633694 199.862355,102.978564 C199.02877,99.1201295 197.524534,95.4989394 195.497013,92.1948197" id="Fill-35" fill="#1E3382"></path>
                                <path d="M127.503234,67.8051803 C132.354068,53.5587808 145.805498,43.1998437 161.569179,43.1998437 C177.503026,43.1998437 191.025636,53.6531205 195.823641,68 C197.740507,64.6785754 199.132418,61.001563 199.880369,57.0331584 C200.228485,55.1876744 199.811969,53.2679469 198.69477,51.761304 C190.261559,40.3958915 176.783437,33 161.569179,33 C146.207556,33 132.545366,40.6135983 124.115491,52.2609133 C123.12397,53.6307916 122.780303,55.3663057 123.137317,57.0214357 C123.970906,60.8798705 125.475149,64.5016188 127.503234,67.8051803" id="Fill-37" fill="#F6DC8E"></path>
                                <path d="M197,79.5 C197,99.6582929 180.882152,116 161,116 C141.117848,116 125,99.6582929 125,79.5 C125,59.3417071 141.117848,43 161,43 C180.882152,43 197,59.3417071 197,79.5" id="Fill-39" fill="#E74F42"></path>
                                <path d="M163.116447,73.017854 C148.210926,72.5854516 134.06414,80.0357348 127,92.2659088 C131.846257,106.640218 145.470397,117 161.532806,117 C177.521753,117 191.095983,106.733514 196,92.4597637 C189.17307,81.3569645 176.39066,73.830145 163.116447,73.017854" id="Fill-41" fill="#E789A1"></path>
                                <path d="M175,93.5 C175,100.955991 168.955991,107 161.500552,107 C154.044009,107 148,100.955991 148,93.5 C148,86.0440093 154.044009,80 161.500552,80 C168.955991,80 175,86.0440093 175,93.5" id="Fill-43" fill="#FFFFFF"></path>
                            </g>
                        </g>
                    </g>
                </g>
            </g>
        </g>
    </g>
</svg>