<?xml version="1.0" encoding="UTF-8"?>
<svg width="306px" height="470px" viewBox="0 0 306 470" version="1.1" xmlns="http://www.w3.org/2000/svg" xmlns:xlink="http://www.w3.org/1999/xlink">
    <!-- Generator: Sketch 47.1 (45422) - http://www.bohemiancoding.com/sketch -->
    <title>Ilustração01</title>
    <desc>Created with Sketch.</desc>
    <defs>
        <polygon id="path-1" points="0 134.414811 0 0.675889222 84.3433143 0.675889222 84.3433143 134.414811"></polygon>
        <polygon id="path-3" points="0.197353469 259 197.288978 259 197.288978 0.598209062 0.197353469 0.598209062"></polygon>
    </defs>
    <g id="Page-1" stroke="none" stroke-width="1" fill="none" fill-rule="evenodd">
        <g id="Desktop-HD" transform="translate(-1219.000000, -534.000000)">
            <g id="Group-26">
                <g transform="translate(-320.000000, -66.000000)" id="HOME">
                    <g transform="translate(305.000000, 0.000000)">
                        <g id="Ilustração01" transform="translate(1234.000000, 600.000000)">
                            <path d="M265.513303,283 L262.486697,283 C240.162859,283 222,301.245999 222,323.673827 L222,376.326173 C222,398.754001 240.162859,417 262.486697,417 L265.513303,417 C287.837141,417 306,398.754001 306,376.326173 L306,323.673827 C306,301.245999 287.837141,283 265.513303,283" id="Fill-1" fill="#000000"></path>
                            <g id="Group-5" transform="translate(0.000000, 282.000000)">
                                <mask id="mask-2" fill="white">
                                    <use xlink:href="#path-1"></use>
                                </mask>
                                <g id="Clip-4"></g>
                                <path d="M43.6906476,0.675889222 L40.6516952,0.675889222 C18.2367905,0.675889222 -0.000161904762,18.8863383 -0.000161904762,41.2704701 L-0.000161904762,93.8202305 C-0.000161904762,116.204362 18.2367905,134.414811 40.6516952,134.414811 L43.6906476,134.414811 C66.1055524,134.414811 84.3433143,116.204362 84.3433143,93.8202305 L84.3433143,41.2704701 C84.3433143,18.8863383 66.1055524,0.675889222 43.6906476,0.675889222" id="Fill-3" fill="#000000" mask="url(#mask-2)"></path>
                            </g>
                            <g id="Group-8" transform="translate(54.000000, 211.000000)">
                                <mask id="mask-4" fill="white">
                                    <use xlink:href="#path-3"></use>
                                </mask>
                                <g id="Clip-7"></g>
                                <path d="M67.7492963,259.000081 C49.4702596,259.000081 31.9864555,251.836303 19.2708147,239.898022 C7.35040653,227.958931 0.197353469,212.836568 0.197353469,196.91859 L0.197353469,12.3300997 C0.197353469,5.85105281 5.4415249,0.598209062 11.91168,0.598209062 L185.294219,0.598209062 C191.919541,0.598209062 197.288978,5.97650594 197.288978,12.6117622 L197.288978,196.91859 C197.288978,212.836568 190.136733,227.958931 178.215517,239.898022 C165.499876,251.836303 148.016072,259.000081 129.737843,259.000081 L67.7492963,259.000081 Z" id="Fill-6" fill="#E74F42" mask="url(#mask-4)"></path>
                            </g>
                            <path d="M98,93.6567291 C98,68.3149679 106.825927,45.1759226 124.476969,26.443929 C139.922544,9.91627091 160.884221,0 182.948633,0 C205.013044,0 225.973911,9.91627091 242.521409,26.443929 C259.069717,45.1759226 269,68.3149679 269,93.6567291 L269,105.342461 C269,130.685032 259.069717,154.925435 242.521409,172.555261 C227.148809,189.005986 207.404194,197.81523 186.551168,198.983804 C186.355757,198.994331 186.160346,199 185.963313,199 L182.948633,199 L106.845387,199 C101.960113,199 98,195.044019 98,190.164842 L98,93.6567291 Z" id="Fill-9" fill="#F6C9C2"></path>
                            <path d="M202,108 C202,157.705626 161.704997,198 112.000405,198 C62.2941931,198 22,157.705626 22,108 C22,58.2943743 62.2941931,18 112.000405,18 C161.704997,18 202,58.2943743 202,108" id="Fill-11" fill="#66D1AC"></path>
                            <path d="M203,108.14797 C203,64.5052545 171.782863,28.1347085 130.393841,20 C128.346165,21.8156171 126.372285,23.7338983 124.481935,25.7532267 C106.827312,44.4510114 98,67.5479895 98,92.8453727 L98,189.181404 C98,193.116588 100.586155,196.446297 104.155195,197.582069 C107.02032,197.8553 109.923561,198 112.860862,198 C162.642521,198 203,157.771874 203,108.14797" id="Fill-13" fill="#F7FEFD"></path>
                            <path d="M278.640947,371.07208 C279.268333,372.10186 279.056213,373.580896 278.140016,375.120268 C277.312747,376.604196 275.817298,378.004143 273.923716,379.15541 C272.119878,380.252049 270.187951,380.935308 268.489356,380.98586 C266.700203,381.091855 265.288787,380.600202 264.6614,379.569606 L251.359007,357.927902 C250.73162,356.898121 250.94374,355.419086 251.860753,353.880529 C252.687206,352.395786 254.182655,350.995839 256.077053,349.844571 C257.880891,348.748748 259.812002,348.064673 261.511413,348.014122 C263.29975,347.908127 264.711982,348.400595 265.338553,349.431192 L278.640947,371.07208 Z" id="Fill-15" fill="#F6DC8E"></path>
                            <path d="M161.359007,371.07208 C160.73162,372.10186 160.94374,373.580896 161.860754,375.120268 C162.687209,376.604196 164.18266,378.004143 166.076245,379.15541 C167.880087,380.252049 169.812017,380.935308 171.510614,380.98586 C173.300587,381.091855 174.71119,380.600202 175.338577,379.569606 L188.640993,357.927902 C189.26838,356.898121 189.05626,355.419086 188.139246,353.880529 C187.312791,352.395786 185.81734,350.995839 183.922939,349.844571 C182.119097,348.748748 180.187983,348.064673 178.489386,348.014122 C176.700229,347.908127 175.287995,348.400595 174.662239,349.431192 L161.359007,371.07208 Z" id="Fill-17" fill="#F6DC8E"></path>
                            <path d="M192.088894,387.94432 C191.759522,389.101266 192.35942,390.466349 193.656475,391.701346 C194.851368,392.907075 196.66986,393.855071 198.807099,394.457529 C200.841359,395.030717 202.889512,395.173811 204.54291,394.770547 C206.29847,394.396551 207.530141,393.548558 207.859513,392.391611 L214.911177,368.055902 C215.240549,366.898956 214.639833,365.533873 213.342778,364.298876 C212.147886,363.092335 210.329393,362.145151 208.192971,361.542693 C206.157895,360.968692 204.110558,360.826411 202.457161,361.229676 C200.700783,361.603671 199.46993,362.452478 199.140558,363.608611 L192.088894,387.94432 Z" id="Fill-19" fill="#F6DC8E"></path>
                            <path d="M246.911103,387.94432 C247.240486,389.101266 246.640568,390.466349 245.343471,391.701346 C244.14854,392.907075 242.330806,393.855071 240.193497,394.457529 C238.158354,395.030717 236.110134,395.173811 234.456683,394.770547 C232.701066,394.396551 231.470172,393.548558 231.140789,392.391611 L224.088897,368.055902 C223.759514,366.898956 224.359432,365.533873 225.656529,364.298876 C226.85146,363.092335 228.670829,362.145151 230.80732,361.542693 C232.841646,360.968692 234.889866,360.826411 236.543317,361.229676 C238.298934,361.603671 239.529828,362.452478 239.859211,363.608611 L246.911103,387.94432 Z" id="Fill-21" fill="#F6DC8E"></path>
                            <path d="M266.683683,324.272569 C259.880522,344.217986 241.012538,358.720941 218.903682,358.720941 C196.554372,358.720941 177.587616,344.085757 170.85813,324 C168.169412,328.649901 166.21744,333.797891 165.167374,339.353923 C164.679989,341.936841 165.263718,344.625217 166.831125,346.733573 C178.658731,362.646425 197.563147,373 218.903682,373 C240.449049,373 259.611731,362.341407 271.435289,346.035114 C272.826201,344.116584 273.308729,341.686986 272.80677,339.370147 C271.637692,333.967435 269.528656,328.898134 266.683683,324.272569" id="Fill-23" fill="#F6DC8E"></path>
                            <path d="M171.316318,290.727431 C178.119479,270.782014 196.987464,256.279059 219.096322,256.279059 C241.445635,256.279059 260.412393,270.914243 267.14107,291 C269.829788,286.350099 271.78257,281.202109 272.832635,275.646077 C273.320021,273.062348 272.736292,270.374783 271.168075,268.266427 C259.340468,252.353575 240.43686,242 219.096322,242 C197.550954,242 178.38827,252.658593 166.564711,268.964886 C165.173799,270.883416 164.691271,273.313014 165.19323,275.629853 C166.362308,281.032565 168.471345,286.101866 171.316318,290.727431" id="Fill-25" fill="#1E3382"></path>
                            <path d="M269,306.499597 C269,334.390324 246.390324,357 218.500403,357 C190.609676,357 168,334.390324 168,306.499597 C168,278.609676 190.609676,256 218.500403,256 C246.390324,256 269,278.609676 269,306.499597" id="Fill-27" fill="#F6B533"></path>
                            <path d="M221.24981,298.024773 C200.511549,297.425038 180.829354,307.75399 171,324.709776 C177.742952,344.637708 196.698696,359 219.045353,359 C241.292396,359 260.177681,344.766337 267,324.97829 C257.502691,309.585354 239.718014,299.151086 221.24981,298.024773" id="Fill-29" fill="#71C9AB"></path>
                            <path d="M238,327 C238,337.493862 229.493236,346 218.999596,346 C208.505957,346 200,337.493862 200,327 C200,316.506945 208.505957,308 218.999596,308 C229.493236,308 238,316.506945 238,327" id="Fill-31" fill="#FFFFFF"></path>
                            <path d="M145.640993,371.07208 C146.26838,372.10186 146.05626,373.580896 145.139246,375.120268 C144.312791,376.604196 142.81734,378.004143 140.923755,379.15541 C139.119913,380.252049 137.187983,380.935308 135.489386,380.98586 C133.699413,381.091855 132.28881,380.600202 131.661423,379.569606 L118.359007,357.927902 C117.73162,356.898121 117.94374,355.419086 118.860754,353.880529 C119.687209,352.395786 121.18266,350.995839 123.076245,349.844571 C124.880087,348.748748 126.812017,348.064673 128.510614,348.014122 C130.299771,347.908127 131.71119,348.400595 132.337761,349.431192 L145.640993,371.07208 Z" id="Fill-33" fill="#F6DC8E"></path>
                            <path d="M28.3590609,371.07208 C27.7316612,372.10186 27.9437859,373.580896 28.8600016,375.120268 C29.6872881,376.604196 31.1827675,378.004143 33.0763887,379.15541 C34.8802649,380.252049 36.8122317,380.935308 38.5108614,380.98586 C40.3000519,381.091855 41.7114973,380.600202 42.338897,379.569606 L55.6415657,357.927902 C56.2681496,356.898121 56.0560248,355.419086 55.1398091,353.880529 C54.3133385,352.395786 52.8178591,350.995839 50.923422,349.844571 C49.1195459,348.748748 47.187579,348.064673 45.4889494,348.014122 C43.7005747,347.908127 42.2883134,348.400595 41.6617296,349.431192 L28.3590609,371.07208 Z" id="Fill-35" fill="#F6DC8E"></path>
                            <path d="M58.088897,387.94432 C57.7595145,389.101266 58.3594321,390.466349 59.6565291,391.701346 C60.8514604,392.907075 62.6691943,393.855071 64.806503,394.457529 C66.8416458,395.030717 68.8898658,395.173811 70.5433172,394.770547 C72.2989344,394.396551 73.529828,393.548558 73.8592105,392.391611 L80.911103,368.055902 C81.2404855,366.898956 80.6405679,365.533873 79.3434709,364.298876 C78.1485396,363.092335 76.329171,362.145151 74.1926797,361.542693 C72.1583542,360.968692 70.1101342,360.826411 68.4566828,361.229676 C66.7010656,361.603671 65.470172,362.452478 65.1407895,363.608611 L58.088897,387.94432 Z" id="Fill-37" fill="#F6DC8E"></path>
                            <path d="M113.911106,387.94432 C114.240478,389.101266 113.64058,390.466349 112.343525,391.701346 C111.148632,392.907075 109.33014,393.855071 107.192901,394.457529 C105.158641,395.030717 103.110488,395.173811 101.45709,394.770547 C99.7015297,394.396551 98.4698588,393.548558 98.1404869,392.391611 L91.0888233,368.055902 C90.7594515,366.898956 91.3601669,365.533873 92.6572218,364.298876 C93.8521143,363.092335 95.6706066,362.145151 97.8070285,361.542693 C99.8421053,360.968692 101.889442,360.826411 103.542839,361.229676 C105.299217,361.603671 106.53007,362.452478 106.859442,363.608611 L113.911106,387.94432 Z" id="Fill-39" fill="#F6DC8E"></path>
                            <path d="M133.684033,324.272569 C126.880877,344.217986 108.012909,358.720941 85.9032604,358.720941 C63.5547771,358.720941 44.5872265,344.085757 37.8585551,324 C35.1698392,328.649901 33.2178687,333.797891 32.1678041,339.353923 C31.6796091,341.936841 32.2633381,344.625217 33.8315533,346.733573 C45.6591505,362.646425 64.5635515,373 85.9032604,373 C107.44942,373 126.612087,362.341407 138.434826,346.035114 C139.826546,344.116584 140.309074,341.686986 139.806306,339.370147 C138.637229,333.967435 136.529003,328.898134 133.684033,324.272569" id="Fill-41" fill="#F6DC8E"></path>
                            <path d="M38.3159672,290.727431 C45.1199324,270.782014 63.9870913,256.279059 86.0967396,256.279059 C108.445223,256.279059 127.412774,270.914243 134.141445,291 C136.830161,286.350099 138.782131,281.202109 139.832196,275.646077 C140.320391,273.062348 139.736662,270.374783 138.168447,268.266427 C126.340849,252.353575 107.436448,242 86.0967396,242 C64.5505801,242 45.3879134,252.658593 33.5651739,268.964886 C32.1734537,270.883416 31.690926,273.313014 32.193694,275.629853 C33.3627713,281.032565 35.4709966,286.101866 38.3159672,290.727431" id="Fill-43" fill="#1E3382"></path>
                            <path d="M136,306.499597 C136,334.390324 113.390504,357 85.5,357 C57.6103025,357 35,334.390324 35,306.499597 C35,278.609676 57.6103025,256 85.5,256 C113.390504,256 136,278.609676 136,306.499597" id="Fill-45" fill="#F6B533"></path>
                            <path d="M88.2498102,298.024773 C67.511549,297.425038 47.8293543,307.75399 38,324.709776 C44.7429516,344.637708 63.6986958,359 86.0453525,359 C108.292396,359 127.177681,344.766337 134,324.97829 C124.502691,309.585354 106.718014,299.151086 88.2498102,298.024773" id="Fill-47" fill="#71C9AB"></path>
                            <path d="M105,327 C105,337.493862 96.4940429,346 86.0004035,346 C75.5067641,346 67,337.493862 67,327 C67,316.506945 75.5067641,308 86.0004035,308 C96.4940429,308 105,316.506945 105,327" id="Fill-49" fill="#FFFFFF"></path>
                        </g>
                    </g>
                </g>
            </g>
        </g>
    </g>
</svg>