<?xml version="1.0" encoding="UTF-8"?>
<svg width="206px" height="128px" viewBox="0 0 206 128" version="1.1" xmlns="http://www.w3.org/2000/svg" xmlns:xlink="http://www.w3.org/1999/xlink">
    <!-- Generator: Sketch 47.1 (45422) - http://www.bohemiancoding.com/sketch -->
    <title>Group</title>
    <desc>Created with Sketch.</desc>
    <defs></defs>
    <g id="Page-1" stroke="none" stroke-width="1" fill="none" fill-rule="evenodd">
        <g id="Desktop-HD" transform="translate(-356.000000, -28.000000)" fill="#F6B533">
            <g id="Group-26">
                <g transform="translate(-320.000000, -66.000000)" id="HOME">
                    <g transform="translate(305.000000, 0.000000)">
                        <g id="Group" transform="translate(371.000000, 94.000000)">
                            <path d="M164.546139,107.243327 C157.924915,94.2882435 158.548178,78.6660114 166.338125,67.2632004 C180.999527,65.452639 195.808124,73.0772367 202.533646,87.2348449 C209.228887,101.328516 205.890939,117.637542 195.400185,128 C182.784785,126.681457 170.818302,118.599562 164.546139,107.243327" id="Fill-69-Copy"></path>
                            <path d="M134.546302,20.7566383 C127.924667,33.7117006 128.54835,49.3339068 136.338286,60.7366988 C150.999666,62.5476807 165.80824,54.9226722 172.533752,40.7655109 C179.228984,26.6714397 175.89062,10.3624408 165.400302,0 C152.784921,1.31854046 140.818456,9.40042283 134.546302,20.7566383" id="Fill-71-Copy"></path>
                            <path d="M101.546463,107.243327 C94.9248027,94.2882435 95.5480673,78.6660114 103.338453,67.2632004 C117.999469,65.452639 132.8081,73.0772367 139.533638,87.2348449 C146.228895,101.328516 142.890939,117.637542 132.40016,128 C119.785151,126.681457 107.81822,118.599562 101.546463,107.243327" id="Fill-73-Copy"></path>
                            <path d="M71.546139,20.7566383 C64.9249149,33.7117006 65.548178,49.3339068 73.3381255,60.7366988 C87.9995275,62.5476807 102.808124,54.9226722 109.533646,40.7655109 C116.228887,26.6714397 112.890939,10.3624408 102.400185,0 C89.7847851,1.31854046 77.818302,9.40042283 71.546139,20.7566383" id="Fill-75-Copy"></path>
                            <path d="M34.546139,107.243327 C27.9249149,94.2882435 28.548178,78.6660114 36.3381255,67.2632004 C50.9995275,65.452639 65.8081238,73.0772367 72.5336456,87.2348449 C79.2288874,101.328516 75.8909393,117.637542 65.4001851,128 C52.7847851,126.681457 40.818302,118.599562 34.546139,107.243327" id="Fill-77-Copy"></path>
                            <path d="M4.54614895,20.7566383 C-2.07508964,33.7117006 -1.45182518,49.3339068 6.3381394,60.7366988 C20.9995736,62.5476807 35.8082025,54.9226722 42.533739,40.7655109 C49.2289955,26.6714397 45.8906195,10.3624408 35.4002628,0 C22.7848351,1.31854046 10.8183258,9.40042283 4.54614895,20.7566383" id="Fill-79-Copy"></path>
                        </g>
                    </g>
                </g>
            </g>
        </g>
    </g>
</svg>