<?xml version="1.0" encoding="UTF-8"?>
<svg width="666px" height="339px" viewBox="0 0 666 339" version="1.1" xmlns="http://www.w3.org/2000/svg" xmlns:xlink="http://www.w3.org/1999/xlink">
    <!-- Generator: Sketch 47.1 (45422) - http://www.bohemiancoding.com/sketch -->
    <title>ornamento</title>
    <desc>Created with Sketch.</desc>
    <defs></defs>
    <g id="Page-1" stroke="none" stroke-width="1" fill="none" fill-rule="evenodd">
        <g id="Desktop-HD" transform="translate(-20.000000, -424.000000)" stroke-width="18" stroke="#2D4499">
            <g id="Group-26">
                <g transform="translate(-320.000000, 0.000000)" id="HOME">
                    <g transform="translate(320.000000, 0.000000)">
                        <g id="ornamento" transform="translate(353.000000, 598.000000) rotate(-180.000000) translate(-353.000000, -598.000000) translate(29.000000, 433.000000)">
                            <g id="Group-4" transform="translate(94.000000, 110.000000)">
                                <path d="M302.26,97 C302.26,150.868 257.207,194.536 201.63,194.536 C146.054,194.536 101,150.868 101,97" id="Stroke-1"></path>
                                <path d="M554,97 C554,164.448753 497.588612,219.125966 428,219.125966 C358.41264,219.125966 302,164.448753 302,97" id="Stroke-3"></path>
                                <path d="M402.26,-3.41060513e-13 C402.26,53.868 357.207,97.537 301.63,97.537 C246.054,97.537 201,53.868 201,-3.41060513e-13" id="Stroke-5"></path>
                                <path d="M201.26,-2.27373675e-13 C201.26,53.868 156.207,97.537 100.63,97.537 C45.054,97.537 0,53.868 0,-2.27373675e-13" id="Stroke-7"></path>
                            </g>
                            <g id="Group-2" transform="translate(0.000000, -0.000000)">
                                <path d="M190.163043,61.4549472 C190.163043,95.2348561 161.910903,122.61848 127.059303,122.61848 C92.2083303,122.61848 63.955564,95.2348561 63.955564,61.4549472" id="Stroke-1-Copy"></path>
                                <path d="M383.890334,44.646704 C383.890334,84.2007588 350.808935,116.265184 310,116.265184 C269.191799,116.265184 236.109666,84.2007588 236.109666,44.646704" id="Stroke-3-Copy"></path>
                                <path d="M252.871717,0.627159951 C252.871717,34.4070688 224.619578,61.7913199 189.767978,61.7913199 C154.917005,61.7913199 126.664239,34.4070688 126.664239,0.627159951" id="Stroke-5-Copy"></path>
                                <path d="M126.827281,0.627159951 C126.827281,34.4070688 98.575142,61.7913199 63.7235419,61.7913199 C28.8725689,61.7913199 0.61980269,34.4070688 0.61980269,0.627159951" id="Stroke-7-Copy"></path>
                            </g>
                        </g>
                    </g>
                </g>
            </g>
        </g>
    </g>
</svg>