<?xml version="1.0" encoding="UTF-8"?>
<svg width="160px" height="172px" viewBox="0 0 160 172" version="1.1" xmlns="http://www.w3.org/2000/svg" xmlns:xlink="http://www.w3.org/1999/xlink">
    <!-- Generator: Sketch 47.1 (45422) - http://www.bohemiancoding.com/sketch -->
    <title>Enfeite</title>
    <desc>Created with Sketch.</desc>
    <defs>
        <polygon id="path-1" points="0 23.7059733 0 0.522506667 22.7226409 0.522506667 22.7226409 23.7059733 9.05242899e-16 23.7059733"></polygon>
    </defs>
    <g id="Page-1" stroke="none" stroke-width="1" fill="none" fill-rule="evenodd">
        <g id="Desktop-HD" transform="translate(-941.000000, -125.000000)">
            <g id="Group-26">
                <g transform="translate(-320.000000, -66.000000)" id="HOME">
                    <g transform="translate(305.000000, 0.000000)">
                        <g id="Enfeite" transform="translate(1036.000000, 277.000000) rotate(-270.000000) translate(-1036.000000, -277.000000) translate(950.000000, 197.000000)">
                            <path d="M63,80.0614501 C63,73.8213424 60.8321904,68.1238757 56.4965711,63.5116907 C52.7034289,59.4416214 47.5551433,57 42.1356193,57 C36.7160952,57 31.5683343,59.4416214 27.5034289,63.5116907 C23.4390482,68.1233504 21,73.8213424 21,80.0614501 L21,82.9390752 C21,89.1786576 23.4390482,95.1477074 27.5034289,99.4888346 C31.279258,103.539468 36.1290238,105.708455 41.2505527,105.996323 C41.2988196,105.998949 41.3470864,106 41.3948286,106 L42.1356193,106 L60.8274686,106 C62.0273187,106 63,105.026083 63,103.824709 L63,80.0614501 Z" id="Fill-1" fill="#71C9AB"></path>
                            <g id="Group-5" transform="translate(23.000000, 0.000000)" fill="#F5B430">
                                <path d="M30.0012243,8.26215286 C22.4468189,1.11956714 11.6269541,-1.54231857 2.2716973,1.58576714 C-1.88232973,11.36381 0.394954054,23.1118386 8.75202162,30.5641671 C17.0711432,37.9831957 28.9007919,38.9044957 38.0805486,33.7033529 C39.6853459,24.7202814 36.5300351,14.8470957 30.0012243,8.26215286" id="Fill-3"></path>
                            </g>
                            <path d="M133.654712,29.7101468 C122.971893,38.8144875 117.887617,52.8799857 120.819833,65.7757546 C133.445609,72.6373302 149.61658,71.1916326 160.828523,61.0592054 C171.989518,50.9727729 174.863355,35.325161 169.108782,22.382352 C157.204782,19.027351 143.442209,21.8973168 133.654712,29.7101468" id="Fill-6" fill="#F6DC8E"></path>
                            <g id="Group-10" transform="translate(0.000000, 37.000000)">
                                <mask id="mask-2" fill="white">
                                    <use xlink:href="#path-1"></use>
                                </mask>
                                <g id="Clip-9"></g>
                                <path d="M22.7226409,12.1139733 C22.7226409,18.5161067 17.6359818,23.7059733 11.3616864,23.7059733 C5.08686818,23.7059733 -0.000313636364,18.5161067 -0.000313636364,12.1139733 C-0.000313636364,5.71237333 5.08686818,0.522506667 11.3616864,0.522506667 C17.6359818,0.522506667 22.7226409,5.71237333 22.7226409,12.1139733" id="Fill-8" fill="#EC6963" mask="url(#mask-2)"></path>
                            </g>
                            <path d="M76.5,160 L76.5,160 C73.475,160 71,157.626879 71,154.726397 L71,13.2736028 C71,10.3731213 73.475,8 76.5,8 C79.525,8 82,10.3731213 82,13.2736028 L82,154.726397 C82,157.626879 79.525,160 76.5,160" id="Fill-11" fill="#000000"></path>
                            <path d="M80.9743274,76.8972208 C77.1485838,61.4105926 67.1226415,48.5175669 53.792267,41 L53.0760534,46.3009963 C52.684677,49.1976927 53.8216071,52.0875721 56.0766058,53.9454641 C62.9657736,59.6198217 68.2097982,67.2794966 70.9232365,76.1751442 L81,77 L80.9743274,76.8972208 Z" id="Fill-15" fill="#000000"></path>
                            <path d="M119,71.1389183 L119,67 C96.4634957,69.6553227 77.5536958,85.3459132 71.280736,107.027827 L71,108 L81.2479258,107.467682 C81.2473941,107.467159 81.2463307,107.466115 81.245799,107.46507 C86.3484941,92.6113525 98.7242709,81.4775944 113.859023,77.5878576 C116.867895,76.8147162 119,74.1943938 119,71.1389183" id="Fill-17" fill="#000000"></path>
                            <path d="M118,32.4997354 C118,38.8512043 112.851733,44 106.500265,44 C100.148796,44 95,38.8512043 95,32.4997354 C95,26.1487957 100.148796,21 106.500265,21 C112.851733,21 118,26.1487957 118,32.4997354" id="Fill-19" fill="#EC6963"></path>
                        </g>
                    </g>
                </g>
            </g>
        </g>
    </g>
</svg>