<?xml version="1.0" encoding="UTF-8"?>
<svg width="433px" height="437px" viewBox="0 0 433 437" version="1.1" xmlns="http://www.w3.org/2000/svg" xmlns:xlink="http://www.w3.org/1999/xlink">
    <!-- Generator: Sketch 47.1 (45422) - http://www.bohemiancoding.com/sketch -->
    <title>Page 1 Copy 9</title>
    <desc>Created with Sketch.</desc>
    <defs></defs>
    <g id="Page-1" stroke="none" stroke-width="1" fill="none" fill-rule="evenodd">
        <g id="Desktop-HD" transform="translate(-1148.000000, -5277.000000)">
            <g id="Group-26">
                <g transform="translate(-320.000000, -66.000000)" id="PROGRAMAÇAO">
                    <g transform="translate(320.000000, 4162.000000)">
                        <g id="Page-1-Copy-9" transform="translate(1148.000000, 1181.000000)">
                            <g id="Group-19">
                                <path d="M99.3070786,196.425873 C99.3070786,223.393758 77.1918489,245.25445 49.9128489,245.25445 C22.6338489,245.25445 0.518619094,223.393758 0.518619094,196.425873 C0.518619094,169.459392 22.6338489,147.597296 49.9128489,147.597296 C77.1918489,147.597296 99.3070786,169.459392 99.3070786,196.425873" id="Fill-4" fill="#EC6963"></path>
                                <path d="M161.807055,192.793562 L161.808457,192.796369 C154.221848,211.665465 135.717754,224.17935 115.010826,224.17935 C94.2730683,224.17935 75.8054081,211.673888 68.220201,192.793562 L57.2228417,192.793562 L57.4652657,193.503908 C65.779146,217.968735 88.9047091,234.406369 115.010826,234.406369 C140.964201,234.406369 164.046324,218.097888 172.449887,193.825388 L172.807217,192.793562 L161.807055,192.793562 Z" id="Fill-5" fill="#1E3382"></path>
                                <path d="M245.485076,388.055085 C245.485076,415.021565 223.371248,436.883662 196.090846,436.883662 C168.811846,436.883662 146.698018,415.021565 146.698018,388.055085 C146.698018,361.0872 168.811846,339.226508 196.090846,339.226508 C223.371248,339.226508 245.485076,361.0872 245.485076,388.055085" id="Fill-6" fill="#F6B533"></path>
                                <path d="M383.245778,231.923808 C383.245778,258.890288 361.130548,280.752385 333.851548,280.752385 C306.571147,280.752385 284.457318,258.890288 284.457318,231.923808 C284.457318,204.955923 306.571147,183.095231 333.851548,183.095231 C361.130548,183.095231 383.245778,204.955923 383.245778,231.923808" id="Fill-7" fill="#71C9AB"></path>
                                <path d="M99.3003524,341.550575 L99.3003524,341.546363 C117.01832,331.273017 139.392789,332.645979 155.726278,345.227248 C172.08499,357.829575 178.875663,378.91394 173.120547,398.416171 L181.79456,405.098479 L182.046793,404.389537 C190.701187,380.041229 182.678776,353.02421 162.085352,337.160748 C141.613841,321.391344 113.267055,320.22896 91.54699,334.268825 L90.6235369,334.866863 L99.3003524,341.550575 Z" id="Fill-8" fill="#E74F42"></path>
                                <path d="M335.308894,247.178281 L335.313098,247.178281 C343.446211,265.825569 339.310991,287.607646 324.670266,302.0813 C310.004318,316.580223 288.002593,320.645762 269.132761,312.597512 L261.35838,320.283569 L262.038007,320.617685 C285.414402,332.106762 313.52437,327.562512 331.985024,309.312512 C350.336376,291.172012 354.992878,263.505012 343.572328,240.467896 L343.08748,239.488012 L335.308894,247.178281 Z" id="Fill-9" fill="#E789A1"></path>
                                <path d="M222.200886,81.7601404 C222.200886,108.728025 200.087058,130.588717 172.806657,130.588717 C145.527657,130.588717 123.413828,108.728025 123.413828,81.7601404 C123.413828,54.7936596 145.527657,32.9315635 172.806657,32.9315635 C200.087058,32.9315635 222.200886,54.7936596 222.200886,81.7601404" id="Fill-10" fill="#1E3382"></path>
                                <path d="M432.559293,88.6649577 C432.559293,115.631438 410.445464,137.493535 383.166464,137.493535 C355.886063,137.493535 333.772235,115.631438 333.772235,88.6649577 C333.772235,61.6970731 355.886063,39.8363808 383.166464,39.8363808 C410.445464,39.8363808 432.559293,61.6970731 432.559293,88.6649577" id="Fill-11" fill="#F6DC8E"></path>
                                <path d="M398.550576,81.2859212 L398.550576,81.2901327 C379.687751,89.3285558 357.652395,85.2419596 343.01167,70.7683058 C328.347123,56.2707865 324.234324,34.5195942 332.374443,15.8666904 L324.600061,8.18063269 L324.260948,8.85167115 C312.640013,31.9617865 317.23766,59.7495173 335.696913,77.9995173 C354.048265,96.1414212 382.034919,100.744633 405.339848,89.4549019 L406.329162,88.9761904 L398.550576,81.2859212 Z" id="Fill-12" fill="#E74F42"></path>
                                <path d="M160.067769,73.6798827 L160.067769,73.6826904 C141.204943,81.7225173 119.169587,77.6359212 104.528862,63.1622673 C89.8629142,48.6647481 85.7515162,26.9135558 93.8916359,8.26065192 L86.117254,0.573190385 L85.7781408,1.24563269 C74.1572055,24.3557481 78.7534515,52.1434788 97.2141052,70.3934788 C115.565458,88.5339788 143.552112,93.1385942 166.855639,81.8488635 L167.846354,81.3687481 L160.067769,73.6798827 Z" id="Fill-13" fill="#F9DCD2"></path>
                                <path d="M220.031963,169.12289 L220.034765,169.121487 C231.301173,173.549217 238.772875,184.346198 238.772875,196.427698 C238.772875,208.530256 231.305377,219.306179 220.031963,223.731102 L220.031963,230.148083 L220.457956,230.007698 C235.06505,225.15741 244.878316,211.662237 244.878316,196.427698 C244.878316,181.285813 235.14072,167.81591 220.648532,162.912275 L220.031963,162.704506 L220.031963,169.12289 Z" id="Fill-14" fill="#E789A1"></path>
                                <path d="M390.453476,369.552112 L390.454877,369.553515 C385.860033,380.982227 374.655282,388.560188 362.113696,388.560188 C349.553894,388.560188 338.371563,380.986438 333.77812,369.552112 L327.117767,369.552112 L327.263502,369.983092 C332.298353,384.797881 346.30289,394.752554 362.113696,394.752554 C377.830615,394.752554 391.809929,384.876496 396.899431,370.176823 L397.11523,369.552112 L390.453476,369.552112 Z" id="Fill-15" fill="#1E3382"></path>
                                <path d="M73.0315456,351.441233 L73.0315456,351.442637 C62.060811,356.118848 49.2431702,353.742137 40.7275036,345.323271 C32.1978239,336.891771 29.8058142,324.24031 34.5407883,313.391387 L30.018811,308.918733 L29.8226298,309.310406 C23.0627851,322.750829 25.736455,338.914713 36.4731735,349.529194 C47.1468337,360.080502 63.4256718,362.75904 76.9789922,356.191848 L77.5563256,355.913887 L73.0315456,351.441233 Z" id="Fill-16" fill="#71C9AB"></path>
                                <path d="M70.3697867,381.785648 L69.8513078,382.306475 C66.0201686,386.143187 66.0201686,392.38609 69.8513078,396.224206 L89.6459939,416.054937 C93.4757317,419.891648 99.7086896,419.891648 103.538428,416.054937 L104.056906,415.53411 C107.886644,411.697398 107.886644,405.45309 104.056906,401.616379 L84.2622204,381.785648 C80.4324825,377.948937 74.1995246,377.948937 70.3697867,381.785648" id="Fill-17" fill="#000202"></path>
                                <path d="M70.3697867,381.785648 L69.8513078,382.306475 C66.0201686,386.143187 66.0201686,392.38609 69.8513078,396.224206 L89.6459939,416.054937 C93.4757317,419.891648 99.7086896,419.891648 103.538428,416.054937 L104.056906,415.53411 C107.886644,411.697398 107.886644,405.45309 104.056906,401.616379 L84.2622204,381.785648 C80.4324825,377.948937 74.1995246,377.948937 70.3697867,381.785648 Z" id="Stroke-18" stroke="#000000"></path>
                            </g>
                        </g>
                    </g>
                </g>
            </g>
        </g>
    </g>
</svg>