<?xml version="1.0" encoding="UTF-8"?>
<svg width="348px" height="350px" viewBox="0 0 348 350" version="1.1" xmlns="http://www.w3.org/2000/svg" xmlns:xlink="http://www.w3.org/1999/xlink">
    <!-- Generator: Sketch 47.1 (45422) - http://www.bohemiancoding.com/sketch -->
    <title>Page 1 Copy 10</title>
    <desc>Created with Sketch.</desc>
    <defs></defs>
    <g id="Page-1" stroke="none" stroke-width="1" fill="none" fill-rule="evenodd">
        <g id="Desktop-HD" transform="translate(0.000000, -5867.000000)">
            <g id="Group-26">
                <g transform="translate(-320.000000, -66.000000)" id="PROGRAMAÇAO">
                    <g transform="translate(320.000000, 4162.000000)">
                        <g id="Page-1-Copy-10" transform="translate(0.000000, 1771.000000)">
                            <g id="Group-19">
                                <path d="M79.8126175,156.961314 C79.8126175,178.510994 62.0387146,195.979583 40.1147146,195.979583 C18.1907146,195.979583 0.41681165,178.510994 0.41681165,156.961314 C0.41681165,135.412756 18.1907146,117.943045 40.1147146,117.943045 C62.0387146,117.943045 79.8126175,135.412756 79.8126175,156.961314" id="Fill-4" fill="#EC6963"></path>
                                <path d="M130.043546,154.058782 L130.044672,154.061026 C123.947351,169.139071 109.075701,179.13875 92.4336427,179.13875 C75.7668078,179.13875 60.9244388,169.145801 54.8282447,154.058782 L45.9897204,154.058782 L46.1845553,154.62641 C52.8663806,174.175929 71.4522835,187.311026 92.4336427,187.311026 C113.292245,187.311026 131.843235,174.279135 138.597138,154.883301 L138.884322,154.058782 L130.043546,154.058782 Z" id="Fill-5" fill="#1E3382"></path>
                                <path d="M197.295165,310.089679 C197.295165,331.638237 179.522388,349.107949 157.597262,349.107949 C135.673262,349.107949 117.900485,331.638237 117.900485,310.089679 C117.900485,288.54 135.673262,271.07141 157.597262,271.07141 C179.522388,271.07141 197.295165,288.54 197.295165,310.089679" id="Fill-6" fill="#F6B533"></path>
                                <path d="M308.012773,185.327244 C308.012773,206.875801 290.23887,224.345513 268.31487,224.345513 C246.389744,224.345513 228.616967,206.875801 228.616967,185.327244 C228.616967,163.777564 246.389744,146.308974 268.31487,146.308974 C290.23887,146.308974 308.012773,163.777564 308.012773,185.327244" id="Fill-7" fill="#71C9AB"></path>
                                <path d="M79.8072117,272.928542 L79.8072117,272.925176 C94.0470563,264.715881 112.029309,265.812997 125.156454,275.866522 C138.303872,285.936875 143.761503,302.785112 139.136144,318.369087 L146.107406,323.70883 L146.310124,323.142324 C153.265619,303.685913 146.818047,282.096971 130.267212,269.420689 C113.814357,256.819567 91.0321825,255.890721 73.5758718,267.109792 L72.8336971,267.587676 L79.8072117,272.928542 Z" id="Fill-8" fill="#E74F42"></path>
                                <path d="M269.486132,197.516891 L269.489511,197.516891 C276.026054,212.417692 272.702598,229.823462 260.935918,241.389167 C249.148967,252.975064 231.466287,256.223782 216.300695,249.792532 L210.052462,255.934359 L210.598676,256.201346 C229.386171,265.382115 251.978016,261.750865 266.814753,247.167532 C281.563647,232.671699 285.306054,210.563365 276.127414,192.154712 L275.737744,191.371699 L269.486132,197.516891 Z" id="Fill-9" fill="#E789A1"></path>
                                <path d="M178.581775,65.3334455 C178.581775,86.883125 160.808998,104.351715 138.883872,104.351715 C116.959872,104.351715 99.1870951,86.883125 99.1870951,65.3334455 C99.1870951,43.7848878 116.959872,26.3151763 138.883872,26.3151763 C160.808998,26.3151763 178.581775,43.7848878 178.581775,65.3334455" id="Fill-10" fill="#1E3382"></path>
                                <path d="M347.645806,70.8509936 C347.645806,92.3995513 329.873029,109.869263 307.949029,109.869263 C286.023903,109.869263 268.251126,92.3995513 268.251126,70.8509936 C268.251126,49.3013141 286.023903,31.8327244 307.949029,31.8327244 C329.873029,31.8327244 347.645806,49.3013141 347.645806,70.8509936" id="Fill-11" fill="#F6DC8E"></path>
                                <path d="M320.313165,64.9545032 L320.313165,64.9578686 C305.153204,71.381266 287.443495,68.1157212 275.676816,56.550016 C263.89099,44.9652404 260.585553,27.5841506 267.127728,12.6788622 L260.879495,6.53703526 L260.606951,7.07325321 C251.267262,25.5402404 254.962369,47.7450481 269.797981,62.3283814 C284.546874,76.8253365 307.039612,80.5037019 325.76967,71.4822276 L326.564777,71.0996955 L320.313165,64.9545032 Z" id="Fill-12" fill="#E74F42"></path>
                                <path d="M128.645689,58.8766186 L128.645689,58.8788622 C113.485728,65.3033814 95.7760194,62.0378365 84.0093398,50.4721314 C72.2223883,38.8873558 68.9180777,21.506266 75.4602524,6.60097756 L69.2120194,0.458028846 L68.9394757,0.99536859 C59.5997864,19.4623558 63.293767,41.6671635 78.1305049,56.2504968 C92.8793981,70.7463301 115.372136,74.4258173 134.101068,65.4043429 L134.897301,65.0206891 L128.645689,58.8766186 Z" id="Fill-13" fill="#F9DCD2"></path>
                                <path d="M176.838621,135.143862 L176.840874,135.14274 C185.895631,138.680881 191.900602,147.308606 191.900602,156.962772 C191.900602,166.633766 185.89901,175.244663 176.838621,178.780561 L176.838621,183.908285 L177.18099,183.796106 C188.920641,179.920304 196.807515,169.13649 196.807515,156.962772 C196.807515,144.863093 188.981456,134.099471 177.334155,130.181042 L176.838621,130.015016 L176.838621,135.143862 Z" id="Fill-14" fill="#E789A1"></path>
                                <path d="M313.805565,295.304199 L313.806691,295.305321 C310.113837,304.437853 301.108633,310.493301 291.029021,310.493301 C280.934769,310.493301 271.947584,304.441218 268.255856,295.304199 L262.902963,295.304199 L263.020089,295.64859 C267.066575,307.486891 278.321953,315.441538 291.029021,315.441538 C303.660633,315.441538 314.89574,307.549712 318.986148,295.803397 L319.159584,295.304199 L313.805565,295.304199 Z" id="Fill-15" fill="#1E3382"></path>
                                <path d="M58.695099,280.832035 L58.695099,280.833157 C49.8779728,284.569856 39.5764971,282.670657 32.7324971,275.943253 C25.877235,269.205753 23.9547883,259.096138 27.7602641,250.426907 L24.1259728,246.852869 L23.9683029,247.165849 C18.5354485,257.905913 20.6842641,270.82226 29.3133126,279.304151 C37.8916816,287.735561 50.9749049,289.875946 61.8676427,284.628189 L62.3316427,284.406074 L58.695099,280.832035 Z" id="Fill-16" fill="#71C9AB"></path>
                                <path d="M56.5558563,305.079856 L56.1391573,305.496042 C53.0600893,308.561907 53.0600893,313.550529 56.1391573,316.617516 L72.0480505,332.46399 C75.1259922,335.529856 80.1353903,335.529856 83.213332,332.46399 L83.6300311,332.047804 C86.7079728,328.981939 86.7079728,323.992196 83.6300311,320.92633 L67.7211379,305.079856 C64.6431961,302.01399 59.6337981,302.01399 56.5558563,305.079856" id="Fill-17" fill="#000202"></path>
                                <path d="M56.5558563,305.079856 L56.1391573,305.496042 C53.0600893,308.561907 53.0600893,313.550529 56.1391573,316.617516 L72.0480505,332.46399 C75.1259922,335.529856 80.1353903,335.529856 83.213332,332.46399 L83.6300311,332.047804 C86.7079728,328.981939 86.7079728,323.992196 83.6300311,320.92633 L67.7211379,305.079856 C64.6431961,302.01399 59.6337981,302.01399 56.5558563,305.079856 Z" id="Stroke-18" stroke="#000000"></path>
                            </g>
                        </g>
                    </g>
                </g>
            </g>
        </g>
    </g>
</svg>