<?xml version="1.0" encoding="UTF-8"?>
<svg width="130px" height="140px" viewBox="0 0 130 140" version="1.1" xmlns="http://www.w3.org/2000/svg" xmlns:xlink="http://www.w3.org/1999/xlink">
    <!-- Generator: Sketch 47.1 (45422) - http://www.bohemiancoding.com/sketch -->
    <title>Page 1 Copy 9</title>
    <desc>Created with Sketch.</desc>
    <defs>
        <polygon id="path-1" points="0 18.7672289 0 0.413651111 18.7708773 0.413651111 18.7708773 18.7672289 7.47809352e-16 18.7672289"></polygon>
    </defs>
    <g id="Symbols" stroke="none" stroke-width="1" fill="none" fill-rule="evenodd">
        <g id="ornamento_esquerdo">
            <g id="Page-1-Copy-9" transform="translate(65.000000, 70.000000) rotate(-90.000000) translate(-65.000000, -70.000000) translate(-5.000000, 5.000000)">
                <path d="M51,64.8256735 C51,59.7317081 49.2451065,55.0807148 45.7353195,51.3156659 C42.6646805,47.9931603 38.4970208,46 34.109787,46 C29.7225532,46 25.5553182,47.9931603 22.2646805,51.3156659 C18.9744676,55.080286 17,59.7317081 17,64.8256735 L17,67.1747553 C17,72.2682919 18.9744676,77.1409856 22.2646805,80.6847629 C25.3213041,83.9914021 29.247305,85.7620043 33.3933046,85.9969983 C33.4323777,85.9991424 33.4714509,86 33.5100993,86 L34.109787,86 L49.2412841,86 C50.2125913,86 51,85.2049657 51,84.224252 L51,64.8256735 Z" id="Fill-1" fill="#71C9AB"></path>
                <g id="Group-5" transform="translate(19.000000, 0.000000)" fill="#F5B430">
                    <path d="M24.6163892,6.69904286 C18.4179027,0.907757143 9.54006486,-1.25052857 1.86395676,1.28575714 C-1.54447568,9.2139 0.324064865,18.7393286 7.18114595,24.7817571 C14.0070919,30.7971857 23.7134703,31.5441857 31.2455784,27.3270429 C32.5623351,20.0434714 29.9733622,12.0381857 24.6163892,6.69904286" id="Fill-3"></path>
                </g>
                <path d="M109.028805,24.1103239 C100.400375,31.5424388 96.2938444,43.0244781 98.6621725,53.5516364 C108.859915,59.1529226 121.921083,57.9727613 130.976884,49.7013922 C139.991534,41.4675697 142.31271,28.694009 137.664786,18.1284506 C128.050017,15.3896743 116.934092,17.7325035 109.028805,24.1103239" id="Fill-6" fill="#F6DC8E"></path>
                <g id="Group-10" transform="translate(0.000000, 30.000000)">
                    <mask id="mask-2" fill="white">
                        <use xlink:href="#path-1"></use>
                    </mask>
                    <g id="Clip-9"></g>
                    <path d="M18.7708773,9.59022889 C18.7708773,14.6585844 14.5688545,18.7672289 9.38574091,18.7672289 C4.20219545,18.7672289 -0.000259090909,14.6585844 -0.000259090909,9.59022889 C-0.000259090909,4.52229556 4.20219545,0.413651111 9.38574091,0.413651111 C14.5688545,0.413651111 18.7708773,4.52229556 18.7708773,9.59022889" id="Fill-8" fill="#EC6963" mask="url(#mask-2)"></path>
                </g>
                <path d="M62.5,130 L62.5,130 C60.025,130 58,128.064033 58,125.69785 L58,10.3021497 C58,7.93596736 60.025,6 62.5,6 C64.975,6 67,7.93596736 67,10.3021497 L67,125.69785 C67,128.064033 64.975,130 62.5,130" id="Fill-11" fill="#000000"></path>
                <path d="M65.9789118,61.9172056 C62.8363367,49.4418662 54.6007413,39.0558177 43.6507907,33 L43.0624724,37.270247 C42.7409847,39.6036969 43.6748916,41.9316553 45.5272119,43.4282905 C51.1861712,47.9993008 55.4937628,54.1695945 57.7226585,61.3355328 L66,62 L65.9789118,61.9172056 Z" id="Fill-15" fill="#000000"></path>
                <path d="M97,57.3313245 L97,54 C78.6890902,56.1372109 63.3248779,68.7662228 58.228098,86.2175193 L58,87 L66.3264397,86.5715487 C66.3260077,86.5711282 66.3251437,86.5702873 66.3247117,86.5694464 C70.4706514,74.6140154 80.5259701,65.652698 92.822956,62.5219341 C95.2676651,61.8996496 97,59.7906097 97,57.3313245" id="Fill-17" fill="#000000"></path>
                <path d="M96,26.4997815 C96,31.746647 91.7470841,36 86.5002185,36 C81.253353,36 77,31.746647 77,26.4997815 C77,21.253353 81.253353,17 86.5002185,17 C91.7470841,17 96,21.253353 96,26.4997815" id="Fill-19" fill="#EC6963"></path>
            </g>
        </g>
    </g>
</svg>