<?xml version="1.0" encoding="UTF-8"?>
<svg width="400px" height="255px" viewBox="0 0 400 255" version="1.1" xmlns="http://www.w3.org/2000/svg" xmlns:xlink="http://www.w3.org/1999/xlink">
    <!-- Generator: Sketch 47.1 (45422) - http://www.bohemiancoding.com/sketch -->
    <title>Page 1 Copy 12</title>
    <desc>Created with Sketch.</desc>
    <defs>
        <polygon id="path-1" points="0.0499569886 0.607107558 47.8342176 0.607107558 47.8342176 154.231486 0.0499569886 154.231486 0.0499569886 0.607107558"></polygon>
        <polygon id="path-3" points="122.73599 259.447674 0.666514647 259.447674 0.666514647 0.288611895 122.73599 0.288611895"></polygon>
    </defs>
    <g id="Page-1" stroke="none" stroke-width="1" fill="none" fill-rule="evenodd">
        <g id="Desktop-HD" transform="translate(-24.000000, -3917.000000)">
            <g id="Group-26">
                <g transform="translate(-320.000000, -66.000000)" id="PALESTRANTES">
                    <g transform="translate(210.000000, 2114.000000)">
                        <g id="Page-1-Copy-12" transform="translate(333.500000, 1996.500000) rotate(-270.000000) translate(-333.500000, -1996.500000) translate(206.000000, 1796.000000)">
                            <path d="M38.1563765,145.271128 C32.6449666,141.191128 26.1950974,139.382407 19.2841526,140.200038 C13.2064055,140.893134 7.67942878,143.848613 4.13166715,148.640241 C0.583164244,153.431869 -0.630309593,159.580779 0.302219477,165.835692 C1.7143561,172.444936 5.14870203,178.326985 10.6586294,182.406985 C11.674923,183.158642 82.8214055,236.503308 82.8214055,236.503308 C88.3320741,240.583308 95.1992834,242.330503 101.693629,241.574398 C107.742467,240.884267 112.83283,238.014776 116.439894,233.674587 C116.473993,233.633817 116.506609,233.591564 116.537743,233.550052 L117.023281,232.894762 L129.260315,216.367945 C130.046071,215.306433 129.822946,213.809791 128.762176,213.024035 C128.762176,213.024035 116.259022,203.766201 110.554879,199.543134 C108.895156,198.314093 38.189734,145.296331 38.1563765,145.271128" id="Fill-1" fill="#000000"></path>
                            <g id="Group-5" transform="translate(103.779070, 0.134172)">
                                <mask id="mask-2" fill="white">
                                    <use xlink:href="#path-1"></use>
                                </mask>
                                <g id="Clip-4"></g>
                                <path d="M23.1027776,0.631718023 L16.3319346,0.995686047 C6.88210901,1.50346221 -0.433574128,9.65086047 0.074943314,19.100686 L6.68270494,142.049974 C7.06223983,149.118811 13.1577776,154.592416 20.2273561,154.212881 L35.6533735,153.38339 C42.722952,153.003855 48.1958154,146.908317 47.8155392,139.83948 L41.2077776,16.8894506 C40.6992602,7.439625 32.5526032,0.12394186 23.1027776,0.631718023" id="Fill-3" fill="#71C9AB" mask="url(#mask-2)"></path>
                            </g>
                            <path d="M70.0031337,26.4449826 L68.779282,26.6525407 C57.9469709,28.4894302 50.5882936,38.8547355 52.4244419,49.6870465 L67.8215494,172.637076 C69.1958808,180.739997 81.3321017,179.916436 89.4357645,178.542846 L100.580154,176.652584 C108.684558,175.277512 114.189297,167.522991 112.815706,159.42007 L93.0368983,42.7990814 C91.20075,31.9675116 80.8347035,24.608093 70.0031337,26.4449826" id="Fill-6" fill="#71C9AB"></path>
                            <path d="M191.644583,27.581141 L184.956022,26.4692224 C175.620353,24.9177253 166.712403,31.2860538 165.160906,40.6209811 L144.97217,162.081781 C143.811327,169.066112 148.574786,175.729469 155.559118,176.890313 L170.798333,179.423263 C177.782664,180.584106 184.446022,175.819906 185.606865,168.836315 L205.796342,47.375516 C207.347839,38.0405887 200.97951,29.1326381 191.644583,27.581141" id="Fill-8" fill="#71C9AB"></path>
                            <path d="M244.655451,78.3019012 L238.476148,75.5109855 C229.856555,71.6177878 219.620233,75.4850407 215.727776,84.1038924 L165.044302,196.318718 C162.127369,202.774517 165.024288,210.443049 171.480087,213.3585 L185.544375,219.711262 C192.000174,222.626712 199.668706,219.730535 202.584157,213.274735 L253.258735,101.079924 C257.156381,92.4499535 253.285422,82.2002878 244.655451,78.3019012" id="Fill-10" fill="#71C9AB"></path>
                            <g id="Group-14" transform="translate(84.505814, 140.235916)">
                                <mask id="mask-4" fill="white">
                                    <use xlink:href="#path-3"></use>
                                </mask>
                                <g id="Clip-13"></g>
                                <path d="M68.9650465,0.501401163 L64.7820087,0.333872093 C33.9247849,-0.898875 7.8184186,23.2023314 6.58493023,54.0595552 L0.711776163,201.037404 C-0.52097093,231.894628 23.5794942,258.002477 54.436718,259.235224 L58.6197558,259.402753 C89.4769797,260.6355 115.584828,236.534294 116.817576,205.67707 L122.69073,58.6992209 C123.923477,27.8419971 99.8222703,1.73414826 68.9650465,0.501401163" id="Fill-12" fill="#1E3382" mask="url(#mask-4)"></path>
                            </g>
                            <path d="M70.9905916,203.914012 C73.4464491,225.377006 83.5626846,244.072064 101.128033,258.134128 C116.511057,270.554259 136.176449,276.813619 155.86408,274.560872 C175.553193,272.308866 193.295708,261.770843 206.460824,246.083895 C219.412452,228.531148 226.02985,207.920625 223.574734,186.458372 C223.122554,182.501424 222.442801,176.561555 222.442801,176.561555 C219.986943,155.098561 208.778804,135.582907 192.303876,122.34218 C176.992757,109.979128 158.520824,104.534433 139.800562,105.673038 C139.624879,105.683416 139.449937,105.699724 139.274996,105.719738 L136.583411,106.027369 L68.6770596,113.795974 C64.3175974,114.294855 61.1671613,118.048692 61.6400974,122.180581 C61.6400974,122.180581 70.9231352,203.328401 70.9905916,203.914012" id="Fill-15" fill="#F9CB33"></path>
                            <path d="M165.955334,235.878706 L165.933096,235.725262 C160.94577,201.51375 135.362747,173.608299 101.512238,166.57875 C89.0846948,163.996875 76.5926599,164.396424 64.8648837,167.356352 C65.4178779,172.192456 65.9619767,176.947762 66.4653052,181.346512 C76.1775436,178.608968 86.5754651,178.011497 96.958561,179.892863 C122.185029,184.465073 142.316686,202.690901 149.694637,226.628285 C150.948881,230.697166 154.303169,233.766802 158.492878,234.526613 L165.955334,235.878706 Z" id="Fill-17" fill="#000000"></path>
                        </g>
                    </g>
                </g>
            </g>
        </g>
    </g>
</svg>