<?xml version="1.0" encoding="UTF-8"?>
<svg width="198px" height="351px" viewBox="0 0 198 351" version="1.1" xmlns="http://www.w3.org/2000/svg" xmlns:xlink="http://www.w3.org/1999/xlink">
    <!-- Generator: Sketch 47.1 (45422) - http://www.bohemiancoding.com/sketch -->
    <title>Page 1 Copy 19</title>
    <desc>Created with Sketch.</desc>
    <defs></defs>
    <g id="Page-1" stroke="none" stroke-width="1" fill="none" fill-rule="evenodd">
        <g id="Desktop-HD" transform="translate(-1422.000000, -3869.000000)">
            <g id="Group-26">
                <g transform="translate(-320.000000, -66.000000)" id="PALESTRANTES">
                    <g transform="translate(210.000000, 2114.000000)">
                        <g id="Page-1-Copy-19" transform="translate(1532.000000, 1821.000000)">
                            <path d="M57,125.652676 C57,111.135214 62.0578573,97.8796063 72.1742553,87.1490711 C81.026018,77.6810722 93.039027,72 105.684012,72 C118.32968,72 130.342689,77.6810722 139.825745,87.1490711 C149.309483,97.8796063 155,111.135214 155,125.652676 L155,132.347324 C155,146.864786 149.309483,160.751321 139.825745,170.850929 C131.015658,180.275274 119.699531,185.321327 107.748695,185.990451 C107.636647,185.997272 107.524599,186 107.412552,186 L105.684012,186 L62.069472,186 C59.2696477,186 57,183.734119 57,180.938942 L57,125.652676 Z" id="Fill-1" fill="#E74F42"></path>
                            <path d="M57,47.063885 C57,34.3292246 61.4390849,22.7015399 70.3165705,13.2884898 C78.0841138,4.9830983 88.6258285,0 99.7231987,0 C110.8192,0 121.361599,4.9830983 129.684114,13.2884898 C138.006628,22.7015399 143,34.3292246 143,47.063885 L143,52.936115 C143,65.6714583 138.006628,77.8522894 129.684114,86.7115102 C121.952154,94.9779766 112.022208,99.4051968 101.534553,99.9918052 C101.436698,99.9979513 101.338158,100 101.238934,100 L99.7231987,100 L61.4486652,100 C58.9920111,100 57,98.0127702 57,95.5604876 L57,47.063885 Z" id="Fill-3" fill="#F9DCD2"></path>
                            <path d="M74,116.180317 C74,106.119616 70.489873,96.9342036 63.4709854,89.4980039 C57.3292879,82.9364109 48.9932487,79 40.2192975,79 C31.4453464,79 23.1099904,82.9364109 16.5290146,89.4980039 C9.94872207,96.9342036 6,106.119616 6,116.180317 L6,120.819683 C6,130.880384 9.94872207,140.5031 16.5290146,147.501996 C22.642019,154.032256 30.4936907,157.530001 38.7866902,157.993188 C38.8638884,157.997957 38.942453,158 39.0203344,158 L40.2192975,158 L70.4830413,158 C72.4246102,158 74,156.42925 74,154.492719 L74,116.180317 Z" id="Fill-5" fill="#F6B533"></path>
                            <path d="M105.858681,72 C93.2122717,72 81.1992417,77.595566 72.34696,86.9210615 C68.4968051,90.9425596 65.3852513,95.3261673 63,100 L99.8289355,100 L101.343717,100 C101.441423,100 101.540495,99.9973127 101.638201,99.99261 C112.109119,99.4148472 122.024549,95.0594558 129.74399,86.9271078 C131.280636,85.31609 132.701128,83.5915351 134,81.7742694 C125.66836,75.5774269 115.966107,72 105.858681,72" id="Fill-7" fill="#E789A1"></path>
                            <path d="M57,125.248083 L57,158 L70.4887079,158 C72.427454,158 74,156.41564 74,154.460794 L74,115.799662 C74,107.435203 71.6159493,99.6728705 66.8587589,93 C60.2896626,102.477978 57,113.44821 57,125.248083" id="Fill-9" fill="#F3F6E7"></path>
                            <path d="M198,265.5 C198,286.210549 181.211234,303 160.5,303 C139.789451,303 123,286.210549 123,265.5 C123,244.789451 139.789451,228 160.5,228 C181.211234,228 198,244.789451 198,265.5" id="Fill-11" fill="#71C9AB"></path>
                            <path d="M54.8388804,351 C40.0003414,351 25.8064516,345.205862 15.483871,335.547602 C5.80662234,325.890024 0,313.657046 0,300.780047 L0,230.923269 C0,218.815687 9.83567935,209 21.9679212,209 L137.803993,209 C150.06257,209 160,218.917231 160,231.150891 L160,300.780047 C160,313.657046 154.193378,325.890024 144.516129,335.547602 C134.193548,345.205862 120.000341,351 105.16112,351 L54.8388804,351 Z" id="Fill-13" fill="#1E3382"></path>
                            <path d="M8,240.511922 L8,232.488078 C8,222.869223 15.8216471,215 25.3823488,215 L134.618334,215 C144.178353,215 152,222.869223 152,232.488078 L152,240.511922 C152,250.13009 144.178353,258 134.618334,258 L25.3823488,258 C15.8216471,258 8,250.13009 8,240.511922" id="Fill-15" fill="#000000"></path>
                        </g>
                    </g>
                </g>
            </g>
        </g>
    </g>
</svg>