<svg xmlns="http://www.w3.org/2000/svg" viewBox="0 0 76.745 45.98">
  <defs>
    <style>
      .cls-1 {
        fill: #f4ebe2;
        fill-rule: evenodd;
      }
    </style>
  </defs>
  <g id="Group_4" data-name="Group 4" transform="translate(-1028.738 -967.19)">
    <path id="Path_1" data-name="Path 1" class="cls-1" d="M4.8,178.262c.111-.178.044-.334-.133-.467l-.356-.245c-.156-.111-.311-.067-.445.111a1.427,1.427,0,0,1-.133.222,1.411,1.411,0,0,1-.245.289,1.2,1.2,0,0,1-.934.356,1.251,1.251,0,0,1-1-.445,1.437,1.437,0,0,1-.356-.979v-2.469a1.4,1.4,0,0,1,.356-.979,1.306,1.306,0,0,1,1-.423,1.39,1.39,0,0,1,.556.089,1.849,1.849,0,0,1,.378.267,1.411,1.411,0,0,1,.245.289.906.906,0,0,1,.133.245.275.275,0,0,0,.445.067l.356-.267a.337.337,0,0,0,.156-.245.376.376,0,0,0-.067-.222,2.383,2.383,0,0,0-.578-.8,2,2,0,0,0-.645-.4,2.705,2.705,0,0,0-1-.156,2.413,2.413,0,0,0-1.824.756A2.468,2.468,0,0,0,0,174.636v2.469a2.529,2.529,0,0,0,.69,1.757,2.413,2.413,0,0,0,1.824.756,2.648,2.648,0,0,0,.979-.178,2.383,2.383,0,0,0,.667-.378,2.007,2.007,0,0,0,.423-.467.931.931,0,0,0,.222-.334Zm18.107-3.448a2.583,2.583,0,0,0-.69-1.78,2.474,2.474,0,0,0-1.846-.756,2.413,2.413,0,0,0-1.824.756,2.468,2.468,0,0,0-.712,1.78v2.469a2.454,2.454,0,0,0,.712,1.757,2.413,2.413,0,0,0,1.824.756,2.584,2.584,0,0,0,1.557-.445,3.5,3.5,0,0,0,.512-.445,4.622,4.622,0,0,0,.334-.445.448.448,0,0,0,.067-.245c0-.089-.067-.156-.156-.245l-.334-.245a.226.226,0,0,0-.222-.067.3.3,0,0,0-.222.133,4.314,4.314,0,0,1-.556.6,1.665,1.665,0,0,1-.979.334,1.251,1.251,0,0,1-1-.445,1.437,1.437,0,0,1-.356-.979v-.378a.311.311,0,0,1,.334-.356h2.87c.445,0,.667-.222.667-.69v-1.068Zm-1.179.378a.3.3,0,0,1-.334.334H19.375a.3.3,0,0,1-.334-.334v-.378a1.494,1.494,0,0,1,.356-1,1.323,1.323,0,0,1,1-.445,1.251,1.251,0,0,1,1,.445,1.455,1.455,0,0,1,.356,1v.378Zm19,2.113a1.813,1.813,0,0,0-.756-1.6,3.237,3.237,0,0,0-1.78-.534,4.407,4.407,0,0,1-.6-.156.89.89,0,0,1-.4-.289.638.638,0,0,1-.2-.512,1.009,1.009,0,0,1,.267-.623,1.156,1.156,0,0,1,.957-.334,1.551,1.551,0,0,1,1.023.423.374.374,0,0,0,.489.044l.356-.267a.281.281,0,0,0,.044-.467,2.51,2.51,0,0,0-.756-.6,2.556,2.556,0,0,0-1.157-.222,2.3,2.3,0,0,0-1.757.645,2,2,0,0,0-.6,1.4c.022,1.223.8,1.913,2.358,2.047a5.521,5.521,0,0,1,.667.111,1.3,1.3,0,0,1,.489.311.911.911,0,0,1,.2.623,1.264,1.264,0,0,1-.311.823,1.236,1.236,0,0,1-1.046.4,1.459,1.459,0,0,1-.912-.311,3.543,3.543,0,0,1-.645-.645.3.3,0,0,0-.445-.089l-.356.245a.315.315,0,0,0-.089.467,3.006,3.006,0,0,0,.868.912,2.668,2.668,0,0,0,1.579.489,2.537,2.537,0,0,0,1.869-.69,2.145,2.145,0,0,0,.645-1.6Zm18-2.647a2.583,2.583,0,0,0-.69-1.78,2.474,2.474,0,0,0-1.846-.756,2.413,2.413,0,0,0-1.824.756,2.505,2.505,0,0,0-.712,1.78v4.493a.3.3,0,0,0,.334.334H54.5a.3.3,0,0,0,.334-.334v-2.4a.311.311,0,0,1,.334-.356h2.024c.222,0,.334.111.334.356v2.4a.3.3,0,0,0,.334.334h.512a.3.3,0,0,0,.334-.334v-4.493Zm-1.179.378a.3.3,0,0,1-.334.334H55.19a.3.3,0,0,1-.334-.334v-.378a1.494,1.494,0,0,1,.356-1,1.323,1.323,0,0,1,1-.445,1.251,1.251,0,0,1,1,.445,1.455,1.455,0,0,1,.356,1v.378Zm19.175,2.781a2.729,2.729,0,0,0-.2-1.134,1.738,1.738,0,0,0-.512-.6.189.189,0,0,1,0-.334,1.645,1.645,0,0,0,.445-.445,1.485,1.485,0,0,0,.267-.957,2.017,2.017,0,0,0-.69-1.624,2.885,2.885,0,0,0-1.824-.578,2.413,2.413,0,0,0-1.824.756,2.505,2.505,0,0,0-.712,1.78v4.494a.3.3,0,0,0,.334.334h.512a.3.3,0,0,0,.334-.334v-2.4a.311.311,0,0,1,.334-.356h1.023a1.251,1.251,0,0,1,1,.445,1.437,1.437,0,0,1,.356.979v1.335a.3.3,0,0,0,.334.334h.512a.3.3,0,0,0,.334-.334v-1.357Zm-1.179-3.492a.89.89,0,0,1-.512.845,1.839,1.839,0,0,1-.823.2H73.186a.3.3,0,0,1-.334-.334v-.378a1.494,1.494,0,0,1,.356-1,1.323,1.323,0,0,1,1-.445,1.668,1.668,0,0,1,.957.267A1.019,1.019,0,0,1,75.544,174.325Z" transform="translate(1028.738 833.374)"/>
    <path id="Path_2" data-name="Path 2" class="cls-1" d="M30.364,0C13.058,1.49,0,7.741,0,15.171c0,8.542,17.218,15.5,38.35,15.5s38.35-6.963,38.35-15.5C76.679,7.741,63.621,1.49,46.314,0V.712C55.279,1.78,61.708,5.828,61.708,9.143c0,4.227-10.5,7.675-23.357,7.675-12.88,0-23.357-3.448-23.357-7.675,0-3.315,6.429-7.163,15.394-8.231V0Z" transform="translate(1028.738 967.19)"/>
    <path id="Path_3" data-name="Path 3" class="cls-1" d="M113.191,8.3c-7.163.556-12.591,2.847-12.591,5.583,0,3.159,7.141,5.717,15.883,5.717s15.883-2.558,15.883-5.717c0-2.736-5.406-5.05-12.591-5.583v.712c3.715.4,6.384,1.446,6.384,2.647,0,1.557-4.36,2.825-9.677,2.825-5.339,0-9.677-1.268-9.677-2.825,0-1.223,2.669-2.269,6.384-2.647Z" transform="translate(950.517 960.737)"/>
    <path id="Path_4" data-name="Path 4" class="cls-1" d="M50.656,203.122c0-.156-.067-.222-.222-.222h-.311a.21.21,0,0,0-.222.222v.222c0,.156.067.222.222.222h.311a.21.21,0,0,0,.222-.222Z" transform="translate(989.939 809.425)"/>
    <path id="Path_5" data-name="Path 5" class="cls-1" d="M131.356,203.122c0-.156-.067-.222-.222-.222h-.311a.21.21,0,0,0-.222.222v.222c0,.156.067.222.222.222h.311a.21.21,0,0,0,.222-.222Z" transform="translate(927.19 809.425)"/>
    <path id="Path_6" data-name="Path 6" class="cls-1" d="M211.456,203.222c0-.156-.067-.222-.222-.222h-.311a.21.21,0,0,0-.222.222v.222c0,.156.067.222.222.222h.311a.21.21,0,0,0,.222-.222Z" transform="translate(864.909 809.348)"/>
    <path id="Path_7" data-name="Path 7" class="cls-1" d="M291.556,203.122c0-.156-.067-.222-.222-.222h-.311a.21.21,0,0,0-.222.222v.222c0,.156.067.222.222.222h.311a.21.21,0,0,0,.222-.222Z" transform="translate(802.627 809.425)"/>
  </g>
</svg>
