<svg xmlns="http://www.w3.org/2000/svg" viewBox="0 0 198.536 41">
  <defs>
    <style>
      .cls-1 {
        fill: #f4ebe3;
      }

      .cls-2 {
        fill: #f5e7d9;
        font-size: 34px;
        font-family: BebasNeue-Regular, Bebas Neue;
      }
    </style>
  </defs>
  <g id="Group_2" data-name="Group 2" transform="translate(-635.743 -739.496)">
    <path id="instagram" class="cls-1" d="M13.493,38.421a6.942,6.942,0,1,0,6.954,6.942A6.937,6.937,0,0,0,13.493,38.421Zm0,11.455a4.513,4.513,0,1,1,4.521-4.513A4.525,4.525,0,0,1,13.493,49.876Zm8.86-11.739a1.622,1.622,0,1,1-1.622-1.619A1.617,1.617,0,0,1,22.353,38.137Zm4.606,1.643a8.005,8.005,0,0,0-2.191-5.673,8.087,8.087,0,0,0-5.683-2.187c-2.239-.127-8.951-.127-11.191,0A8.076,8.076,0,0,0,2.211,34.1,8.031,8.031,0,0,0,.02,39.774c-.127,2.235-.127,8.936,0,11.171a8.005,8.005,0,0,0,2.191,5.673,8.1,8.1,0,0,0,5.683,2.187c2.239.127,8.951.127,11.191,0a8.034,8.034,0,0,0,5.683-2.187,8.058,8.058,0,0,0,2.191-5.673C27.086,48.71,27.086,42.016,26.959,39.78ZM24.066,53.344a4.573,4.573,0,0,1-2.578,2.574c-1.785.707-6.022.544-7.995.544s-6.216.157-7.995-.544a4.573,4.573,0,0,1-2.578-2.574c-.708-1.782-.545-6.012-.545-7.981s-.157-6.2.545-7.981A4.573,4.573,0,0,1,5.5,34.808c1.785-.707,6.022-.544,7.995-.544s6.216-.157,7.995.544a4.573,4.573,0,0,1,2.578,2.574c.708,1.782.545,6.012.545,7.981S24.774,51.568,24.066,53.344Z" transform="translate(635.818 713.597)"/>
    <text id="_designcesar" data-name="@designcesar" class="cls-2" transform="translate(671.279 770.496)"><tspan x="0" y="0">@designcesar</tspan></text>
  </g>
</svg>
