<svg xmlns="http://www.w3.org/2000/svg" viewBox="0 0 196.934 27.2">
  <defs>
    <style>
      .cls-1 {
        fill: #f4ebe3;
      }
    </style>
  </defs>
  <g id="Group_8" data-name="Group 8" transform="translate(-635.743 -745.337)">
    <path id="Union_1" data-name="Union 1" class="cls-1" d="M-115.37-208.364c0-8.4,4.148-15.3,12.546-15.3,7.174,0,9.452,4.488,9.452,10,0,8.159-4.012,10.642-6.63,10.642-1.733,0-2.822-.646-2.957-2.244h-.068a3.27,3.27,0,0,1-3.2,2.039c-2.074,0-3.2-1.5-3.2-4.08,0-.374.034-.782.068-1.156l.373-3.434c.374-3.332,1.7-5.032,4.08-5.032a2.745,2.745,0,0,1,2.788,2.074h.068l.306-1.938h3.162l-.985,9.486a4.272,4.272,0,0,0-.034.544c0,.443.2.646.679.646,1.9,0,2.721-4.216,2.721-7.48,0-4.25-2.04-7.174-6.766-7.174-6.053,0-9.214,4.828-9.214,12.58,0,5.474,2.516,8.874,7.922,8.874a10.553,10.553,0,0,0,7.038-2.312l-.272,3.264a11.77,11.77,0,0,1-6.97,1.9C-112.106-196.464-115.37-201.326-115.37-208.364Zm9.622-3.162-.306,2.89a3.113,3.113,0,0,0-.034.509c0,1.191.578,1.734,1.5,1.734,1.021,0,1.734-.578,1.9-2.142l.34-3.23a2.112,2.112,0,0,0,.034-.408,1.375,1.375,0,0,0-1.5-1.5C-104.864-213.667-105.578-213.124-105.748-211.525ZM-143.787-196.6a8.1,8.1,0,0,1-5.684-2.187,8.005,8.005,0,0,1-2.191-5.673c-.127-2.236-.127-8.936,0-11.172a8.031,8.031,0,0,1,2.191-5.673,8.076,8.076,0,0,1,5.684-2.182c2.239-.127,8.951-.127,11.191,0a8.087,8.087,0,0,1,5.683,2.187,8.008,8.008,0,0,1,2.192,5.674c.127,2.236.127,8.93,0,11.165a8.061,8.061,0,0,1-2.192,5.673A8.032,8.032,0,0,1-132.6-196.6c-1.12.063-3.357.1-5.6.1S-142.667-196.533-143.787-196.6Zm13.593-2.888a4.572,4.572,0,0,0,2.578-2.573c.708-1.777.544-6.012.544-7.981s.164-6.2-.544-7.981a4.573,4.573,0,0,0-2.578-2.574c-1.779-.7-6.022-.544-7.995-.544s-6.209-.163-7.995.544a4.573,4.573,0,0,0-2.578,2.574c-.7,1.776-.544,6.011-.544,7.981s-.164,6.2.544,7.981a4.572,4.572,0,0,0,2.578,2.573c1.779.7,6.022.544,7.995.544S-131.979-198.778-130.194-199.485Zm137.02-4.663v-1.36h3.536v1.633c0,1.7.748,2.311,1.938,2.311s1.939-.612,1.939-2.38c0-1.972-.748-3.23-3.2-5.372-3.128-2.754-4.148-4.692-4.148-7.411,0-3.74,1.938-5.917,5.576-5.917s5.44,2.176,5.44,5.984v.986H14.374V-216.9c0-1.7-.68-2.346-1.87-2.346s-1.87.646-1.87,2.278c0,1.734.782,2.992,3.23,5.134,3.128,2.754,4.114,4.658,4.114,7.616,0,3.875-1.972,6.052-5.644,6.052S6.826-200.34,6.826-204.148Zm-25.024.136V-216.8c0-3.672,1.9-5.848,5.508-5.848s5.508,2.176,5.508,5.848v2.516h-3.536v-2.754c0-1.564-.748-2.21-1.87-2.21s-1.87.646-1.87,2.21v13.294c0,1.563.748,2.175,1.87,2.175s1.87-.612,1.87-2.175v-3.639h3.536v3.366c0,3.672-1.9,5.848-5.508,5.848S-18.2-200.34-18.2-204.012Zm-27.846-.136V-216.66c0-3.808,1.9-5.984,5.576-5.984s5.576,2.176,5.576,5.984v2.04h-3.536V-216.9c0-1.7-.748-2.346-1.938-2.346S-42.3-218.6-42.3-216.9v13.022c0,1.7.748,2.311,1.939,2.311s1.938-.612,1.938-2.311v-4.658H-40.3v-3.4h5.406v7.786c0,3.808-1.9,5.984-5.576,5.984S-46.044-200.34-46.044-204.148Zm-19.55,0v-1.36h3.535v1.633c0,1.7.749,2.311,1.939,2.311s1.938-.612,1.938-2.38c0-1.972-.748-3.23-3.2-5.372-3.128-2.754-4.148-4.692-4.148-7.411,0-3.74,1.938-5.917,5.576-5.917s5.44,2.176,5.44,5.984v.986h-3.536V-216.9c0-1.7-.68-2.346-1.87-2.346s-1.869.646-1.869,2.278c0,1.734.782,2.992,3.23,5.134,3.127,2.754,4.114,4.658,4.114,7.616,0,3.875-1.972,6.052-5.644,6.052S-65.594-200.34-65.594-204.148ZM41.369-198.5a7.333,7.333,0,0,1-.339-2.923v-4.352c0-2.21-.646-2.924-2.346-2.924H37.391v10.2H33.652v-23.8h5.542c3.875,0,5.541,1.8,5.541,5.474v1.462c0,2.448-.781,4.011-2.448,4.692v.068c1.87.578,2.482,2.345,2.482,5.032v4.181a7,7,0,0,0,.409,2.89Zm-3.978-13.6h1.361c1.393,0,2.244-.612,2.244-2.515v-1.836c0-1.7-.578-2.448-1.9-2.448h-1.7ZM28.11-198.5l-.68-4.726v.068H23.18L22.5-198.5H19.031l3.876-23.8h5.066l3.876,23.8Zm-4.488-7.888h3.366l-1.666-11.764h-.068ZM-4.938-198.5v-23.8h10.2v3.4H-1.2v6.29H3.936v3.4H-1.2v7.311H5.261v3.4Zm-19.651,0-4.488-17.374h-.068V-198.5h-3.332v-23.8h4.692l3.639,14.246h.068V-222.3h3.332v23.8Zm-27.71,0v-23.8h3.739v23.8Zm-25.059,0v-23.8h10.2v3.4h-6.46v6.29h5.134v3.4h-5.134v7.311h6.46v3.4Zm-13.8,0v-23.8h5.711c3.74,0,5.576,2.074,5.576,5.882v12.036c0,3.808-1.836,5.882-5.576,5.882Zm3.74-3.4h1.9c1.19,0,1.9-.612,1.9-2.312v-12.376c0-1.7-.714-2.312-1.9-2.312h-1.9Zm-57.72-8.136a6.937,6.937,0,0,1,6.953-6.943,6.937,6.937,0,0,1,6.954,6.943,6.937,6.937,0,0,1-6.954,6.942A6.936,6.936,0,0,1-145.142-210.039Zm2.433,0a4.524,4.524,0,0,0,4.521,4.513,4.524,4.524,0,0,0,4.521-4.513,4.521,4.521,0,0,0-4.521-4.514A4.522,4.522,0,0,0-142.709-210.039Zm10.138-7.226a1.62,1.62,0,0,1,1.622-1.619,1.62,1.62,0,0,1,1.622,1.619,1.617,1.617,0,0,1-1.622,1.619A1.617,1.617,0,0,1-132.572-217.265Z" transform="translate(787.499 969)"/>
  </g>
</svg>
