<?xml version="1.0" encoding="UTF-8"?>
<svg width="163px" height="165px" viewBox="0 0 163 165" version="1.1" xmlns="http://www.w3.org/2000/svg" xmlns:xlink="http://www.w3.org/1999/xlink">
    <!-- Generator: Sketch 47.1 (45422) - http://www.bohemiancoding.com/sketch -->
    <title>Page 1 Copy 16</title>
    <desc>Created with Sketch.</desc>
    <defs>
        <polygon id="path-1" points="0 137.84895 0 0.1615 137.68745 0.1615 137.68745 137.84895"></polygon>
        <polygon id="path-3" points="44.7426404 0.183469274 44.7426404 89.6263743 0.270101124 89.6263743 0.270101124 0.183469274 44.7426404 0.183469274"></polygon>
    </defs>
    <g id="Page-1" stroke="none" stroke-width="1" fill="none" fill-rule="evenodd">
        <g id="Desktop-HD" transform="translate(-889.000000, -6459.000000)">
            <g id="Group-26">
                <g transform="translate(-320.000000, 4096.000000)" id="CONTATO">
                    <g transform="translate(0.000000, 2048.000000)">
                        <g id="Page-1-Copy-16" transform="translate(1209.000000, 315.000000)">
                            <g id="Group-3">
                                <mask id="mask-2" fill="white">
                                    <use xlink:href="#path-1"></use>
                                </mask>
                                <g id="Clip-2"></g>
                                <path d="M20.1637,20.3252 C47.0492,-6.5603 90.6382,-6.5603 117.5237,20.3252 C144.4087,47.2107 144.4087,90.7997 117.5237,117.6852 C90.6382,144.5702 47.0492,144.5702 20.1637,117.6852 C-6.7218,90.7997 -6.7218,47.2107 20.1637,20.3252" id="Fill-1" fill="#F9DCD2" mask="url(#mask-2)"></path>
                            </g>
                            <g id="Group-6" transform="translate(118.000000, 22.000000)">
                                <mask id="mask-4" fill="white">
                                    <use xlink:href="#path-3"></use>
                                </mask>
                                <g id="Clip-5"></g>
                                <path d="M31.518809,13.3254804 C22.874764,4.72972626 11.5984719,0.351402235 0.270101124,0.183469274 C23.9229101,25.0093911 25.5525169,62.9848659 5.16498876,89.6263743 C14.7995393,88.4417933 24.1231348,84.173581 31.518809,76.8192235 C49.1507191,59.2858156 49.1507191,30.8588883 31.518809,13.3254804" id="Fill-4" fill="#F6B533" mask="url(#mask-4)"></path>
                            </g>
                            <path d="M87.0448391,35.1778952 C69.6517203,52.7519687 69.6517203,81.2461485 87.0448391,98.820222 C97.1419457,109.022669 110.881073,113.301408 124.033647,111.657949 C144.144565,84.9533804 142.537527,46.8892404 119.205051,22.0050256 C107.585698,21.8301467 95.9109805,26.2192553 87.0448391,35.1778952" id="Fill-7" fill="#E789A1"></path>
                            <path d="M86,165 L86,63.9960275 C86,61.2482124 88.25,59 91,59 C93.75,59 96,61.2482124 96,63.9960275 L96,165" id="Fill-9" fill="#000000"></path>
                            <path d="M95.9757492,142.903426 C92.2865937,128.276671 82.6186015,116.10042 69.764153,109 L69.07351,114.006497 C68.6956014,116.742761 69.7919404,119.472091 71.9669355,121.226272 C78.6101436,126.585882 83.6669441,133.82002 86.2835062,142.22097 L96,143 L95.9757492,142.903426 Z" id="Fill-11" fill="#000000"></path>
                            <path d="M131,82.9374666 L131,79 C109.872261,81.5257626 92.1440218,96.4507683 86.2636855,117.074765 L86,118 L95.6078225,117.493655 C95.607324,117.492661 95.6063271,117.491667 95.6058287,117.49117 C100.389552,103.361708 111.991216,92.7716918 126.180387,89.0717453 C129.000676,88.3358306 131,85.8438575 131,82.9374666" id="Fill-13" fill="#000000"></path>
                        </g>
                    </g>
                </g>
            </g>
        </g>
    </g>
</svg>