<?xml version="1.0" encoding="UTF-8"?>
<svg width="569px" height="1004px" viewBox="0 0 569 1004" version="1.1" xmlns="http://www.w3.org/2000/svg" xmlns:xlink="http://www.w3.org/1999/xlink">
    <!-- Generator: Sketch 47.1 (45422) - http://www.bohemiancoding.com/sketch -->
    <title>Group 9</title>
    <desc>Created with Sketch.</desc>
    <defs></defs>
    <g id="Page-1" stroke="none" stroke-width="1" fill="none" fill-rule="evenodd" opacity="0.396173007">
        <g id="Desktop-HD" transform="translate(-1110.000000, -1298.000000)" fill="#F3F6E7">
            <g id="Group-26">
                <g transform="translate(-320.000000, -66.000000)" id="O-EVENTO">
                    <g transform="translate(320.000000, 1085.000000)">
                        <g id="Group-9" transform="translate(1436.500000, 781.000000) rotate(-90.000000) translate(-1436.500000, -781.000000) translate(934.500000, 454.500000)">
                            <g id="Group-29-Copy">
                                <g id="Group-7">
                                    <path d="M37.2550223,11.1657587 C51.3345062,11.1657587 62.7886098,22.2010566 62.7886098,35.7652134 C62.7886098,55.3720893 79.1546565,71.3232601 99.2708119,71.3232601 C119.387576,71.3232601 135.753622,55.3720893 135.753622,35.7652134 C135.753622,22.2010566 147.207726,11.1657587 161.286602,11.1657587 C175.366085,11.1657587 186.820189,22.2010566 186.820189,35.7652134 C186.820189,55.3720893 203.186236,71.3232601 223.302999,71.3232601 C243.419763,71.3232601 259.785202,55.3720893 259.785202,35.7652134 C259.785202,22.2010566 271.239305,11.1657587 285.318789,11.1657587 C299.397665,11.1657587 310.852377,22.2010566 310.852377,35.7652134 C310.852377,55.3720893 327.218423,71.3232601 347.335187,71.3232601 C367.451342,71.3232601 383.817389,55.3720893 383.817389,35.7652134 C383.817389,22.2010566 395.271493,11.1657587 409.350977,11.1657587 C423.429852,11.1657587 434.884564,22.2010566 434.884564,35.7652134 C434.884564,55.3720893 451.250003,71.3232601 471.366766,71.3232601 C491.482922,71.3232601 507.849577,55.3720893 507.849577,35.7652134 C507.849577,22.2010566 519.30368,11.1657587 533.382556,11.1657587 C547.46204,11.1657587 558.916144,22.2010566 558.916144,35.7652134 C558.916144,55.3720893 575.28219,71.3232601 595.398346,71.3232601 C615.515718,71.3232601 631.881764,55.3720893 631.881764,35.7652134 C631.881764,22.2010566 643.335868,11.1657587 657.415352,11.1657587 C671.494227,11.1657587 682.948331,22.2010566 682.948331,35.7652134 C682.948331,55.3720893 699.314986,71.3232601 719.431141,71.3232601 C739.547297,71.3232601 755.913344,55.3720893 755.913344,35.7652134 C755.913344,22.2010566 767.368055,11.1657587 781.446931,11.1657587 C795.526415,11.1657587 806.980519,22.2010566 806.980519,35.7652134 C806.980519,55.3720893 823.346565,71.3232601 843.462721,71.3232601 C863.579484,71.3232601 879.945531,55.3720893 879.945531,35.7652134 C879.945531,22.2010566 891.399635,11.1657587 905.47851,11.1657587 C919.557994,11.1657587 931.012098,22.2010566 931.012098,35.7652134 C931.012098,55.3720893 947.378145,71.3232601 967.494908,71.3232601 C987.611064,71.3232601 1003.97711,55.3720893 1003.97711,35.7652134 L993.027888,35.7652134 C993.027888,49.3293703 981.573784,60.3652769 967.494908,60.3652769 C953.415424,60.3652769 941.961321,49.3293703 941.961321,35.7652134 C941.961321,16.1589464 925.595274,0.207775537 905.47851,0.207775537 C885.362355,0.207775537 868.996308,16.1589464 868.996308,35.7652134 C868.996308,49.3293703 857.542205,60.3652769 843.462721,60.3652769 C829.383845,60.3652769 817.929741,49.3293703 817.929741,35.7652134 C817.929741,16.1589464 801.563087,0.207775537 781.446931,0.207775537 C761.330776,0.207775537 744.964121,16.1589464 744.964121,35.7652134 C744.964121,49.3293703 733.510017,60.3652769 719.431141,60.3652769 C705.351658,60.3652769 693.897554,49.3293703 693.897554,35.7652134 C693.897554,16.1589464 677.531507,0.207775537 657.415352,0.207775537 C637.298588,0.207775537 620.932541,16.1589464 620.932541,35.7652134 C620.932541,49.3293703 609.478438,60.3652769 595.398346,60.3652769 C581.31947,60.3652769 569.865366,49.3293703 569.865366,35.7652134 C569.865366,16.1589464 553.499928,0.207775537 533.382556,0.207775537 C513.266401,0.207775537 496.900354,16.1589464 496.900354,35.7652134 C496.900354,49.3293703 485.44625,60.3652769 471.366766,60.3652769 C457.287891,60.3652769 445.833787,49.3293703 445.833787,35.7652134 C445.833787,16.1589464 429.467132,0.207775537 409.350977,0.207775537 C389.234213,0.207775537 372.868166,16.1589464 372.868166,35.7652134 C372.868166,49.3293703 361.414063,60.3652769 347.335187,60.3652769 C333.255703,60.3652769 321.801599,49.3293703 321.801599,35.7652134 C321.801599,16.1589464 305.435553,0.207775537 285.318789,0.207775537 C265.202025,0.207775537 248.835979,16.1589464 248.835979,35.7652134 C248.835979,49.3293703 237.381875,60.3652769 223.302999,60.3652769 C209.223516,60.3652769 197.769412,49.3293703 197.769412,35.7652134 C197.769412,16.1589464 181.403974,0.207775537 161.286602,0.207775537 C141.170446,0.207775537 124.804399,16.1589464 124.804399,35.7652134 C124.804399,49.3293703 113.350296,60.3652769 99.2708119,60.3652769 C85.1919363,60.3652769 73.7378326,49.3293703 73.7378326,35.7652134 C73.7378326,16.1589464 57.3711777,0.207775537 37.2550223,0.207775537 C17.1382585,0.207775537 0.772211917,16.1589464 0.772211917,35.7652134 L11.7214347,35.7652134 C11.7214347,22.2010566 23.1755383,11.1657587 37.2550223,11.1657587" id="Fill-5"></path>
                                </g>
                                <g id="Group-10" transform="translate(0.000000, 83.402428)">
                                    <path d="M967.494604,60.4612202 C953.41512,60.4612202 941.961017,49.4259223 941.961017,35.8611567 C941.961017,16.2548896 925.59497,0.303718768 905.478815,0.303718768 C885.362659,0.303718768 868.996004,16.2548896 868.996004,35.8611567 C868.996004,49.4259223 857.541901,60.4612202 843.463025,60.4612202 C829.383541,60.4612202 817.929437,49.4259223 817.929437,35.8611567 C817.929437,16.2548896 801.563391,0.303718768 781.446627,0.303718768 C761.330472,0.303718768 744.964425,16.2548896 744.964425,35.8611567 C744.964425,49.4259223 733.510321,60.4612202 719.430837,60.4612202 C705.351962,60.4612202 693.897858,49.4259223 693.897858,35.8611567 C693.897858,16.2548896 677.531203,0.303718768 657.415048,0.303718768 C637.298892,0.303718768 620.932846,16.2548896 620.932846,35.8611567 C620.932846,49.4259223 609.478134,60.4612202 595.39865,60.4612202 C581.319166,60.4612202 569.865062,49.4259223 569.865062,35.8611567 C569.865062,16.2548896 553.499624,0.303718768 533.38286,0.303718768 C513.266705,0.303718768 496.90005,16.2548896 496.90005,35.8611567 C496.90005,49.4259223 485.445946,60.4612202 471.36707,60.4612202 C457.287587,60.4612202 445.833483,49.4259223 445.833483,35.8611567 C445.833483,16.2548896 429.467436,0.303718768 409.350673,0.303718768 C389.233909,0.303718768 372.86847,16.2548896 372.86847,35.8611567 C372.86847,49.4259223 361.414367,60.4612202 347.334883,60.4612202 C333.256007,60.4612202 321.801904,49.4259223 321.801904,35.8611567 C321.801904,16.2548896 305.435249,0.303718768 285.318485,0.303718768 C265.20233,0.303718768 248.836283,16.2548896 248.836283,35.8611567 C248.836283,49.4259223 237.381571,60.4612202 223.302695,60.4612202 C209.223211,60.4612202 197.769108,49.4259223 197.769108,35.8611567 C197.769108,16.2548896 181.403669,0.303718768 161.286906,0.303718768 C141.170142,0.303718768 124.804095,16.2548896 124.804095,35.8611567 C124.804095,49.4259223 113.349992,60.4612202 99.2711161,60.4612202 C85.1916321,60.4612202 73.7375285,49.4259223 73.7375285,35.8611567 C73.7375285,16.2548896 57.3714819,0.303718768 37.2547181,0.303718768 C17.1379544,0.303718768 0.772516062,16.2548896 0.772516062,35.8611567 L11.7217389,35.8611567 C11.7217389,22.2969998 23.1758425,11.261702 37.2547181,11.261702 C51.3342021,11.261702 62.7883057,22.2969998 62.7883057,35.8611567 C62.7883057,55.4680325 79.1543523,71.4192034 99.2711161,71.4192034 C119.38788,71.4192034 135.753318,55.4680325 135.753318,35.8611567 C135.753318,22.2969998 147.207422,11.261702 161.286906,11.261702 C175.365781,11.261702 186.819885,22.2969998 186.819885,35.8611567 C186.819885,55.4680325 203.18654,71.4192034 223.302695,71.4192034 C243.419459,71.4192034 259.785506,55.4680325 259.785506,35.8611567 C259.785506,22.2969998 271.239609,11.261702 285.318485,11.261702 C299.397969,11.261702 310.852681,22.2969998 310.852681,35.8611567 C310.852681,55.4680325 327.218119,71.4192034 347.334883,71.4192034 C367.451647,71.4192034 383.817693,55.4680325 383.817693,35.8611567 C383.817693,22.2969998 395.271797,11.261702 409.350673,11.261702 C423.430156,11.261702 434.88426,22.2969998 434.88426,35.8611567 C434.88426,55.4680325 451.249698,71.4192034 471.36707,71.4192034 C491.483226,71.4192034 507.849273,55.4680325 507.849273,35.8611567 C507.849273,22.2969998 519.303376,11.261702 533.38286,11.261702 C547.461736,11.261702 558.915839,22.2969998 558.915839,35.8611567 C558.915839,55.4680325 575.282494,71.4192034 595.39865,71.4192034 C615.515413,71.4192034 631.882068,55.4680325 631.882068,35.8611567 C631.882068,22.2969998 643.336172,11.261702 657.415048,11.261702 C671.494532,11.261702 682.948635,22.2969998 682.948635,35.8611567 C682.948635,55.4680325 699.314682,71.4192034 719.430837,71.4192034 C739.547601,71.4192034 755.913648,55.4680325 755.913648,35.8611567 C755.913648,22.2969998 767.367751,11.261702 781.446627,11.261702 C795.526111,11.261702 806.980215,22.2969998 806.980215,35.8611567 C806.980215,55.4680325 823.346261,71.4192034 843.463025,71.4192034 C863.57918,71.4192034 879.945227,55.4680325 879.945227,35.8611567 C879.945227,22.2969998 891.399331,11.261702 905.478815,11.261702 C919.55769,11.261702 931.011794,22.2969998 931.011794,35.8611567 C931.011794,55.4680325 947.378449,71.4192034 967.494604,71.4192034 C987.61076,71.4192034 1003.97741,55.4680325 1003.97741,35.8611567 L993.028192,35.8611567 C993.028192,49.4259223 981.574088,60.4612202 967.494604,60.4612202" id="Fill-8"></path>
                                </g>
                                <g id="Group-13" transform="translate(0.000000, 250.207283)">
                                    <path d="M967.494604,60.652924 C953.41512,60.652924 941.961017,49.6176261 941.961017,36.0534693 C941.961017,16.4465935 925.59497,0.495422596 905.478815,0.495422596 C885.362659,0.495422596 868.996004,16.4465935 868.996004,36.0534693 C868.996004,49.6176261 857.541901,60.652924 843.463025,60.652924 C829.383541,60.652924 817.929437,49.6176261 817.929437,36.0534693 C817.929437,16.4465935 801.563391,0.495422596 781.446627,0.495422596 C761.330472,0.495422596 744.964425,16.4465935 744.964425,36.0534693 C744.964425,49.6176261 733.510321,60.652924 719.430837,60.652924 C705.351962,60.652924 693.897858,49.6176261 693.897858,36.0534693 C693.897858,16.4465935 677.531203,0.495422596 657.415048,0.495422596 C637.298892,0.495422596 620.932846,16.4465935 620.932846,36.0534693 C620.932846,49.6176261 609.478134,60.652924 595.39865,60.652924 C581.319166,60.652924 569.865062,49.6176261 569.865062,36.0534693 C569.865062,16.4465935 553.499624,0.495422596 533.38286,0.495422596 C513.266705,0.495422596 496.90005,16.4465935 496.90005,36.0534693 C496.90005,49.6176261 485.445946,60.652924 471.36707,60.652924 C457.287587,60.652924 445.833483,49.6176261 445.833483,36.0534693 C445.833483,16.4465935 429.467436,0.495422596 409.350673,0.495422596 C389.233909,0.495422596 372.86847,16.4465935 372.86847,36.0534693 C372.86847,49.6176261 361.414367,60.652924 347.334883,60.652924 C333.256007,60.652924 321.801904,49.6176261 321.801904,36.0534693 C321.801904,16.4465935 305.435249,0.495422596 285.318485,0.495422596 C265.20233,0.495422596 248.836283,16.4465935 248.836283,36.0534693 C248.836283,49.6176261 237.381571,60.652924 223.302695,60.652924 C209.223211,60.652924 197.769108,49.6176261 197.769108,36.0534693 C197.769108,16.4465935 181.403669,0.495422596 161.286906,0.495422596 C141.170142,0.495422596 124.804095,16.4465935 124.804095,36.0534693 C124.804095,49.6176261 113.349992,60.652924 99.2711161,60.652924 C85.1916321,60.652924 73.7375285,49.6176261 73.7375285,36.0534693 C73.7375285,16.4465935 57.3714819,0.495422596 37.2547181,0.495422596 C17.1379544,0.495422596 0.772516062,16.4465935 0.772516062,36.0534693 L11.7217389,36.0534693 C11.7217389,22.4887036 23.1758425,11.4534058 37.2547181,11.4534058 C51.3342021,11.4534058 62.7883057,22.4887036 62.7883057,36.0534693 C62.7883057,55.6597363 79.1543523,71.6109072 99.2711161,71.6109072 C119.38788,71.6109072 135.753318,55.6597363 135.753318,36.0534693 C135.753318,22.4887036 147.207422,11.4534058 161.286906,11.4534058 C175.365781,11.4534058 186.819885,22.4887036 186.819885,36.0534693 C186.819885,55.6597363 203.18654,71.6109072 223.302695,71.6109072 C243.419459,71.6109072 259.785506,55.6597363 259.785506,36.0534693 C259.785506,22.4887036 271.239609,11.4534058 285.318485,11.4534058 C299.397969,11.4534058 310.852681,22.4887036 310.852681,36.0534693 C310.852681,55.6597363 327.218119,71.6109072 347.334883,71.6109072 C367.451647,71.6109072 383.817693,55.6597363 383.817693,36.0534693 C383.817693,22.4887036 395.271797,11.4534058 409.350673,11.4534058 C423.430156,11.4534058 434.88426,22.4887036 434.88426,36.0534693 C434.88426,55.6597363 451.249698,71.6109072 471.36707,71.6109072 C491.483226,71.6109072 507.849273,55.6597363 507.849273,36.0534693 C507.849273,22.4887036 519.303376,11.4534058 533.38286,11.4534058 C547.461736,11.4534058 558.915839,22.4887036 558.915839,36.0534693 C558.915839,55.6597363 575.282494,71.6109072 595.39865,71.6109072 C615.515413,71.6109072 631.882068,55.6597363 631.882068,36.0534693 C631.882068,22.4887036 643.336172,11.4534058 657.415048,11.4534058 C671.494532,11.4534058 682.948635,22.4887036 682.948635,36.0534693 C682.948635,55.6597363 699.314682,71.6109072 719.430837,71.6109072 C739.547601,71.6109072 755.913648,55.6597363 755.913648,36.0534693 C755.913648,22.4887036 767.367751,11.4534058 781.446627,11.4534058 C795.526111,11.4534058 806.980215,22.4887036 806.980215,36.0534693 C806.980215,55.6597363 823.346261,71.6109072 843.463025,71.6109072 C863.57918,71.6109072 879.945227,55.6597363 879.945227,36.0534693 C879.945227,22.4887036 891.399331,11.4534058 905.478815,11.4534058 C919.55769,11.4534058 931.011794,22.4887036 931.011794,36.0534693 C931.011794,55.6597363 947.378449,71.6109072 967.494604,71.6109072 C987.61076,71.6109072 1003.97741,55.6597363 1003.97741,36.0534693 L993.028192,36.0534693 C993.028192,49.6176261 981.574088,60.652924 967.494604,60.652924" id="Fill-11"></path>
                                </g>
                                <g id="Group-16" transform="translate(0.000000, 166.804855)">
                                    <path d="M967.494604,60.5569199 C953.41512,60.5569199 941.961017,49.521622 941.961017,35.9574652 C941.961017,16.3505894 925.59497,0.399418487 905.478815,0.399418487 C885.362659,0.399418487 868.996004,16.3505894 868.996004,35.9574652 C868.996004,49.521622 857.541901,60.5569199 843.463025,60.5569199 C829.383541,60.5569199 817.929437,49.521622 817.929437,35.9574652 C817.929437,16.3505894 801.563391,0.399418487 781.446627,0.399418487 C761.330472,0.399418487 744.964425,16.3505894 744.964425,35.9574652 C744.964425,49.521622 733.510321,60.5569199 719.430837,60.5569199 C705.351962,60.5569199 693.897858,49.521622 693.897858,35.9574652 C693.897858,16.3505894 677.531203,0.399418487 657.415048,0.399418487 C637.298892,0.399418487 620.932846,16.3505894 620.932846,35.9574652 C620.932846,49.521622 609.478134,60.5569199 595.39865,60.5569199 C581.319166,60.5569199 569.865062,49.521622 569.865062,35.9574652 C569.865062,16.3505894 553.499624,0.399418487 533.38286,0.399418487 C513.266705,0.399418487 496.90005,16.3505894 496.90005,35.9574652 C496.90005,49.521622 485.445946,60.5569199 471.36707,60.5569199 C457.287587,60.5569199 445.833483,49.521622 445.833483,35.9574652 C445.833483,16.3505894 429.467436,0.399418487 409.350673,0.399418487 C389.233909,0.399418487 372.86847,16.3505894 372.86847,35.9574652 C372.86847,49.521622 361.414367,60.5569199 347.334883,60.5569199 C333.256007,60.5569199 321.801904,49.521622 321.801904,35.9574652 C321.801904,16.3505894 305.435249,0.399418487 285.318485,0.399418487 C265.20233,0.399418487 248.836283,16.3505894 248.836283,35.9574652 C248.836283,49.521622 237.381571,60.5569199 223.302695,60.5569199 C209.223211,60.5569199 197.769108,49.521622 197.769108,35.9574652 C197.769108,16.3505894 181.403669,0.399418487 161.286906,0.399418487 C141.170142,0.399418487 124.804095,16.3505894 124.804095,35.9574652 C124.804095,49.521622 113.349992,60.5569199 99.2711161,60.5569199 C85.1916321,60.5569199 73.7375285,49.521622 73.7375285,35.9574652 C73.7375285,16.3505894 57.3714819,0.399418487 37.2547181,0.399418487 C17.1379544,0.399418487 0.772516062,16.3505894 0.772516062,35.9574652 L11.7217389,35.9574652 C11.7217389,22.3933083 23.1758425,11.3574017 37.2547181,11.3574017 C51.3342021,11.3574017 62.7883057,22.3933083 62.7883057,35.9574652 C62.7883057,55.5637322 79.1543523,71.5149031 99.2711161,71.5149031 C119.38788,71.5149031 135.753318,55.5637322 135.753318,35.9574652 C135.753318,22.3933083 147.207422,11.3574017 161.286906,11.3574017 C175.365781,11.3574017 186.819885,22.3933083 186.819885,35.9574652 C186.819885,55.5637322 203.18654,71.5149031 223.302695,71.5149031 C243.419459,71.5149031 259.785506,55.5637322 259.785506,35.9574652 C259.785506,22.3933083 271.239609,11.3574017 285.318485,11.3574017 C299.397969,11.3574017 310.852681,22.3933083 310.852681,35.9574652 C310.852681,55.5637322 327.218119,71.5149031 347.334883,71.5149031 C367.451647,71.5149031 383.817693,55.5637322 383.817693,35.9574652 C383.817693,22.3933083 395.271797,11.3574017 409.350673,11.3574017 C423.430156,11.3574017 434.88426,22.3933083 434.88426,35.9574652 C434.88426,55.5637322 451.249698,71.5149031 471.36707,71.5149031 C491.483226,71.5149031 507.849273,55.5637322 507.849273,35.9574652 C507.849273,22.3933083 519.303376,11.3574017 533.38286,11.3574017 C547.461736,11.3574017 558.915839,22.3933083 558.915839,35.9574652 C558.915839,55.5637322 575.282494,71.5149031 595.39865,71.5149031 C615.515413,71.5149031 631.882068,55.5637322 631.882068,35.9574652 C631.882068,22.3933083 643.336172,11.3574017 657.415048,11.3574017 C671.494532,11.3574017 682.948635,22.3933083 682.948635,35.9574652 C682.948635,55.5637322 699.314682,71.5149031 719.430837,71.5149031 C739.547601,71.5149031 755.913648,55.5637322 755.913648,35.9574652 C755.913648,22.3933083 767.367751,11.3574017 781.446627,11.3574017 C795.526111,11.3574017 806.980215,22.3933083 806.980215,35.9574652 C806.980215,55.5637322 823.346261,71.5149031 843.463025,71.5149031 C863.57918,71.5149031 879.945227,55.5637322 879.945227,35.9574652 C879.945227,22.3933083 891.399331,11.3574017 905.478815,11.3574017 C919.55769,11.3574017 931.011794,22.3933083 931.011794,35.9574652 C931.011794,55.5637322 947.378449,71.5149031 967.494604,71.5149031 C987.61076,71.5149031 1003.97741,55.5637322 1003.97741,35.9574652 L993.028192,35.9574652 C993.028192,49.521622 981.574088,60.5569199 967.494604,60.5569199" id="Fill-14"></path>
                                </g>
                                <g id="Group-19" transform="translate(0.000000, 413.359477)">
                                    <path d="M967.494604,60.3949244 C953.41512,60.3949244 941.961017,49.3596265 941.961017,35.7954697 C941.961017,16.1885938 925.59497,0.237422969 905.478815,0.237422969 C885.362659,0.237422969 868.996004,16.1885938 868.996004,35.7954697 C868.996004,49.3596265 857.541901,60.3949244 843.463025,60.3949244 C829.383541,60.3949244 817.929437,49.3596265 817.929437,35.7954697 C817.929437,16.1885938 801.563391,0.237422969 781.446627,0.237422969 C761.330472,0.237422969 744.964425,16.1885938 744.964425,35.7954697 C744.964425,49.3596265 733.510321,60.3949244 719.430837,60.3949244 C705.351962,60.3949244 693.897858,49.3596265 693.897858,35.7954697 C693.897858,16.1885938 677.531203,0.237422969 657.415048,0.237422969 C637.298892,0.237422969 620.932846,16.1885938 620.932846,35.7954697 C620.932846,49.3596265 609.478134,60.3949244 595.39865,60.3949244 C581.319166,60.3949244 569.865062,49.3596265 569.865062,35.7954697 C569.865062,16.1885938 553.499624,0.237422969 533.38286,0.237422969 C513.266705,0.237422969 496.90005,16.1885938 496.90005,35.7954697 C496.90005,49.3596265 485.445946,60.3949244 471.36707,60.3949244 C457.287587,60.3949244 445.833483,49.3596265 445.833483,35.7954697 C445.833483,16.1885938 429.467436,0.237422969 409.350673,0.237422969 C389.233909,0.237422969 372.86847,16.1885938 372.86847,35.7954697 C372.86847,49.3596265 361.414367,60.3949244 347.334883,60.3949244 C333.256007,60.3949244 321.801904,49.3596265 321.801904,35.7954697 C321.801904,16.1885938 305.435249,0.237422969 285.318485,0.237422969 C265.20233,0.237422969 248.836283,16.1885938 248.836283,35.7954697 C248.836283,49.3596265 237.381571,60.3949244 223.302695,60.3949244 C209.223211,60.3949244 197.769108,49.3596265 197.769108,35.7954697 C197.769108,16.1885938 181.403669,0.237422969 161.286906,0.237422969 C141.170142,0.237422969 124.804095,16.1885938 124.804095,35.7954697 C124.804095,49.3596265 113.349992,60.3949244 99.2711161,60.3949244 C85.1916321,60.3949244 73.7375285,49.3596265 73.7375285,35.7954697 C73.7375285,16.1885938 57.3714819,0.237422969 37.2547181,0.237422969 C17.1379544,0.237422969 0.772516062,16.1885938 0.772516062,35.7954697 L11.7217389,35.7954697 C11.7217389,22.2313128 23.1758425,11.1954062 37.2547181,11.1954062 C51.3342021,11.1954062 62.7883057,22.2313128 62.7883057,35.7954697 C62.7883057,55.4017367 79.1543523,71.3529076 99.2711161,71.3529076 C119.38788,71.3529076 135.753318,55.4017367 135.753318,35.7954697 C135.753318,22.2313128 147.207422,11.1954062 161.286906,11.1954062 C175.365781,11.1954062 186.819885,22.2313128 186.819885,35.7954697 C186.819885,55.4017367 203.18654,71.3529076 223.302695,71.3529076 C243.419459,71.3529076 259.785506,55.4017367 259.785506,35.7954697 C259.785506,22.2313128 271.239609,11.1954062 285.318485,11.1954062 C299.397969,11.1954062 310.852681,22.2313128 310.852681,35.7954697 C310.852681,55.4017367 327.218119,71.3529076 347.334883,71.3529076 C367.451647,71.3529076 383.817693,55.4017367 383.817693,35.7954697 C383.817693,22.2313128 395.271797,11.1954062 409.350673,11.1954062 C423.430156,11.1954062 434.88426,22.2313128 434.88426,35.7954697 C434.88426,55.4017367 451.249698,71.3529076 471.36707,71.3529076 C491.483226,71.3529076 507.849273,55.4017367 507.849273,35.7954697 C507.849273,22.2313128 519.303376,11.1954062 533.38286,11.1954062 C547.461736,11.1954062 558.915839,22.2313128 558.915839,35.7954697 C558.915839,55.4017367 575.282494,71.3529076 595.39865,71.3529076 C615.515413,71.3529076 631.882068,55.4017367 631.882068,35.7954697 C631.882068,22.2313128 643.336172,11.1954062 657.415048,11.1954062 C671.494532,11.1954062 682.948635,22.2313128 682.948635,35.7954697 C682.948635,55.4017367 699.314682,71.3529076 719.430837,71.3529076 C739.547601,71.3529076 755.913648,55.4017367 755.913648,35.7954697 C755.913648,22.2313128 767.367751,11.1954062 781.446627,11.1954062 C795.526111,11.1954062 806.980215,22.2313128 806.980215,35.7954697 C806.980215,55.4017367 823.346261,71.3529076 843.463025,71.3529076 C863.57918,71.3529076 879.945227,55.4017367 879.945227,35.7954697 C879.945227,22.2313128 891.399331,11.1954062 905.478815,11.1954062 C919.55769,11.1954062 931.011794,22.2313128 931.011794,35.7954697 C931.011794,55.4017367 947.378449,71.3529076 967.494604,71.3529076 C987.61076,71.3529076 1003.97741,55.4017367 1003.97741,35.7954697 L993.028192,35.7954697 C993.028192,49.3596265 981.574088,60.3949244 967.494604,60.3949244" id="Fill-17"></path>
                                </g>
                                <g id="Group-22" transform="translate(0.000000, 329.957049)">
                                    <path d="M967.494604,60.2991638 C953.41512,60.2991638 941.961017,49.2632571 941.961017,35.6991003 C941.961017,16.0928332 925.59497,0.141662372 905.478815,0.141662372 C885.362659,0.141662372 868.996004,16.0928332 868.996004,35.6991003 C868.996004,49.2632571 857.541901,60.2991638 843.463025,60.2991638 C829.383541,60.2991638 817.929437,49.2632571 817.929437,35.6991003 C817.929437,16.0928332 801.563391,0.141662372 781.446627,0.141662372 C761.330472,0.141662372 744.964425,16.0928332 744.964425,35.6991003 C744.964425,49.2632571 733.510321,60.2991638 719.430837,60.2991638 C705.351962,60.2991638 693.897858,49.2632571 693.897858,35.6991003 C693.897858,16.0928332 677.531203,0.141662372 657.415048,0.141662372 C637.298892,0.141662372 620.932846,16.0928332 620.932846,35.6991003 C620.932846,49.2632571 609.478134,60.2991638 595.39865,60.2991638 C581.319166,60.2991638 569.865062,49.2632571 569.865062,35.6991003 C569.865062,16.0928332 553.499624,0.141662372 533.38286,0.141662372 C513.266705,0.141662372 496.90005,16.0928332 496.90005,35.6991003 C496.90005,49.2632571 485.445946,60.2991638 471.36707,60.2991638 C457.287587,60.2991638 445.833483,49.2632571 445.833483,35.6991003 C445.833483,16.0928332 429.467436,0.141662372 409.350673,0.141662372 C389.233909,0.141662372 372.86847,16.0928332 372.86847,35.6991003 C372.86847,49.2632571 361.414367,60.2991638 347.334883,60.2991638 C333.256007,60.2991638 321.801904,49.2632571 321.801904,35.6991003 C321.801904,16.0928332 305.435249,0.141662372 285.318485,0.141662372 C265.20233,0.141662372 248.836283,16.0928332 248.836283,35.6991003 C248.836283,49.2632571 237.381571,60.2991638 223.302695,60.2991638 C209.223211,60.2991638 197.769108,49.2632571 197.769108,35.6991003 C197.769108,16.0928332 181.403669,0.141662372 161.286906,0.141662372 C141.170142,0.141662372 124.804095,16.0928332 124.804095,35.6991003 C124.804095,49.2632571 113.349992,60.2991638 99.2711161,60.2991638 C85.1916321,60.2991638 73.7375285,49.2632571 73.7375285,35.6991003 C73.7375285,16.0928332 57.3714819,0.141662372 37.2547181,0.141662372 C17.1379544,0.141662372 0.772516062,16.0928332 0.772516062,35.6991003 L11.7217389,35.6991003 C11.7217389,22.1349434 23.1758425,11.0996456 37.2547181,11.0996456 C51.3342021,11.0996456 62.7883057,22.1349434 62.7883057,35.6991003 C62.7883057,55.3059761 79.1543523,71.257147 99.2711161,71.257147 C119.38788,71.257147 135.753318,55.3059761 135.753318,35.6991003 C135.753318,22.1349434 147.207422,11.0996456 161.286906,11.0996456 C175.365781,11.0996456 186.819885,22.1349434 186.819885,35.6991003 C186.819885,55.3059761 203.18654,71.257147 223.302695,71.257147 C243.419459,71.257147 259.785506,55.3059761 259.785506,35.6991003 C259.785506,22.1349434 271.239609,11.0996456 285.318485,11.0996456 C299.397969,11.0996456 310.852681,22.1349434 310.852681,35.6991003 C310.852681,55.3059761 327.218119,71.257147 347.334883,71.257147 C367.451647,71.257147 383.817693,55.3059761 383.817693,35.6991003 C383.817693,22.1349434 395.271797,11.0996456 409.350673,11.0996456 C423.430156,11.0996456 434.88426,22.1349434 434.88426,35.6991003 C434.88426,55.3059761 451.249698,71.257147 471.36707,71.257147 C491.483226,71.257147 507.849273,55.3059761 507.849273,35.6991003 C507.849273,22.1349434 519.303376,11.0996456 533.38286,11.0996456 C547.461736,11.0996456 558.915839,22.1349434 558.915839,35.6991003 C558.915839,55.3059761 575.282494,71.257147 595.39865,71.257147 C615.515413,71.257147 631.882068,55.3059761 631.882068,35.6991003 C631.882068,22.1349434 643.336172,11.0996456 657.415048,11.0996456 C671.494532,11.0996456 682.948635,22.1349434 682.948635,35.6991003 C682.948635,55.3059761 699.314682,71.257147 719.430837,71.257147 C739.547601,71.257147 755.913648,55.3059761 755.913648,35.6991003 C755.913648,22.1349434 767.367751,11.0996456 781.446627,11.0996456 C795.526111,11.0996456 806.980215,22.1349434 806.980215,35.6991003 C806.980215,55.3059761 823.346261,71.257147 843.463025,71.257147 C863.57918,71.257147 879.945227,55.3059761 879.945227,35.6991003 C879.945227,22.1349434 891.399331,11.0996456 905.478815,11.0996456 C919.55769,11.0996456 931.011794,22.1349434 931.011794,35.6991003 C931.011794,55.3059761 947.378449,71.257147 967.494604,71.257147 C987.61076,71.257147 1003.97741,55.3059761 1003.97741,35.6991003 L993.028192,35.6991003 C993.028192,49.2632571 981.574088,60.2991638 967.494604,60.2991638" id="Fill-20"></path>
                                </g>
                                <g id="Group-28" transform="translate(0.000000, 496.761905)">
                                    <path d="M967.494604,60.4906241 C953.41512,60.4906241 941.961017,49.4553262 941.961017,35.8911694 C941.961017,16.2849023 925.59497,0.333731466 905.478815,0.333731466 C885.362659,0.333731466 868.996004,16.2849023 868.996004,35.8911694 C868.996004,49.4553262 857.541901,60.4906241 843.463025,60.4906241 C829.383541,60.4906241 817.929437,49.4553262 817.929437,35.8911694 C817.929437,16.2849023 801.563391,0.333731466 781.446627,0.333731466 C761.330472,0.333731466 744.964425,16.2849023 744.964425,35.8911694 C744.964425,49.4553262 733.510321,60.4906241 719.430837,60.4906241 C705.351962,60.4906241 693.897858,49.4553262 693.897858,35.8911694 C693.897858,16.2849023 677.531203,0.333731466 657.415048,0.333731466 C637.298892,0.333731466 620.932846,16.2849023 620.932846,35.8911694 C620.932846,49.4553262 609.478134,60.4906241 595.39865,60.4906241 C581.319166,60.4906241 569.865062,49.4553262 569.865062,35.8911694 C569.865062,16.2849023 553.499624,0.333731466 533.38286,0.333731466 C513.266705,0.333731466 496.90005,16.2849023 496.90005,35.8911694 C496.90005,49.4553262 485.445946,60.4906241 471.36707,60.4906241 C457.287587,60.4906241 445.833483,49.4553262 445.833483,35.8911694 C445.833483,16.2849023 429.467436,0.333731466 409.350673,0.333731466 C389.233909,0.333731466 372.86847,16.2849023 372.86847,35.8911694 C372.86847,49.4553262 361.414367,60.4906241 347.334883,60.4906241 C333.256007,60.4906241 321.801904,49.4553262 321.801904,35.8911694 C321.801904,16.2849023 305.435249,0.333731466 285.318485,0.333731466 C265.20233,0.333731466 248.836283,16.2849023 248.836283,35.8911694 C248.836283,49.4553262 237.381571,60.4906241 223.302695,60.4906241 C209.223211,60.4906241 197.769108,49.4553262 197.769108,35.8911694 C197.769108,16.2849023 181.403669,0.333731466 161.286906,0.333731466 C141.170142,0.333731466 124.804095,16.2849023 124.804095,35.8911694 C124.804095,49.4553262 113.349992,60.4906241 99.2711161,60.4906241 C85.1916321,60.4906241 73.7375285,49.4553262 73.7375285,35.8911694 C73.7375285,16.2849023 57.3714819,0.333731466 37.2547181,0.333731466 C17.1379544,0.333731466 0.772516062,16.2849023 0.772516062,35.8911694 L11.7217389,35.8911694 C11.7217389,22.3270125 23.1758425,11.2917147 37.2547181,11.2917147 C51.3342021,11.2917147 62.7883057,22.3270125 62.7883057,35.8911694 C62.7883057,55.4974364 79.1543523,71.4486073 99.2711161,71.4486073 C119.38788,71.4486073 135.753318,55.4974364 135.753318,35.8911694 C135.753318,22.3270125 147.207422,11.2917147 161.286906,11.2917147 C175.365781,11.2917147 186.819885,22.3270125 186.819885,35.8911694 C186.819885,55.4974364 203.18654,71.4486073 223.302695,71.4486073 C243.419459,71.4486073 259.785506,55.4974364 259.785506,35.8911694 C259.785506,22.3270125 271.239609,11.2917147 285.318485,11.2917147 C299.397969,11.2917147 310.852681,22.3270125 310.852681,35.8911694 C310.852681,55.4974364 327.218119,71.4486073 347.334883,71.4486073 C367.451647,71.4486073 383.817693,55.4974364 383.817693,35.8911694 C383.817693,22.3270125 395.271797,11.2917147 409.350673,11.2917147 C423.430156,11.2917147 434.88426,22.3270125 434.88426,35.8911694 C434.88426,55.4974364 451.249698,71.4486073 471.36707,71.4486073 C491.483226,71.4486073 507.849273,55.4974364 507.849273,35.8911694 C507.849273,22.3270125 519.303376,11.2917147 533.38286,11.2917147 C547.461736,11.2917147 558.915839,22.3270125 558.915839,35.8911694 C558.915839,55.4974364 575.282494,71.4486073 595.39865,71.4486073 C615.515413,71.4486073 631.882068,55.4974364 631.882068,35.8911694 C631.882068,22.3270125 643.336172,11.2917147 657.415048,11.2917147 C671.494532,11.2917147 682.948635,22.3270125 682.948635,35.8911694 C682.948635,55.4974364 699.314682,71.4486073 719.430837,71.4486073 C739.547601,71.4486073 755.913648,55.4974364 755.913648,35.8911694 C755.913648,22.3270125 767.367751,11.2917147 781.446627,11.2917147 C795.526111,11.2917147 806.980215,22.3270125 806.980215,35.8911694 C806.980215,55.4974364 823.346261,71.4486073 843.463025,71.4486073 C863.57918,71.4486073 879.945227,55.4974364 879.945227,35.8911694 C879.945227,22.3270125 891.399331,11.2917147 905.478815,11.2917147 C919.55769,11.2917147 931.011794,22.3270125 931.011794,35.8911694 C931.011794,55.4974364 947.378449,71.4486073 967.494604,71.4486073 C987.61076,71.4486073 1003.97741,55.4974364 1003.97741,35.8911694 L993.028192,35.8911694 C993.028192,49.4553262 981.574088,60.4906241 967.494604,60.4906241" id="Fill-26"></path>
                                </g>
                            </g>
                        </g>
                    </g>
                </g>
            </g>
        </g>
    </g>
</svg>