<?xml version="1.0" encoding="UTF-8"?>
<svg width="282px" height="394px" viewBox="0 0 282 394" version="1.1" xmlns="http://www.w3.org/2000/svg" xmlns:xlink="http://www.w3.org/1999/xlink">
    <!-- Generator: Sketch 47.1 (45422) - http://www.bohemiancoding.com/sketch -->
    <title>Ilustração02</title>
    <desc>Created with Sketch.</desc>
    <defs></defs>
    <g id="Page-1" stroke="none" stroke-width="1" fill="none" fill-rule="evenodd">
        <g id="Desktop-HD" transform="translate(-13.000000, -845.000000)">
            <g id="Group-26">
                <g transform="translate(-320.000000, -66.000000)" id="HOME">
                    <g transform="translate(305.000000, 0.000000)">
                        <g id="Ilustração02" transform="translate(28.000000, 911.000000)">
                            <path d="M281.154605,336.533805 C282.632144,338.968837 282.132569,342.464376 279.971458,346.101838 C278.023336,349.609669 274.498429,352.919703 270.033472,355.640815 C265.782618,358.232297 261.229567,359.847084 257.224041,359.966657 C253.007756,360.216977 249.680226,359.053659 248.202686,356.618628 L216.845395,305.467313 C215.367856,303.032281 215.867431,299.536741 218.028542,295.898162 C219.976664,292.390331 223.501571,289.081414 227.966528,286.360302 C232.218497,283.76882 236.771549,282.152916 240.775959,282.033343 C244.993359,281.783023 248.320889,282.946341 249.798429,285.381372 L281.154605,336.533805 Z" id="Fill-1" fill="#71C9AB"></path>
                            <path d="M0.845395069,336.533805 C-0.632144433,338.968837 -0.132568813,342.464376 2.02854179,346.101838 C3.97666369,349.609669 7.50157113,352.919703 11.9665282,355.640815 C16.2173815,358.232297 20.7715485,359.847084 24.7759594,359.966657 C28.9922438,360.216977 32.3208894,359.053659 33.7984289,356.618628 L65.1546049,305.467313 C66.6321444,303.032281 66.1325688,299.536741 63.9714582,295.898162 C62.0233363,292.390331 58.4984289,289.081414 54.0334718,286.360302 C49.7826185,283.76882 45.2284515,282.152916 41.2240406,282.033343 C37.0077562,281.783023 33.6802257,282.946341 32.2015711,285.381372 L0.845395069,336.533805 Z" id="Fill-3" fill="#71C9AB"></path>
                            <path d="M73.2086965,376.983671 C72.4353681,379.773895 73.8440497,383.065542 76.8895167,386.043373 C79.6957527,388.952984 83.9651927,391.238376 88.9812561,392.691475 C93.7592012,394.075218 98.5671892,394.418595 102.449409,393.446451 C106.570859,392.544801 109.461661,390.498182 110.234989,387.707957 L126.790891,329.016594 C127.565332,326.226369 126.155538,322.93586 123.111184,319.956892 C120.304948,317.047281 116.035508,314.761889 111.018332,313.308789 C106.241499,311.925047 101.433511,311.58167 97.5512917,312.552677 C93.4298412,313.456601 90.5390398,315.502083 89.7657115,318.292308 L73.2086965,376.983671 Z" id="Fill-5" fill="#71C9AB"></path>
                            <path d="M204.791304,376.983671 C205.564632,379.773895 204.15595,383.065542 201.110483,386.043373 C198.30536,388.952984 194.03592,391.238376 189.018744,392.691475 C184.240799,394.075218 179.433924,394.418595 175.550591,393.446451 C171.429141,392.544801 168.539452,390.498182 167.765011,387.707957 L151.209109,329.016594 C150.434668,326.226369 151.844462,322.93586 154.888816,319.956892 C157.696165,317.047281 161.965605,314.761889 166.981668,313.308789 C171.758501,311.925047 176.567602,311.58167 180.449821,312.552677 C184.571272,313.456601 187.462073,315.502083 188.235401,318.292308 L204.791304,376.983671 Z" id="Fill-7" fill="#71C9AB"></path>
                            <path d="M264.468052,211.701859 C246.84919,262.990357 197.986167,300.282098 140.728532,300.282098 C82.8489499,300.282098 33.7285685,262.650095 16.3015959,211 C7.6451121,225.867061 1.93582862,242.713927 0,261.097021 C30.0115518,306.711128 81.7811401,337 140.728532,337 C199.822664,337 251.99635,306.257446 282,260.07736 C279.670233,242.588154 273.501543,226.285931 264.468052,211.701859" id="Fill-9" fill="#71C9AB"></path>
                            <path d="M17.5319476,125.298141 C35.1519387,74.0096433 84.0138334,36.7179016 141.272596,36.7179016 C199.15105,36.7179016 248.271431,74.3499046 265.698404,126 C274.354888,111.132939 280.064171,94.2849504 282,75.9018556 C251.988448,30.2888719 200.219989,0 141.272596,0 C82.1773359,0 30.0036505,30.7425536 0,76.9226395 C2.32976692,94.4118465 8.49845696,110.714069 17.5319476,125.298141" id="Fill-11" fill="#F9DCD2"></path>
                            <path d="M272,167.499439 C272,239.572944 213.348211,298 141,298 C68.6506619,298 10,239.572944 10,167.499439 C10,95.4259332 68.6506619,37 141,37 C213.348211,37 272,95.4259332 272,167.499439" id="Fill-13" fill="#EC6963"></path>
                            <path d="M145.811171,144.0646 C92.2384679,142.501035 41.3925491,169.423464 16,213.620695 C33.4205614,265.563553 82.3878032,303 140.117699,303 C197.588544,303 246.375577,265.900859 264,214.320125 C239.463443,174.198768 193.52033,147.00108 145.811171,144.0646" id="Fill-15" fill="#000000"></path>
                            <path d="M184,224.500567 C184,247.971857 164.972991,267 141.500567,267 C118.028143,267 99,247.971857 99,224.500567 C99,201.028143 118.028143,182 141.500567,182 C164.972991,182 184,201.028143 184,224.500567" id="Fill-17" fill="#FFFFFF"></path>
                        </g>
                    </g>
                </g>
            </g>
        </g>
    </g>
</svg>