<?xml version="1.0" encoding="UTF-8"?>
<svg width="418px" height="518px" viewBox="0 0 418 518" version="1.1" xmlns="http://www.w3.org/2000/svg" xmlns:xlink="http://www.w3.org/1999/xlink">
    <!-- Generator: Sketch 47.1 (45422) - http://www.bohemiancoding.com/sketch -->
    <title>Page 1 Copy 11</title>
    <desc>Created with Sketch.</desc>
    <defs>
        <polygon id="path-1" points="0.4722 324 278.4962 324 278.4962 0.0476 0.4722 0.0476"></polygon>
    </defs>
    <g id="Page-1" stroke="none" stroke-width="1" fill="none" fill-rule="evenodd">
        <g id="Desktop-HD" transform="translate(-1104.000000, -4410.000000)">
            <g id="Group-26">
                <g transform="translate(-320.000000, 4096.000000)" id="PROGRAMAÇAO">
                    <g transform="translate(320.000000, 0.000000)">
                        <g id="Page-1-Copy-11" transform="translate(1104.000000, 314.000000)">
                            <path d="M284.339,324.7757 C284.339,305.0487 291.2,287.0377 304.924,272.4567 C316.932,259.5897 333.228,251.8717 350.382,251.8717 C367.536,251.8717 383.833,259.5897 396.698,272.4567 C409.564,287.0377 417.283,305.0487 417.283,324.7757 L417.283,333.8727 C417.283,353.5997 409.564,372.4687 396.698,386.1927 C384.746,398.9987 369.396,405.8557 353.184,406.7647 C353.031,406.7737 352.879,406.7777 352.727,406.7777 L350.382,406.7777 L291.216,406.7777 C287.418,406.7777 284.339,403.6987 284.339,399.9007 L284.339,324.7757 Z" id="Fill-1" fill="#1E3382"></path>
                            <path d="M132.9444,324.7757 C132.9444,305.0487 126.0834,287.0377 112.3594,272.4567 C100.3514,259.5897 84.0544,251.8717 66.9014,251.8717 C49.7474,251.8717 33.4504,259.5897 20.5854,272.4567 C7.7194,287.0377 0.0004,305.0487 0.0004,324.7757 L0.0004,333.8727 C0.0004,353.5997 7.7194,372.4687 20.5854,386.1927 C32.5374,398.9987 47.8874,405.8557 64.0994,406.7647 C64.2524,406.7737 64.4044,406.7777 64.5564,406.7777 L66.9014,406.7777 L126.0674,406.7777 C129.8654,406.7777 132.9444,403.6987 132.9444,399.9007 L132.9444,324.7757 Z" id="Fill-3" fill="#1E3382"></path>
                            <g id="Group-7" transform="translate(66.000000, 193.203000)">
                                <mask id="mask-2" fill="white">
                                    <use xlink:href="#path-1"></use>
                                </mask>
                                <g id="Clip-6"></g>
                                <path d="M278.4962,171.5356 C278.4962,212.7906 264.1462,250.4586 235.4472,280.9516 C210.3352,307.8566 176.2552,324.0006 140.3812,324.0006 C104.5072,324.0006 70.4272,307.8566 43.5202,280.9516 C16.6152,250.4586 0.4722,212.7906 0.4722,171.5356 L0.4722,152.5126 C0.4722,111.2576 16.6152,71.7956 43.5202,43.0966 C68.5162,16.3156 100.6182,1.9746 134.5222,0.0736 C134.8412,0.0556 135.1592,0.0476 135.4772,0.0476 L140.3812,0.0476 L264.1142,0.0476 C272.0572,0.0476 278.4962,6.4866 278.4962,14.4296 L278.4962,171.5356 Z" id="Fill-5" fill="#E789A1" mask="url(#mask-2)"></path>
                            </g>
                            <path d="M258.2042,18.9871 L258.2592,18.9871 C275.5872,59.2961 328.0262,180.8311 328.0262,180.8311 C329.3072,183.4011 329.8192,184.1721 333.1572,184.1761 L333.9272,184.1771 C336.7512,184.1811 338.0362,183.4111 339.3232,180.8461 L410.4162,19.1811 L410.4422,19.1811 L416.1072,5.9441 C417.2702,3.2261 415.2792,0.2021 412.3222,0.1991 L411.6952,0.1981 L400.8602,0.1841 L267.8352,0.0141 L256.3722,0.0001 C253.4162,-0.0039 251.4162,3.0141 252.5722,5.7351 L258.2042,18.9871 Z" id="Fill-8" fill="#000000"></path>
                            <path d="M180.7442,374.0355 C181.4822,375.2485 181.2322,376.9885 180.1542,378.8005 C179.1822,380.5475 177.4232,382.1945 175.1942,383.5505 C173.0722,384.8415 170.8012,385.6445 168.8022,385.7055 C166.6972,385.8295 165.0372,385.2505 164.3002,384.0375 L148.6502,358.5635 C147.9132,357.3515 148.1622,355.6105 149.2412,353.7995 C150.2132,352.0525 151.9732,350.4045 154.2002,349.0495 C156.3222,347.7585 158.5952,346.9545 160.5932,346.8945 C162.6982,346.7695 164.3582,347.3485 165.0962,348.5615 L180.7442,374.0355 Z" id="Fill-10" fill="#E74F42"></path>
                            <path d="M42.2667,374.0355 C41.5297,375.2485 41.7787,376.9885 42.8577,378.8005 C43.8287,380.5475 45.5887,382.1945 47.8167,383.5505 C49.9387,384.8415 52.2107,385.6445 54.2087,385.7055 C56.3147,385.8295 57.9747,385.2505 58.7117,384.0375 L74.3607,358.5635 C75.0977,357.3515 74.8487,355.6105 73.7707,353.7995 C72.7977,352.0525 71.0387,350.4045 68.8107,349.0495 C66.6887,347.7585 64.4157,346.9545 62.4177,346.8945 C60.3137,346.7695 58.6537,347.3485 57.9157,348.5615 L42.2667,374.0355 Z" id="Fill-12" fill="#E74F42"></path>
                            <path d="M78.1749,393.4368 C77.7879,394.8018 78.4929,396.4138 80.0159,397.8718 C81.4189,399.2948 83.5549,400.4138 86.0639,401.1248 C88.4529,401.8018 90.8579,401.9708 92.7999,401.4948 C94.8619,401.0528 96.3069,400.0508 96.6939,398.6858 L104.9739,369.9588 C105.3619,368.5938 104.6559,366.9828 103.1329,365.5248 C101.7299,364.1008 99.5949,362.9828 97.0859,362.2718 C94.6959,361.5938 92.2909,361.4248 90.3499,361.9018 C88.2879,362.3428 86.8429,363.3448 86.4559,364.7098 L78.1749,393.4368 Z" id="Fill-14" fill="#E74F42"></path>
                            <path d="M143.2716,393.4368 C143.6596,394.8018 142.9546,396.4138 141.4306,397.8718 C140.0276,399.2948 137.8926,400.4138 135.3836,401.1248 C132.9946,401.8018 130.5896,401.9708 128.6476,401.4948 C126.5856,401.0528 125.1406,400.0508 124.7536,398.6858 L116.4736,369.9588 C116.0856,368.5938 116.7916,366.9828 118.3136,365.5248 C119.7176,364.1008 121.8526,362.9828 124.3616,362.2718 C126.7506,361.5938 129.1556,361.4248 131.0976,361.9018 C133.1596,362.3428 134.6046,363.3448 134.9916,364.7098 L143.2716,393.4368 Z" id="Fill-16" fill="#E74F42"></path>
                            <path d="M166.9366,318.2152 C158.8716,341.8132 136.5046,358.9702 110.2966,358.9702 C83.8036,358.9702 61.3196,341.6552 53.3426,317.8932 C50.1566,323.3942 47.8416,329.4842 46.5966,336.0582 C46.0186,339.1132 46.7106,342.2942 48.5696,344.7882 C62.5896,363.6132 84.9986,375.8632 110.2966,375.8632 C135.8366,375.8632 158.5526,363.2532 172.5686,343.9612 C174.2166,341.6922 174.7896,338.8182 174.1946,336.0762 C172.8086,329.6852 170.3076,323.6882 166.9366,318.2152" id="Fill-18" fill="#E74F42"></path>
                            <path d="M53.8028,278.1722 C61.8678,254.5742 84.2348,237.4172 110.4428,237.4172 C136.9358,237.4172 159.4198,254.7312 167.3968,278.4942 C170.5828,272.9932 172.8978,266.9022 174.1418,260.3292 C174.7208,257.2732 174.0288,254.0932 172.1698,251.5982 C158.1488,232.7732 135.7398,220.5242 110.4428,220.5242 C84.9028,220.5242 62.1868,233.1332 48.1708,252.4252 C46.5218,254.6942 45.9498,257.5682 46.5448,260.3112 C47.9308,266.7012 50.4308,272.6992 53.8028,278.1722" id="Fill-20" fill="#F9DCD2"></path>
                            <path d="M170.3839,297.6175 C170.3839,330.7915 143.4909,357.6835 110.3179,357.6835 C77.1439,357.6835 50.2509,330.7915 50.2509,297.6175 C50.2509,264.4435 77.1439,237.5515 110.3179,237.5515 C143.4909,237.5515 170.3839,264.4435 170.3839,297.6175" id="Fill-22" fill="#F6B533"></path>
                            <path d="M112.9835,286.9945 C88.4075,286.2785 65.0835,298.6085 53.4345,318.8505 C61.4255,342.6405 83.8885,359.7855 110.3715,359.7855 C136.7345,359.7855 159.1145,342.7945 167.1995,319.1715 C155.9445,300.7965 134.8695,288.3395 112.9835,286.9945" id="Fill-24" fill="#71C9AB"></path>
                            <path d="M133.3185,321.432 C133.3185,333.911 123.2025,344.028 110.7235,344.028 C98.2445,344.028 88.1285,333.911 88.1285,321.432 C88.1285,308.953 98.2445,298.836 110.7235,298.836 C123.2025,298.836 133.3185,308.953 133.3185,321.432" id="Fill-26" fill="#FFFFFF"></path>
                            <path d="M366.8575,374.0355 C367.5955,375.2485 367.3455,376.9885 366.2675,378.8005 C365.2955,380.5475 363.5365,382.1945 361.3075,383.5505 C359.1865,384.8415 356.9145,385.6445 354.9155,385.7055 C352.8105,385.8295 351.1505,385.2505 350.4135,384.0375 L334.7635,358.5635 C334.0265,357.3515 334.2765,355.6105 335.3545,353.7995 C336.3265,352.0525 338.0865,350.4045 340.3135,349.0495 C342.4355,347.7585 344.7085,346.9545 346.7075,346.8945 C348.8115,346.7695 350.4715,347.3485 351.2095,348.5615 L366.8575,374.0355 Z" id="Fill-28" fill="#E74F42"></path>
                            <path d="M228.38,374.0355 C227.643,375.2485 227.893,376.9885 228.971,378.8005 C229.942,380.5475 231.702,382.1945 233.93,383.5505 C236.052,384.8415 238.324,385.6445 240.323,385.7055 C242.428,385.8295 244.088,385.2505 244.825,384.0375 L260.474,358.5635 C261.212,357.3515 260.962,355.6105 259.884,353.7995 C258.911,352.0525 257.152,350.4045 254.924,349.0495 C252.803,347.7585 250.53,346.9545 248.531,346.8945 C246.427,346.7695 244.767,347.3485 244.029,348.5615 L228.38,374.0355 Z" id="Fill-30" fill="#E74F42"></path>
                            <path d="M264.2892,393.4368 C263.9012,394.8018 264.6062,396.4138 266.1302,397.8718 C267.5332,399.2948 269.6682,400.4138 272.1772,401.1248 C274.5662,401.8018 276.9722,401.9708 278.9132,401.4948 C280.9752,401.0528 282.4202,400.0508 282.8072,398.6858 L291.0882,369.9588 C291.4752,368.5938 290.7692,366.9828 289.2472,365.5248 C287.8442,364.1008 285.7082,362.9828 283.1992,362.2718 C280.8102,361.5938 278.4052,361.4248 276.4632,361.9018 C274.4012,362.3428 272.9562,363.3448 272.5692,364.7098 L264.2892,393.4368 Z" id="Fill-32" fill="#E74F42"></path>
                            <path d="M329.3858,393.4368 C329.7728,394.8018 329.0678,396.4138 327.5448,397.8718 C326.1418,399.2948 324.0058,400.4138 321.4968,401.1248 C319.1078,401.8018 316.7028,401.9708 314.7608,401.4948 C312.6988,401.0528 311.2538,400.0508 310.8668,398.6858 L302.5868,369.9588 C302.1988,368.5938 302.9048,366.9828 304.4278,365.5248 C305.8308,364.1008 307.9658,362.9828 310.4748,362.2718 C312.8648,361.5938 315.2698,361.4248 317.2108,361.9018 C319.2728,362.3428 320.7178,363.3448 321.1058,364.7098 L329.3858,393.4368 Z" id="Fill-34" fill="#E74F42"></path>
                            <path d="M353.0499,318.2152 C344.9849,341.8132 322.6179,358.9702 296.4099,358.9702 C269.9169,358.9702 247.4329,341.6552 239.4559,317.8932 C236.2699,323.3942 233.9549,329.4842 232.7109,336.0582 C232.1319,339.1132 232.8239,342.2942 234.6829,344.7882 C248.7039,363.6132 271.1129,375.8632 296.4099,375.8632 C321.9499,375.8632 344.6659,363.2532 358.6819,343.9612 C360.3309,341.6922 360.9029,338.8182 360.3079,336.0762 C358.9219,329.6852 356.4219,323.6882 353.0499,318.2152" id="Fill-36" fill="#E74F42"></path>
                            <path d="M239.9161,278.1722 C247.9811,254.5742 270.3481,237.4172 296.5561,237.4172 C323.0491,237.4172 345.5331,254.7312 353.5101,278.4942 C356.6961,272.9932 359.0111,266.9022 360.2551,260.3292 C360.8341,257.2732 360.1421,254.0932 358.2831,251.5982 C344.2631,232.7732 321.8541,220.5242 296.5561,220.5242 C271.0161,220.5242 248.3001,233.1332 234.2841,252.4252 C232.6361,254.6942 232.0631,257.5682 232.6581,260.3112 C234.0441,266.7012 236.5441,272.6992 239.9161,278.1722" id="Fill-38" fill="#F9DCD2"></path>
                            <path d="M356.4972,297.6175 C356.4972,330.7915 329.6042,357.6835 296.4312,357.6835 C263.2572,357.6835 236.3642,330.7915 236.3642,297.6175 C236.3642,264.4435 263.2572,237.5515 296.4312,237.5515 C329.6042,237.5515 356.4972,264.4435 356.4972,297.6175" id="Fill-40" fill="#F6B533"></path>
                            <path d="M299.0968,286.9945 C274.5208,286.2785 251.1968,298.6085 239.5488,318.8505 C247.5398,342.6405 270.0028,359.7855 296.4848,359.7855 C322.8478,359.7855 345.2288,342.7945 353.3128,319.1715 C342.0578,300.7965 320.9828,288.3395 299.0968,286.9945" id="Fill-42" fill="#71C9AB"></path>
                            <path d="M319.4327,321.432 C319.4327,333.911 309.3167,344.028 296.8367,344.028 C284.3587,344.028 274.2427,333.911 274.2427,321.432 C274.2427,308.953 284.3587,298.836 296.8367,298.836 C309.3167,298.836 319.4327,308.953 319.4327,321.432" id="Fill-44" fill="#FFFFFF"></path>
                        </g>
                    </g>
                </g>
            </g>
        </g>
    </g>
</svg>