<?xml version="1.0" encoding="UTF-8"?>
<svg width="180px" height="752px" viewBox="0 0 180 752" version="1.1" xmlns="http://www.w3.org/2000/svg" xmlns:xlink="http://www.w3.org/1999/xlink">
    <!-- Generator: Sketch 47.1 (45422) - http://www.bohemiancoding.com/sketch -->
    <title>Page 1 Copy 6</title>
    <desc>Created with Sketch.</desc>
    <defs>
        <polygon id="path-1" points="0 23.7059733 0 0.522506667 22.7226409 0.522506667 22.7226409 23.7059733 9.05242899e-16 23.7059733"></polygon>
    </defs>
    <g id="Page-1" stroke="none" stroke-width="1" fill="none" fill-rule="evenodd">
        <g id="Desktop-HD" transform="translate(-755.000000, -290.000000)">
            <g id="Group-26">
                <g transform="translate(-320.000000, -66.000000)" id="HOME">
                    <g transform="translate(305.000000, 0.000000)">
                        <g id="Page-1-Copy-6" transform="translate(770.000000, 356.000000)">
                            <path d="M71,672.06145 C71,665.821342 68.8321904,660.123876 64.4965711,655.511691 C60.7034289,651.441621 55.5551433,649 50.1356193,649 C44.7160952,649 39.5683343,651.441621 35.5034289,655.511691 C31.4390482,660.12335 29,665.821342 29,672.06145 L29,674.939075 C29,681.178658 31.4390482,687.147707 35.5034289,691.488835 C39.279258,695.539468 44.1290238,697.708455 49.2505527,697.996323 C49.2988196,697.998949 49.3470864,698 49.3948286,698 L50.1356193,698 L68.8274686,698 C70.0273187,698 71,697.026083 71,695.824709 L71,672.06145 Z" id="Fill-1" fill="#71C9AB"></path>
                            <path d="M75,139.06145 C75,132.821342 72.5225033,127.123876 67.5675098,122.511691 C63.2324902,118.441621 57.3487352,116 51.1549934,116 C44.9612516,116 39.0780963,118.441621 34.4324902,122.511691 C29.7874836,127.12335 27,132.821342 27,139.06145 L27,141.939075 C27,148.178658 29.7874836,154.147707 34.4324902,158.488835 C38.7477234,162.539468 44.2903129,164.708455 50.1434889,164.996323 C50.1986509,164.998949 50.253813,165 50.3083755,165 L51.1549934,165 L72.517107,165 C73.8883642,165 75,164.026083 75,162.824709 L75,139.06145 Z" id="Fill-1-Copy" fill="#F4DB8E"></path>
                            <g id="Group-5" transform="translate(31.000000, 592.000000)" fill="#F5B430">
                                <path d="M30.0012243,8.26215286 C22.4468189,1.11956714 11.6269541,-1.54231857 2.2716973,1.58576714 C-1.88232973,11.36381 0.394954054,23.1118386 8.75202162,30.5641671 C17.0711432,37.9831957 28.9007919,38.9044957 38.0805486,33.7033529 C39.6853459,24.7202814 36.5300351,14.8470957 30.0012243,8.26215286" id="Fill-3"></path>
                            </g>
                            <g id="Group-5-Copy" transform="translate(0.000000, 441.000000)" fill="#F5B430">
                                <path d="M30.0012243,8.26215286 C22.4468189,1.11956714 11.6269541,-1.54231857 2.2716973,1.58576714 C-1.88232973,11.36381 0.394954054,23.1118386 8.75202162,30.5641671 C17.0711432,37.9831957 28.9007919,38.9044957 38.0805486,33.7033529 C39.6853459,24.7202814 36.5300351,14.8470957 30.0012243,8.26215286" id="Fill-3"></path>
                            </g>
                            <path d="M128.819833,657.775755 C141.445609,664.63733 157.61658,663.191633 168.828523,653.059205 C179.989518,642.972773 182.863355,627.325161 177.108782,614.382352 C165.204782,611.027351 151.442209,613.897317 141.654712,621.710147 C130.971893,630.814487 125.887617,644.879986 128.819833,657.775755 Z" id="Fill-6" fill="#F6DC8E"></path>
                            <path d="M116.654712,239.710147 C105.971893,248.814487 100.887617,262.879986 103.819833,275.775755 C116.445609,282.63733 132.61658,281.191633 143.828523,271.059205 C154.989518,260.972773 157.863355,245.325161 152.108782,232.382352 C140.204782,229.027351 126.442209,231.897317 116.654712,239.710147" id="Fill-6-Copy" fill="#E588A0"></path>
                            <g id="Group-10" transform="translate(8.000000, 629.000000)">
                                <mask id="mask-2" fill="white">
                                    <use xlink:href="#path-1"></use>
                                </mask>
                                <g id="Clip-9"></g>
                                <path d="M22.7226409,12.1139733 C22.7226409,18.5161067 17.6359818,23.7059733 11.3616864,23.7059733 C5.08686818,23.7059733 -0.000313636364,18.5161067 -0.000313636364,12.1139733 C-0.000313636364,5.71237333 5.08686818,0.522506667 11.3616864,0.522506667 C17.6359818,0.522506667 22.7226409,5.71237333 22.7226409,12.1139733" id="Fill-8" fill="#EC6963" mask="url(#mask-2)"></path>
                            </g>
                            <path d="M79,746.726397 L79,5.27360284 C79,2.37312128 81.475,0 84.5,0 C87.525,0 90,2.37312128 90,5.27360284 L90,746.726397 C90,749.626879 87.525,752 84.5,752 C81.475,752 79,749.626879 79,746.726397 Z" id="Fill-11" fill="#000000"></path>
                            <path d="M89.373,535.797538 C86.0716859,513.150954 69.2124151,494.761198 46.9048524,490.128709 C42.2752139,489.166882 35.7830799,489.143444 27.4284505,490.058396 L27.4284485,490.058378 C24.8549271,490.340216 22.9971504,492.654942 23.278988,495.228463 C23.2798081,495.235952 23.2806463,495.243439 23.2815026,495.250924 L23.2815026,495.250924 L23.2815026,495.250924 C23.5629928,497.711584 25.785945,499.47815 28.2466052,499.19666 C28.2708658,499.193885 28.2951032,499.190911 28.3193152,499.18774 C34.9585826,498.318179 40.1534656,498.223167 43.9039686,498.90274 C60.5282687,501.915836 73.7950767,513.926699 78.657163,529.70149 C79.4837128,532.382891 81.6941962,534.405789 84.4552242,534.906506 L89.373,535.797538 Z" id="Fill-17" fill="#000000"></path>
                            <path d="M88.9743274,668.897221 C85.1485838,653.410593 75.1226415,640.517567 61.792267,633 L61.0760534,638.300996 C60.684677,641.197693 61.8216071,644.087572 64.0766058,645.945464 C70.9657736,651.619822 76.2097982,659.279497 78.9232365,668.175144 L89,669 L88.9743274,668.897221 Z" id="Fill-15" fill="#000000"></path>
                            <path d="M88.9743274,212.897221 C85.1485838,197.410593 75.1226415,184.517567 61.792267,177 L61.0760534,182.300996 C60.684677,185.197693 61.8216071,188.087572 64.0766058,189.945464 C70.9657736,195.619822 76.2097982,203.279497 78.9232365,212.175144 L89,213 L88.9743274,212.897221 Z" id="Fill-15-Copy" fill="#000000"></path>
                            <path d="M127,663.138918 L127,659 C104.463496,661.655323 85.5536958,677.345913 79.280736,699.027827 L79,700 L89.2479258,699.467682 C89.2473941,699.467159 89.2463307,699.466115 89.245799,699.46507 C94.3484941,684.611352 106.724271,673.477594 121.859023,669.587858 C124.867895,668.814716 127,666.194394 127,663.138918" id="Fill-17-2" fill="#000000"></path>
                            <path d="M127,517.138918 L127,513 C104.463496,515.655323 85.5536958,531.345913 79.280736,553.027827 L79,554 L89.2479258,553.467682 C89.2473941,553.467159 89.2463307,553.466115 89.245799,553.46507 C94.3484941,538.611352 106.724271,527.477594 121.859023,523.587858 C124.867895,522.814716 127,520.194394 127,517.138918" id="Fill-17-Copy-2" fill="#000000"></path>
                            <path d="M127,292 C104.463496,294.655323 85.5536958,310.345913 79.280736,332.027827 L79,333 L89.2479258,332.467682 C94.3484941,317.611352 106.724271,306.477594 121.859023,302.587858 C124.867895,301.814716 127,299.194394 127,296.138918 L127,292 Z" id="Fill-17-Copy" fill="#000000"></path>
                            <path d="M126,624.499735 C126,630.851204 120.851733,636 114.500265,636 C108.148796,636 103,630.851204 103,624.499735 C103,618.148796 108.148796,613 114.500265,613 C120.851733,613 126,618.148796 126,624.499735" id="Fill-19" fill="#EC6963"></path>
                            <path d="M126,489.499735 C126,495.851204 120.851733,501 114.500265,501 C108.148796,501 103,495.851204 103,489.499735 C103,483.148796 108.148796,478 114.500265,478 C120.851733,478 126,483.148796 126,489.499735" id="Fill-19-Copy" fill="#74C7AA"></path>
                            <path d="M73,542.499735 C73,548.851204 67.8517334,554 61.5002646,554 C55.1487957,554 50,548.851204 50,542.499735 C50,536.148796 55.1487957,531 61.5002646,531 C67.8517334,531 73,536.148796 73,542.499735" id="Fill-19-Copy-2" fill="#2D4499"></path>
                        </g>
                    </g>
                </g>
            </g>
        </g>
    </g>
</svg>