<?xml version="1.0" encoding="UTF-8"?>
<svg width="329px" height="685px" viewBox="0 0 329 685" version="1.1" xmlns="http://www.w3.org/2000/svg" xmlns:xlink="http://www.w3.org/1999/xlink">
    <!-- Generator: Sketch 47.1 (45422) - http://www.bohemiancoding.com/sketch -->
    <title>Group 11</title>
    <desc>Created with Sketch.</desc>
    <defs></defs>
    <g id="Page-1" stroke="none" stroke-width="1" fill="none" fill-rule="evenodd">
        <g id="Desktop-HD" transform="translate(0.000000, -2091.000000)">
            <g id="Group-26">
                <g transform="translate(-320.000000, -66.000000)" id="PALESTRANTES">
                    <g transform="translate(210.000000, 2114.000000)">
                        <g id="Group-11" transform="translate(11.000000, 43.000000)">
                            <g id="Group-180">
                                <g id="Group-177" transform="translate(0.000000, 127.313131)" fill="#1E3382">
                                    <path d="M361.231668,21.1363323 L352.829855,16.5101606 C290.856798,-17.6139101 212.677179,5.04851919 178.556575,67.0278727 L16.0315809,362.250418 C-18.0890235,424.229772 4.57110378,502.417332 66.5441614,536.541403 L74.9452827,541.167575 C136.91834,575.291645 215.097959,552.629908 249.219255,490.649863 L411.744249,195.428009 C445.864853,133.447964 423.204726,55.260403 361.231668,21.1363323" id="Fill-175"></path>
                                </g>
                                <path d="M226.069852,52.5828141 C226.069852,81.3099152 202.784293,104.597147 174.060111,104.597147 C145.336619,104.597147 122.051061,81.3099152 122.051061,52.5828141 C122.051061,23.8557131 145.336619,0.568480808 174.060111,0.568480808 C202.784293,0.568480808 226.069852,23.8557131 226.069852,52.5828141" id="Fill-178" fill="#EC6963"></path>
                            </g>
                        </g>
                    </g>
                </g>
            </g>
        </g>
    </g>
</svg>