<?xml version="1.0" encoding="UTF-8"?>
<svg width="198px" height="129px" viewBox="0 0 198 129" version="1.1" xmlns="http://www.w3.org/2000/svg" xmlns:xlink="http://www.w3.org/1999/xlink">
    <!-- Generator: Sketch 47.1 (45422) - http://www.bohemiancoding.com/sketch -->
    <title>Group 15</title>
    <desc>Created with Sketch.</desc>
    <defs></defs>
    <g id="Symbols" stroke="none" stroke-width="1" fill="none" fill-rule="evenodd">
        <g id="Enfeite" fill="#71C9AB">
            <g id="Group-15" transform="translate(99.000000, 64.500000) rotate(-180.000000) translate(-99.000000, -64.500000) ">
                <path d="M197.397976,88.453324 C198.450163,90.1703337 198.094405,92.6351369 196.555432,95.2000137 C195.168133,97.6734848 192.657972,100.007483 189.478381,101.926216 C186.451259,103.753543 183.208934,104.892175 180.356514,104.976489 C177.354008,105.152996 174.984403,104.332709 173.932216,102.615699 L151.602024,66.547464 C150.549837,64.8304543 150.905595,62.365651 152.444568,59.7999863 C153.831867,57.3265152 156.342028,54.9933048 159.521619,53.074572 C162.549535,51.2472451 165.79186,50.1078252 168.643486,50.0235113 C171.646786,49.8470036 174.016391,50.6672914 175.068578,52.3843011 L197.397976,88.453324 Z" id="Fill-1"></path>
                <path d="M0.602023761,88.453324 C-0.45016346,90.1703337 -0.0944050638,92.6351369 1.44456764,95.2000137 C2.83186657,97.6734848 5.34202793,100.007483 8.52161859,101.926216 C11.5487414,103.753543 14.7918603,104.892175 17.6434862,104.976489 C20.6459918,105.152996 23.0163909,104.332709 24.0685782,102.615699 L46.3979762,66.547464 C47.4501635,64.8304543 47.0944051,62.365651 45.5554324,59.7999863 C44.1681334,57.3265152 41.6579721,54.9933048 38.4783814,53.074572 C35.4512586,51.2472451 32.2081397,50.1078252 29.3565138,50.0235113 C26.3540082,49.8470036 23.9844032,50.6672914 22.9314218,52.3843011 L0.602023761,88.453324 Z" id="Fill-3"></path>
                <path d="M51.1468605,116.96406 C50.6026665,118.937633 51.5939609,121.265871 53.7370673,123.372142 C55.711826,125.430159 58.7162467,127.046656 62.2460691,128.074458 C65.6083267,129.053203 68.9917257,129.296079 71.7236579,128.608465 C74.6239379,127.970713 76.6582056,126.523104 77.2023996,124.54953 L88.8528493,83.0361275 C89.3978264,81.062554 88.4057489,78.7351205 86.2634255,76.6280453 C84.2886668,74.5700279 81.2842461,72.9535313 77.7536407,71.9257289 C74.3921661,70.9469844 71.0087671,70.7041078 68.2768349,71.3909178 C65.3765549,72.0302785 63.3422873,73.4770832 62.7980932,75.4506567 L51.1468605,116.96406 Z" id="Fill-5"></path>
                <path d="M143.85314,116.96406 C144.397334,118.937633 143.406039,121.265871 141.262933,123.372142 C139.288957,125.430159 136.284536,127.046656 132.753931,128.074458 C129.391673,129.053203 126.009057,129.296079 123.276342,128.608465 C120.376062,127.970713 118.342577,126.523104 117.7976,124.54953 L106.147151,83.0361275 C105.602174,81.062554 106.594251,78.7351205 108.736574,76.6280453 C110.712116,74.5700279 113.716537,72.9535313 117.246359,71.9257289 C120.607834,70.9469844 123.992016,70.7041078 126.723948,71.3909178 C129.624228,72.0302785 131.658496,73.4770832 132.20269,75.4506567 L143.85314,116.96406 Z" id="Fill-7"></path>
                <path d="M185.690335,0.501327962 C173.319644,37.1359691 139.011564,63.7729274 98.8093952,63.7729274 C58.1705393,63.7729274 23.6817609,36.8929253 11.4458014,0 C5.36784466,10.6193294 1.35919882,22.6528048 0,35.7835867 C21.0719406,68.3650915 57.4208005,90 98.8093952,90 C140.301019,90 176.933607,68.0410331 198,35.0552575 C196.364206,22.5629668 192.032998,10.918522 185.690335,0.501327962" id="Fill-9"></path>
            </g>
        </g>
    </g>
</svg>