<?xml version="1.0" encoding="UTF-8"?>
<svg width="1353px" height="558px" viewBox="0 0 1353 558" version="1.1" xmlns="http://www.w3.org/2000/svg" xmlns:xlink="http://www.w3.org/1999/xlink">
    <!-- Generator: Sketch 47.1 (45422) - http://www.bohemiancoding.com/sketch -->
    <title>Group 12</title>
    <desc>Created with Sketch.</desc>
    <defs></defs>
    <g id="Page-1" stroke="none" stroke-width="1" fill="none" fill-rule="evenodd" opacity="0.546195652">
        <g id="Desktop-HD" transform="translate(-181.000000, -2707.000000)" fill="#FFA1BA">
            <g id="Group-26">
                <g transform="translate(-320.000000, -66.000000)" id="PALESTRANTES">
                    <g transform="translate(210.000000, 2114.000000)">
                        <g id="Group-12" transform="translate(967.500000, 938.000000) rotate(-90.000000) translate(-967.500000, -938.000000) translate(688.500000, 261.500000)">
                            <path d="M393.9177,310.5742 L396.6847,310.5742 C402.1847,310.5742 406.6847,315.0742 406.6847,320.5742 L406.6847,406.4592 C406.6847,411.9592 402.1847,416.4592 396.6847,416.4592 L393.9177,416.4592 C388.4177,416.4592 383.9177,411.9592 383.9177,406.4592 L383.9177,320.5742 C383.9177,315.0742 388.4177,310.5742 393.9177,310.5742 Z M81.0096,519.4682 L82.8876,521.5002 C86.6206,525.5392 86.3706,531.8982 82.3326,535.6312 L19.2656,593.9302 C15.2266,597.6632 8.8666,597.4132 5.1336,593.3752 L3.2556,591.3432 C-0.4774,587.3042 -0.2274,580.9452 3.8116,577.2122 L66.8786,518.9132 C70.9166,515.1792 77.2766,515.4292 81.0096,519.4682 Z M109.4451,618.4179 L111.8961,617.1359 C116.7701,614.5879 122.8431,616.4909 125.3911,621.3649 L165.1851,697.4739 C167.7341,702.3479 165.8311,708.4209 160.9571,710.9699 L158.5061,712.2509 C153.6321,714.7999 147.5581,712.8969 145.0101,708.0229 L105.2161,631.9139 C102.6681,627.0399 104.5711,620.9659 109.4451,618.4179 Z M127.9295,2.73 L130.3815,1.448 C135.2555,-1.101 141.3275,0.802 143.8765,5.676 L183.6705,81.786 C186.2185,86.66 184.3165,92.733 179.4425,95.281 L176.9905,96.563 C172.1165,99.111 166.0435,97.209 163.4945,92.335 L123.7005,16.225 C121.1535,11.351 123.0555,5.278 127.9295,2.73 Z M277.0711,125.7265 L278.9501,127.7585 C282.6831,131.7965 282.4331,138.1555 278.3941,141.8895 L215.3271,200.1875 C211.2881,203.9215 204.9291,203.6715 201.1961,199.6325 L199.3181,197.6015 C195.5851,193.5625 195.8341,187.2035 199.8731,183.4705 L262.9401,125.1715 C266.9791,121.4375 273.3381,121.6875 277.0711,125.7265 Z M305.5067,224.6762 L307.9587,223.3942 C312.8327,220.8452 318.9047,222.7482 321.4537,227.6222 L361.2477,303.7322 C363.7957,308.6062 361.8937,314.6792 357.0197,317.2272 L354.5667,318.5092 C349.6927,321.0572 343.6207,319.1552 341.0717,314.2802 L301.2777,238.1712 C298.7307,233.2972 300.6327,227.2242 305.5067,224.6762 Z M226.367,312.6626 L229.134,312.6626 C234.634,312.6626 239.134,317.1626 239.134,322.6626 L239.134,408.5476 C239.134,414.0476 234.634,418.5476 229.134,418.5476 L226.367,418.5476 C220.867,418.5476 216.367,414.0476 216.367,408.5476 L216.367,322.6626 C216.367,317.1626 220.867,312.6626 226.367,312.6626 Z M53.66,423.9887 L52.851,421.3427 C51.243,416.0827 54.231,410.4647 59.491,408.8567 L141.624,383.7477 C146.884,382.1397 152.502,385.1277 154.11,390.3867 L154.919,393.0327 C156.527,398.2927 153.539,403.9117 148.279,405.5197 L66.146,430.6287 C60.887,432.2367 55.267,429.2487 53.66,423.9887 Z M100.8133,307.0322 L98.3223,305.8302 C93.3683,303.4412 91.2703,297.4322 93.6603,292.4792 L130.9733,215.1232 C133.3633,210.1692 139.3713,208.0712 144.3253,210.4612 L146.8173,211.6632 C151.7703,214.0532 153.8693,220.0612 151.4793,225.0142 L114.1653,302.3702 C111.7753,307.3242 105.7673,309.4222 100.8133,307.0322 Z M127.1766,806.146 L129.6276,804.864 C134.5016,802.316 140.5746,804.219 143.1226,809.093 L182.9166,885.202 C185.4656,890.076 183.5626,896.149 178.6886,898.698 L176.2376,899.979 C171.3636,902.528 165.2896,900.625 162.7416,895.751 L122.9476,819.642 C120.3996,814.768 122.3026,808.694 127.1766,806.146 Z M276.3182,929.1426 L278.1962,931.1746 C281.9292,935.2126 281.6792,941.5726 277.6412,945.3056 L214.5742,1003.6046 C210.5352,1007.3376 204.1752,1007.0876 200.4422,1003.0496 L198.5642,1001.0176 C194.8312,996.9786 195.0812,990.6196 199.1202,986.8866 L262.1872,928.5876 C266.2262,924.8536 272.5852,925.1036 276.3182,929.1426 Z M304.7537,1028.0923 L307.2047,1026.8103 C312.0787,1024.2623 318.1517,1026.1653 320.6997,1031.0393 L360.4937,1107.1483 C363.0427,1112.0223 361.1397,1118.0953 356.2667,1120.6433 L353.8137,1121.9253 C348.9397,1124.4743 342.8667,1122.5713 340.3187,1117.6973 L300.5247,1041.5873 C297.9767,1036.7133 299.8797,1030.6403 304.7537,1028.0923 Z M225.6141,1116.0791 L228.3811,1116.0791 C233.8811,1116.0791 238.3811,1120.5791 238.3811,1126.0791 L238.3811,1211.9641 C238.3811,1217.4641 233.8811,1221.9641 228.3811,1221.9641 L225.6141,1221.9641 C220.1141,1221.9641 215.6141,1217.4641 215.6141,1211.9641 L215.6141,1126.0791 C215.6141,1120.5791 220.1141,1116.0791 225.6141,1116.0791 Z M52.907,1227.4048 L52.097,1224.7588 C50.49,1219.4998 53.477,1213.8808 58.737,1212.2728 L140.87,1187.1638 C146.13,1185.5558 151.749,1188.5438 153.357,1193.8038 L154.166,1196.4488 C155.773,1201.7088 152.786,1207.3278 147.526,1208.9358 L65.393,1234.0448 C60.134,1235.6528 54.514,1232.6648 52.907,1227.4048 Z M100.0604,1110.4487 L97.5684,1109.2467 C92.6154,1106.8567 90.5164,1100.8487 92.9064,1095.8947 L130.2204,1018.5397 C132.6104,1013.5857 138.6184,1011.4877 143.5724,1013.8777 L146.0644,1015.0797 C151.0174,1017.4687 153.1164,1023.4767 150.7264,1028.4307 L113.4124,1105.7867 C111.0224,1110.7407 105.0144,1112.8387 100.0604,1110.4487 Z M323.0183,428.0874 L325.4703,426.8054 C330.3443,424.2564 336.4163,426.1594 338.9653,431.0334 L378.7593,507.1434 C381.3073,512.0174 379.4053,518.0904 374.5313,520.6384 L372.0793,521.9204 C367.2053,524.4684 361.1323,522.5664 358.5833,517.6914 L318.7893,441.5824 C316.2423,436.7084 318.1443,430.6354 323.0183,428.0874 Z M142.4695,542.9238 L143.6085,540.4028 C145.8715,535.3898 151.8245,533.1408 156.8375,535.4048 L235.1095,570.7578 C240.1215,573.0218 242.3705,578.9748 240.1065,583.9868 L238.9675,586.5088 C236.7035,591.5218 230.7505,593.7698 225.7385,591.5068 L147.4665,556.1538 C142.4535,553.8898 140.2045,547.9358 142.4695,542.9238 Z M472.1609,551.084 L474.0389,553.115 C477.7719,557.154 477.5219,563.513 473.4829,567.247 L410.4159,625.545 C406.3779,629.279 400.0179,629.029 396.2849,624.99 L394.4069,622.959 C390.6739,618.92 390.9239,612.561 394.9619,608.827 L458.0289,550.528 C462.0679,546.795 468.4279,547.045 472.1609,551.084 Z M500.5955,650.0337 L503.0475,648.7517 C507.9215,646.2027 513.9935,648.1057 516.5425,652.9797 L556.3365,729.0897 C558.8845,733.9637 556.9825,740.0367 552.1085,742.5847 L549.6565,743.8667 C544.7825,746.4147 538.7095,744.5127 536.1605,739.6377 L496.3665,663.5287 C493.8195,658.6547 495.7215,652.5817 500.5955,650.0337 Z M421.4558,738.02 L424.2228,738.02 C429.7228,738.02 434.2228,742.52 434.2228,748.02 L434.2228,833.905 C434.2228,839.405 429.7228,843.905 424.2228,843.905 L421.4558,843.905 C415.9558,843.905 411.4558,839.405 411.4558,833.905 L411.4558,748.02 C411.4558,742.52 415.9558,738.02 421.4558,738.02 Z M248.7488,849.3462 L247.9398,846.7002 C246.3318,841.4402 249.3198,835.8212 254.5798,834.2132 L336.7128,809.1052 C341.9728,807.4972 347.5918,810.4852 349.1988,815.7442 L350.0078,818.3902 C351.6158,823.6502 348.6278,829.2692 343.3678,830.8772 L261.2348,855.9852 C255.9758,857.5932 250.3568,854.6052 248.7488,849.3462 Z M293.4111,731.1876 C288.4571,728.7986 286.3591,722.7896 288.7491,717.8366 L326.0621,640.4806 C328.4521,635.5266 334.4611,633.4286 339.4141,635.8186 L341.9061,637.0206 C346.8601,639.4106 348.9581,645.4176 346.5681,650.3716 L309.2551,727.7276 C306.8651,732.6816 300.8561,734.7796 295.9031,732.3896 L293.4111,731.1876 Z M59.6815,1257.5654 L62.1325,1256.2834 C67.0065,1253.7354 73.0795,1255.6384 75.6275,1260.5124 L115.4215,1336.6214 C117.9705,1341.4954 116.0675,1347.5684 111.1935,1350.1174 L108.7425,1351.3984 C103.8685,1353.9474 97.7945,1352.0444 95.2465,1347.1704 L55.4525,1271.0614 C52.9045,1266.1874 54.8075,1260.1134 59.6815,1257.5654 Z" id="Combined-Shape"></path>
                        </g>
                    </g>
                </g>
            </g>
        </g>
    </g>
</svg>