<svg xmlns="http://www.w3.org/2000/svg" viewBox="0 0 42.17 37.6"><defs><style>.cls-1,.cls-2{fill:#032065;}.cls-2{fill-rule:evenodd;}</style></defs><title>cesar-school</title><g id="Layer_2" data-name="Layer 2"><g id="Layer_1-2" data-name="Layer 1"><path class="cls-1" d="M42,37.08l-.2-.58a.2.2,0,0,0-.12-.13.2.2,0,0,0-.17,0,2.06,2.06,0,0,1-.65.14c-.49,0-.7-.22-.7-.73V29.48a.23.23,0,0,0-.23-.23H39.3a.23.23,0,0,0-.23.23v6.29a1.66,1.66,0,0,0,1.8,1.83,3.72,3.72,0,0,0,1-.21h0a.24.24,0,0,0,.14-.12A.22.22,0,0,0,42,37.08Z"/><path class="cls-2" d="M21.09,16.87c11.61,0,21.08-3.83,21.08-8.53C42.17,4.25,35,.82,25.48,0V.39C30.4,1,33.94,3.21,33.94,5c0,2.32-5.78,4.21-12.85,4.21S8.24,7.35,8.24,5c0-1.82,3.53-3.94,8.46-4.53V0C7.18.82,0,4.25,0,8.34,0,13,9.47,16.87,21.09,16.87Z"/><path class="cls-2" d="M19.27,1.4V1c-3.95.3-6.92,1.57-6.92,3.07,0,1.73,3.92,3.15,8.74,3.15s8.73-1.42,8.73-3.15c0-1.5-3-2.77-6.91-3.07V1.4c2,.22,3.5.79,3.5,1.46,0,.86-2.39,1.56-5.32,1.56s-5.33-.7-5.33-1.56C15.76,2.19,17.23,1.62,19.27,1.4Z"/><path class="cls-2" d="M11.19,21.08a1.33,1.33,0,0,0-1,.41,1.38,1.38,0,0,0-.38,1v1.35a1.38,1.38,0,0,0,.38,1,1.33,1.33,0,0,0,1,.41,1.41,1.41,0,0,0,.86-.24,1.38,1.38,0,0,0,.28-.25c.07-.08.13-.17.19-.25a.28.28,0,0,0,0-.13.22.22,0,0,0-.09-.13l-.18-.14a.2.2,0,0,0-.13,0,.16.16,0,0,0-.12.08,1.52,1.52,0,0,1-.31.32.8.8,0,0,1-.54.18.69.69,0,0,1-.55-.25.84.84,0,0,1-.19-.53v-.21a.17.17,0,0,1,.19-.19h1.57a.33.33,0,0,0,.37-.37v-.58a1.38,1.38,0,0,0-.38-1A1.29,1.29,0,0,0,11.19,21.08Zm.75,1.59a.17.17,0,0,1-.19.19H10.64a.17.17,0,0,1-.19-.19v-.2a.85.85,0,0,1,.2-.55.7.7,0,0,1,.54-.24.73.73,0,0,1,.55.24.85.85,0,0,1,.2.55Z"/><path class="cls-2" d="M2.55,24.11,2.36,24c-.09-.07-.17,0-.25.07L2,24.16a1.53,1.53,0,0,1-.13.16.74.74,0,0,1-.51.2.7.7,0,0,1-.55-.25.83.83,0,0,1-.2-.53V22.37a.84.84,0,0,1,.2-.54.73.73,0,0,1,.55-.24,1,1,0,0,1,.31.05,1.15,1.15,0,0,1,.2.15A.67.67,0,0,1,2,22a.37.37,0,0,1,.07.14.16.16,0,0,0,.25,0l.2-.14a.24.24,0,0,0,.09-.14.27.27,0,0,0,0-.12,1.41,1.41,0,0,0-.33-.43,1,1,0,0,0-.36-.22A1.45,1.45,0,0,0,1.39,21a1.34,1.34,0,0,0-1,.42,1.33,1.33,0,0,0-.39,1v1.35a1.34,1.34,0,0,0,.39,1,1.34,1.34,0,0,0,1,.42,1.67,1.67,0,0,0,.53-.1,1.16,1.16,0,0,0,.37-.21,1.39,1.39,0,0,0,.24-.26,1.2,1.2,0,0,0,.1-.19C2.69,24.26,2.66,24.18,2.55,24.11Z"/><path class="cls-2" d="M22,23a1.73,1.73,0,0,0-1-.3,1.17,1.17,0,0,1-.34-.09.44.44,0,0,1-.22-.16.34.34,0,0,1-.11-.28.56.56,0,0,1,.14-.35.65.65,0,0,1,.53-.18.8.8,0,0,1,.56.23.2.2,0,0,0,.27,0l.2-.15c.1-.07.11-.15,0-.25a1.4,1.4,0,0,0-.42-.33A1.63,1.63,0,0,0,21,21a1.32,1.32,0,0,0-1,.36,1.13,1.13,0,0,0-.32.78c0,.67.44,1.05,1.29,1.13a1.49,1.49,0,0,1,.37.06.77.77,0,0,1,.27.17.56.56,0,0,1,.1.35.72.72,0,0,1-.16.46.76.76,0,0,1-.58.22.8.8,0,0,1-.5-.17,2,2,0,0,1-.36-.36.17.17,0,0,0-.24,0l-.19.14a.19.19,0,0,0-.06.27,1.72,1.72,0,0,0,.48.5,1.45,1.45,0,0,0,.87.27,1.41,1.41,0,0,0,1-.38,1.22,1.22,0,0,0,.36-.9A1,1,0,0,0,22,23Z"/><path class="cls-2" d="M41.78,23.16a.1.1,0,0,1,0-.18.89.89,0,0,0,.24-.24.82.82,0,0,0,.15-.53,1.11,1.11,0,0,0-.38-.9,1.58,1.58,0,0,0-1-.32,1.38,1.38,0,0,0-1,.42,1.36,1.36,0,0,0-.38,1v2.47a.16.16,0,0,0,.18.18h.28a.16.16,0,0,0,.18-.18V23.53a.17.17,0,0,1,.19-.19h.56a.64.64,0,0,1,.54.24.8.8,0,0,1,.2.54v.73a.16.16,0,0,0,.18.18H42a.16.16,0,0,0,.18-.18v-.73a1.42,1.42,0,0,0-.11-.63A.85.85,0,0,0,41.78,23.16Zm-.54-.49a1.09,1.09,0,0,1-.45.11h-.56a.17.17,0,0,1-.19-.19v-.21a.8.8,0,0,1,.2-.54.7.7,0,0,1,.55-.25.89.89,0,0,1,.52.15.57.57,0,0,1,.22.47A.47.47,0,0,1,41.24,22.67Z"/><path class="cls-2" d="M30.89,21a1.37,1.37,0,0,0-1,.42,1.32,1.32,0,0,0-.38,1v2.47a.16.16,0,0,0,.18.18H30a.16.16,0,0,0,.18-.18V23.53a.17.17,0,0,1,.19-.19h1.11a.17.17,0,0,1,.19.19v1.32a.16.16,0,0,0,.18.18h.28a.16.16,0,0,0,.18-.18V22.38a1.4,1.4,0,0,0-.38-1A1.33,1.33,0,0,0,30.89,21Zm.75,1.6a.17.17,0,0,1-.19.19H30.34a.17.17,0,0,1-.19-.19v-.21a.85.85,0,0,1,.19-.54.72.72,0,0,1,.55-.25.7.7,0,0,1,.55.25.8.8,0,0,1,.2.54Z"/><path class="cls-2" d="M6.39,24.74H6.21a.12.12,0,0,0-.12.13V25a.12.12,0,0,0,.12.13h.18A.12.12,0,0,0,6.5,25v-.12A.12.12,0,0,0,6.39,24.74Z"/><path class="cls-2" d="M16.26,24.74h-.18c-.08,0-.12,0-.12.13V25a.11.11,0,0,0,.12.12h.18c.07,0,.11,0,.11-.12v-.12C16.37,24.78,16.33,24.74,16.26,24.74Z"/><path class="cls-2" d="M26.05,24.75h-.17c-.08,0-.12.05-.12.13V25a.11.11,0,0,0,.12.12h.17a.11.11,0,0,0,.12-.12v-.12C26.17,24.8,26.13,24.75,26.05,24.75Z"/><path class="cls-2" d="M35.86,24.74h-.17c-.08,0-.12.05-.12.13V25a.11.11,0,0,0,.12.12h.17A.11.11,0,0,0,36,25v-.12C36,24.79,35.94,24.74,35.86,24.74Z"/><path class="cls-1" d="M2.37,32.61A2.57,2.57,0,0,1,4,33.24a.22.22,0,0,0,.17.06.24.24,0,0,0,.16-.07l.42-.48a.22.22,0,0,0,0-.32,3.79,3.79,0,0,0-2.38-.9c-1.11,0-2.31.56-2.31,1.79S1.23,34.8,2.28,35.1c.56.15,1.4.38,1.4.72,0,.55-.8.7-1.23.7a2.57,2.57,0,0,1-1.62-.61.23.23,0,0,0-.32,0l-.44.43a.28.28,0,0,0-.07.17.24.24,0,0,0,.07.16,3.67,3.67,0,0,0,2.38.93c1.15,0,2.32-.61,2.32-1.78S3.58,34.32,2.53,34h0c-.64-.18-1.37-.39-1.37-.7C1.14,32.76,1.91,32.61,2.37,32.61Z"/><path class="cls-1" d="M12.27,35.73a.22.22,0,0,0-.17-.06.21.21,0,0,0-.16.08,2.06,2.06,0,0,1-1.48.75,1.71,1.71,0,0,1-1.73-1.67v-.54a1.7,1.7,0,0,1,1.73-1.66,2.06,2.06,0,0,1,1.48.75.21.21,0,0,0,.16.08.27.27,0,0,0,.17-.06l.46-.45a.22.22,0,0,0,0-.31,3.17,3.17,0,0,0-2.29-1.12,2.8,2.8,0,0,0-2.83,2.77v.54a2.8,2.8,0,0,0,2.83,2.77,3.18,3.18,0,0,0,2.29-1.1.23.23,0,0,0,0-.32Z"/><path class="cls-1" d="M18,31.61a2.56,2.56,0,0,0-1.32.39V29.48a.23.23,0,0,0-.23-.23h-.64a.23.23,0,0,0-.23.23v7.89a.23.23,0,0,0,.23.23h.64a.23.23,0,0,0,.23-.23V34a1.31,1.31,0,0,1,2.62,0v3.41a.23.23,0,0,0,.23.23h.63a.23.23,0,0,0,.23-.23V34A2.4,2.4,0,0,0,18,31.61Z"/><path class="cls-1" d="M26.24,31.53a3,3,0,0,1,2.14.88l1.36,1.37,1.37-1.37a3,3,0,0,1,2.14-.88.24.24,0,0,1,.24.24v.61a.24.24,0,0,1-.24.24,1.91,1.91,0,0,0-1.37.57l-1.36,1.36,1.36,1.37a1.91,1.91,0,0,0,1.37.57,1.93,1.93,0,0,0,1.93-1.94.25.25,0,0,1,.25-.24H36a.25.25,0,0,1,.25.24,3,3,0,0,1-5.17,2.14l-1.37-1.36-1.36,1.36a3,3,0,1,1-2.14-5.16Zm0,5a1.89,1.89,0,0,0,1.36-.57L29,34.55,27.6,33.19a1.89,1.89,0,0,0-1.36-.57,1.94,1.94,0,1,0,0,3.87Z"/></g></g></svg>