<svg xmlns="http://www.w3.org/2000/svg" viewBox="0 0 102.95 107.37"><defs><style>.cls-1{fill:#032065;}</style></defs><title>colabora-2019</title><g id="Layer_2" data-name="Layer 2"><g id="Layer_1-2" data-name="Layer 1"><path class="cls-1" d="M51.59,37.22a.77.77,0,0,1-.78-.77V6.87h0a2.1,2.1,0,0,0-2.09-2.1H47.39a.78.78,0,0,0-.78.77V39.32h0a2.1,2.1,0,0,0,2.1,2.1h12a.76.76,0,0,0,.77-.77V39.31a2.09,2.09,0,0,0-2.09-2.09Z"/><path class="cls-1" d="M99.36,71.94h0c-3.27-7.58-13.17-30.45-13.17-30.45-.24-.48-.34-.63-1-.63h-.14a1,1,0,0,0-1,.63L70.71,71.94h0l-1.06,2.5a.78.78,0,0,0,.71,1.08H99.71a.78.78,0,0,0,.72-1.08ZM75.77,70.33,84.4,50.08a.78.78,0,0,1,1.43,0l8.59,20.25a.78.78,0,0,1-.71,1.08H76.48A.77.77,0,0,1,75.77,70.33Z"/><path class="cls-1" d="M91.53,31.08h0L78.34.63C78.1.15,78,0,77.37,0h-.14a1,1,0,0,0-1,.63L62.87,31.08h0L61.8,33.57a.77.77,0,0,0,.72,1.08H91.87a.77.77,0,0,0,.72-1.08Zm-23.6-1.61L76.56,9.22a.78.78,0,0,1,1.43,0l8.59,20.25a.78.78,0,0,1-.71,1.08H68.64A.78.78,0,0,1,67.93,29.47Z"/><path class="cls-1" d="M67.82,79.61a2.56,2.56,0,0,0-.11-.24l-.27-.46h0l-4.65-8a1.16,1.16,0,0,1,.62-1.67A8.67,8.67,0,0,0,69.11,61V54.43a8.54,8.54,0,0,0-8.25-8.71H59.44l-.57,0a8.43,8.43,0,0,0-7.3,6.06,10.55,10.55,0,0,0-.37,2.62V74.56a1.92,1.92,0,0,0,1.91,1.91h.39a1.91,1.91,0,0,0,1.9-1.9V70.74a1.16,1.16,0,0,1,1.16-1.16h0a1.15,1.15,0,0,1,1,.58l.2.34h0l.79,1.37h0l5.37,9.29a2.68,2.68,0,0,0,2.34,1.35h1.94a.78.78,0,0,0,.67-1.17ZM55.4,54.43a4.71,4.71,0,0,1,1.26-3.2,3.82,3.82,0,0,1,2.84-1.31h1.36a3.72,3.72,0,0,1,2.79,1.31,4.76,4.76,0,0,1,1.26,3.2V61a4.83,4.83,0,0,1-1.26,3.2,3.89,3.89,0,0,1-2.23,1.21H56.18a.78.78,0,0,1-.78-.78Z"/><path class="cls-1" d="M40.09,38,37,23.63a8.5,8.5,0,0,0-9.89-6.74,8.5,8.5,0,0,0-6.28,10.22l3,14a2.17,2.17,0,0,0,.12.36l0,0L30,69.65a8.49,8.49,0,0,0,9.89,6.73,8.49,8.49,0,0,0,6.28-10.21L40.09,38Zm2,29a4.76,4.76,0,0,1-.56,3.4A3.71,3.71,0,0,1,39,72.28a3.62,3.62,0,0,1-3-.65,4.71,4.71,0,0,1-1.91-2.87L28,40.61h0l-3.1-14.39a4.73,4.73,0,0,1,.56-3.39A3.77,3.77,0,0,1,31,21.64a4.71,4.71,0,0,1,1.91,2.87l3,14.05a1.9,1.9,0,0,0,.12.36l0,0Z"/><path class="cls-1" d="M15.64,35.06H13.78A1.94,1.94,0,0,0,12,36.23a4.41,4.41,0,0,1-.9,1.41A3.85,3.85,0,0,1,8.24,38.9a3.64,3.64,0,0,1-2.78-1.26A4.48,4.48,0,0,1,4.2,34.47h0V15.06a4.69,4.69,0,0,1,1.26-3.2A3.68,3.68,0,0,1,8.3,10.6a3.64,3.64,0,0,1,2.78,1.26A4.51,4.51,0,0,1,12,13.35a2.13,2.13,0,0,0,2,1.33h1.68a.77.77,0,0,0,.77-.88A8.41,8.41,0,0,0,8.3,6.4,8.5,8.5,0,0,0,0,15.06v20l0,0A8.46,8.46,0,0,0,8.24,43.1,8.41,8.41,0,0,0,16.41,36,.78.78,0,0,0,15.64,35.06Z"/><circle class="cls-1" cx="53.25" cy="80.48" r="2.1"/><path class="cls-1" d="M19,62.69a9,9,0,0,0,1.6-4.17h0c.1-.27.06-2.85.06-3.22a8.5,8.5,0,0,0-8.3-8.66h-.05a8.4,8.4,0,0,0-7.83,6.09,10.16,10.16,0,0,0-.37,2.57s0,.07,0,.1h0v26a2.08,2.08,0,0,0,2.08,2.08h9.61a8.51,8.51,0,0,0,8.3-8.67V70.69A8.71,8.71,0,0,0,19,62.69ZM8.35,55.4s0-.07,0-.1a4.55,4.55,0,0,1,1.26-3.2,3.81,3.81,0,0,1,2.78-1.26,4,4,0,0,1,2.83,1.26,4.79,4.79,0,0,1,1.26,3.2c0,.22,0,1.29,0,2.16h0v.06a4.71,4.71,0,0,1-1.26,3.2A3.87,3.87,0,0,1,12.56,62H9.12a.76.76,0,0,1-.76-.76V55.39ZM19.94,72.73v2A4.76,4.76,0,0,1,18.68,78a4.08,4.08,0,0,1-2.84,1.26H12.57l-.14,0v.06l0,0H9.13a.77.77,0,0,1-.77-.78V67a.79.79,0,0,1,.79-.8h3.28v0l.14,0h3.27a4.08,4.08,0,0,1,2.84,1.26,4.76,4.76,0,0,1,1.26,3.21Z"/><path class="cls-1" d="M49.08,104l6.16-6.4c1.08-1.1,1.86-2.17,1.86-3.25a1.82,1.82,0,0,0-2-1.94,3,3,0,0,0-2.71,2l-3.54-2.07a6.55,6.55,0,0,1,6.19-4c3.28,0,6.22,2.15,6.22,5.85,0,2.2-1.18,4.09-2.86,5.77l-3,3.07h6.16v4H49.08Z"/><path class="cls-1" d="M63,97.83c0-5.67,2.72-9.55,7.47-9.55S78,92.16,78,97.83s-2.73,9.54-7.48,9.54S63,103.49,63,97.83Zm10.75,0c0-3.55-1.08-5.46-3.28-5.46s-3.28,1.91-3.28,5.46,1.08,5.45,3.28,5.45S73.76,101.37,73.76,97.83Z"/><path class="cls-1" d="M87,88.65V107H82.76V93.08L79.5,94l-1-3.59,4.8-1.73Z"/><path class="cls-1" d="M101.88,98.48,96.26,107H91.44l4-5.8a6.3,6.3,0,0,1-6.11-6.45c0-3.81,2.78-6.48,6.82-6.48S103,91,103,94.76A6.69,6.69,0,0,1,101.88,98.48ZM96.13,97.3a2.55,2.55,0,1,0,0-5.09,2.55,2.55,0,1,0,0,5.09Z"/></g></g></svg>