<svg xmlns="http://www.w3.org/2000/svg" viewBox="0 0 325.18 161.71"><defs><style>.cls-1{fill:#fff;}.cls-2{fill:#032065;}.cls-3{fill:#021b70;}</style></defs><title>save-the-date</title><g id="Layer_2" data-name="Layer 2"><g id="Layer_1-2" data-name="Layer 1"><path class="cls-1" d="M119.72,27.88c0,7.86-6.83,11.21-14.22,11.21-6.83,0-12-2.59-14.69-8.13l8.88-5.06a5.61,5.61,0,0,0,5.81,4c2.47,0,3.7-.75,3.7-2.12,0-3.76-16.82-1.77-16.82-13.6C92.38,6.76,98.67,3,105.78,3a15,15,0,0,1,13.33,7.31L110.36,15a5,5,0,0,0-4.58-3c-1.78,0-2.87.69-2.87,1.92C102.91,17.83,119.72,15.24,119.72,27.88Z"/><path class="cls-1" d="M159.58,4V38.14H149.32V34.92c-2.25,2.6-5.6,4.17-10.18,4.17-9,0-16.34-7.86-16.34-18s7.38-18,16.34-18c4.58,0,7.93,1.57,10.18,4.17V4ZM149.32,21.05c0-5.13-3.42-8.34-8.13-8.34s-8.14,3.21-8.14,8.34,3.42,8.34,8.14,8.34S149.32,26.17,149.32,21.05Z"/><path class="cls-1" d="M200.25,4,187.6,38.14H176L163.33,4h11.35l7.11,21.67L188.9,4Z"/><path class="cls-1" d="M220,29.93a9,9,0,0,0,6.57-2.59l8.2,4.71c-3.35,4.65-8.41,7-14.9,7-11.69,0-18.94-7.86-18.94-18s7.39-18,18.19-18c10,0,17.36,7.72,17.36,18.05a20.14,20.14,0,0,1-.41,4.1H211.8C213.1,28.7,216.25,29.93,220,29.93Zm6.29-12.44a7,7,0,0,0-7.24-5.4c-3.9,0-6.5,1.92-7.45,5.4Z"/><path class="cls-1" d="M3.18,72.22l6-6.2A5,5,0,0,0,11,62.87,1.76,1.76,0,0,0,9.05,61a2.85,2.85,0,0,0-2.62,1.93L3,60.91A6.35,6.35,0,0,1,9,57c3.17,0,6,2.09,6,5.67a8.06,8.06,0,0,1-2.77,5.59l-2.95,3h6v3.91H3.18Z"/><path class="cls-1" d="M24.12,57.38V75.16H20.05V61.67l-3.15.87-1-3.48,4.65-1.68Z"/><path class="cls-1" d="M30.09,78.72H27l1-7.49h4.06Z"/><path class="cls-1" d="M40.18,72.22l6-6.2A5,5,0,0,0,48,62.87,1.77,1.77,0,0,0,46,61a2.85,2.85,0,0,0-2.61,1.93l-3.43-2A6.34,6.34,0,0,1,46,57c3.18,0,6,2.09,6,5.67a8.06,8.06,0,0,1-2.77,5.59l-3,3h6v3.91H40.18Z"/><path class="cls-1" d="M53.72,72.22l6-6.2a5,5,0,0,0,1.8-3.15A1.76,1.76,0,0,0,59.59,61,2.86,2.86,0,0,0,57,62.92l-3.43-2a6.35,6.35,0,0,1,6-3.89c3.17,0,6,2.09,6,5.67a8,8,0,0,1-2.77,5.59l-2.95,3h6v3.91H53.72Z"/><path class="cls-1" d="M80.91,72.12a3.32,3.32,0,0,0,2.44-1L86.4,72.9a6.46,6.46,0,0,1-5.54,2.62c-4.35,0-7-2.92-7-6.71a6.51,6.51,0,0,1,6.76-6.7A6.41,6.41,0,0,1,87,68.81a7.56,7.56,0,0,1-.15,1.53h-9A2.89,2.89,0,0,0,80.91,72.12Zm2.34-4.63a2.87,2.87,0,0,0-5.47,0Z"/><path class="cls-1" d="M94.71,72.22l6-6.2a5,5,0,0,0,1.8-3.15,1.76,1.76,0,0,0-1.9-1.88A2.85,2.85,0,0,0,98,62.92l-3.43-2a6.35,6.35,0,0,1,6-3.89c3.17,0,6,2.09,6,5.67a8.06,8.06,0,0,1-2.77,5.59l-3,3h6v3.91H94.71Z"/><path class="cls-1" d="M120.65,69.57c0,3.92-3.05,6-6.48,6A6.35,6.35,0,0,1,108,71.71l3.5-2a2.56,2.56,0,0,0,2.72,1.88c1.68,0,2.41-.89,2.41-2s-.73-2-2.41-2h-.84l-1.55-2.31L115,61.19H108.5V57.38h11.44v3.3l-3.08,3.92A5.22,5.22,0,0,1,120.65,69.57Z"/><path class="cls-1" d="M141.36,67.36v7.8h-3.81V67.92a2.1,2.1,0,0,0-2.21-2.31c-1.4,0-2.37.81-2.37,2.62v6.93h-3.81V62.46H133v1.2a4.36,4.36,0,0,1,3.64-1.55C139.17,62.11,141.36,63.93,141.36,67.36Z"/><path class="cls-1" d="M143.34,68.81a6.74,6.74,0,1,1,6.74,6.71A6.66,6.66,0,0,1,143.34,68.81Zm9.66,0a2.93,2.93,0,1,0-2.92,3A2.85,2.85,0,0,0,153,68.81Z"/><path class="cls-1" d="M170.78,62.46l-4.7,12.7h-4.32l-4.7-12.7h4.22l2.64,8.05,2.65-8.05Z"/><path class="cls-1" d="M194,76.41v12.1c0,2.94,2.53,3.22,7.05,2.94v9.3c-13.4,1.37-17.3-2.67-17.3-12.24V76.41h-5.47V66.57h5.47V60.08L194,57v9.57h7.05v9.84Z"/><path class="cls-1" d="M239.67,79.76v21H229.41V81.27c0-4.24-2.66-6.22-5.94-6.22-3.76,0-6.36,2.18-6.36,7v18.66H206.86V52.9h10.25V69.78c1.85-2.53,5.26-4.17,9.77-4.17C233.79,65.61,239.67,70.54,239.67,79.76Z"/><path class="cls-1" d="M264.07,92.55a8.93,8.93,0,0,0,6.56-2.6l8.21,4.72c-3.35,4.64-8.41,7-14.91,7-11.68,0-18.93-7.86-18.93-18s7.38-18,18.18-18c10,0,17.37,7.73,17.37,18a20.07,20.07,0,0,1-.41,4.1H255.87C257.17,91.32,260.31,92.55,264.07,92.55Zm6.29-12.44a7,7,0,0,0-7.25-5.4c-3.89,0-6.49,1.91-7.45,5.4Z"/><path class="cls-1" d="M216.08,112.9v47.85H205.83v-3.21c-2.25,2.59-5.6,4.17-10.18,4.17-9,0-16.34-7.86-16.34-18.05s7.38-18,16.34-18c4.58,0,7.93,1.58,10.18,4.17V112.9Zm-10.25,30.76c0-5.13-3.42-8.34-8.13-8.34s-8.14,3.21-8.14,8.34S193,152,197.7,152,205.83,148.79,205.83,143.66Z"/><path class="cls-1" d="M258.67,126.57v34.18H248.42v-3.21c-2.26,2.59-5.61,4.17-10.19,4.17-8.95,0-16.34-7.86-16.34-18.05s7.39-18,16.34-18c4.58,0,7.93,1.58,10.19,4.17v-3.21Zm-10.25,17.09c0-5.13-3.42-8.34-8.14-8.34s-8.13,3.21-8.13,8.34,3.42,8.34,8.13,8.34S248.42,148.79,248.42,143.66Z"/><path class="cls-1" d="M279.18,136.41v12.1c0,2.94,2.53,3.22,7,2.94v9.3c-13.4,1.37-17.3-2.67-17.3-12.24v-12.1h-5.46v-9.84h5.46v-6.49L279.18,117v9.57h7v9.84Z"/><path class="cls-1" d="M308.71,152.55a8.93,8.93,0,0,0,6.56-2.6l8.21,4.72c-3.35,4.64-8.41,7-14.91,7-11.69,0-18.93-7.86-18.93-18.05s7.38-18,18.18-18c10,0,17.36,7.73,17.36,18a19.39,19.39,0,0,1-.41,4.1H300.51C301.81,151.32,305,152.55,308.71,152.55ZM315,140.11a7,7,0,0,0-7.25-5.4c-3.89,0-6.49,1.91-7.45,5.4Z"/><path class="cls-2" d="M116.72,24.88c0,7.86-6.83,11.21-14.22,11.21-6.83,0-12-2.59-14.69-8.13l8.88-5.06a5.61,5.61,0,0,0,5.81,4c2.47,0,3.7-.75,3.7-2.12,0-3.76-16.82-1.77-16.82-13.6C89.38,3.76,95.67,0,102.78,0a15,15,0,0,1,13.33,7.31L107.36,12a5,5,0,0,0-4.58-3c-1.78,0-2.87.69-2.87,1.92C99.91,14.83,116.72,12.24,116.72,24.88Z"/><path class="cls-2" d="M156.58,1V35.14H146.32V31.92c-2.25,2.6-5.6,4.17-10.18,4.17-9,0-16.34-7.86-16.34-18s7.38-18,16.34-18c4.58,0,7.93,1.57,10.18,4.17V1ZM146.32,18.05c0-5.13-3.42-8.34-8.13-8.34s-8.14,3.21-8.14,8.34,3.42,8.34,8.14,8.34S146.32,23.17,146.32,18.05Z"/><path class="cls-2" d="M197.25,1,184.6,35.14H173L160.33,1h11.35l7.11,21.67L185.9,1Z"/><path class="cls-2" d="M217,26.93a9,9,0,0,0,6.57-2.59l8.2,4.71c-3.35,4.65-8.41,7-14.9,7-11.69,0-18.94-7.86-18.94-18s7.39-18,18.19-18c10,0,17.36,7.72,17.36,18.05a20.14,20.14,0,0,1-.41,4.1H208.8C210.1,25.7,213.25,26.93,217,26.93Zm6.29-12.44a7,7,0,0,0-7.24-5.4c-3.9,0-6.5,1.92-7.45,5.4Z"/><path class="cls-3" d="M.18,69.22l6-6.2A5,5,0,0,0,8,59.87,1.76,1.76,0,0,0,6.05,58a2.85,2.85,0,0,0-2.62,1.93L0,57.91A6.35,6.35,0,0,1,6,54c3.17,0,6,2.09,6,5.67a8.06,8.06,0,0,1-2.77,5.59l-2.95,3h6v3.91H.18Z"/><path class="cls-3" d="M21.12,54.38V72.16H17.05V58.67l-3.15.87-1-3.48,4.65-1.68Z"/><path class="cls-3" d="M27.09,75.72H24l1-7.49h4.06Z"/><path class="cls-3" d="M37.18,69.22l6-6.2A5,5,0,0,0,45,59.87,1.77,1.77,0,0,0,43,58a2.85,2.85,0,0,0-2.61,1.93l-3.43-2A6.34,6.34,0,0,1,43,54c3.18,0,6,2.09,6,5.67a8.06,8.06,0,0,1-2.77,5.59l-3,3h6v3.91H37.18Z"/><path class="cls-3" d="M50.72,69.22l6-6.2a5,5,0,0,0,1.8-3.15A1.76,1.76,0,0,0,56.59,58,2.86,2.86,0,0,0,54,59.92l-3.43-2a6.35,6.35,0,0,1,6-3.89c3.17,0,6,2.09,6,5.67a8,8,0,0,1-2.77,5.59l-2.95,3h6v3.91H50.72Z"/><path class="cls-3" d="M77.91,69.12a3.32,3.32,0,0,0,2.44-1L83.4,69.9a6.46,6.46,0,0,1-5.54,2.62c-4.35,0-7-2.92-7-6.71a6.51,6.51,0,0,1,6.76-6.7A6.41,6.41,0,0,1,84,65.81a7.56,7.56,0,0,1-.15,1.53h-9A2.89,2.89,0,0,0,77.91,69.12Zm2.34-4.63a2.87,2.87,0,0,0-5.47,0Z"/><path class="cls-3" d="M91.71,69.22l6-6.2a5,5,0,0,0,1.8-3.15A1.76,1.76,0,0,0,97.58,58,2.85,2.85,0,0,0,95,59.92l-3.43-2a6.35,6.35,0,0,1,6-3.89c3.17,0,6,2.09,6,5.67a8.06,8.06,0,0,1-2.77,5.59l-3,3h6v3.91H91.71Z"/><path class="cls-3" d="M117.65,66.57c0,3.92-3.05,6-6.48,6A6.35,6.35,0,0,1,105,68.71l3.5-2a2.56,2.56,0,0,0,2.72,1.88c1.68,0,2.41-.89,2.41-2s-.73-2-2.41-2h-.84l-1.55-2.31L112,58.19H105.5V54.38h11.44v3.3l-3.08,3.92A5.22,5.22,0,0,1,117.65,66.57Z"/><path class="cls-3" d="M138.36,64.36v7.8h-3.81V64.92a2.1,2.1,0,0,0-2.21-2.31c-1.4,0-2.37.81-2.37,2.62v6.93h-3.81V59.46H130v1.2a4.36,4.36,0,0,1,3.64-1.55C136.17,59.11,138.36,60.93,138.36,64.36Z"/><path class="cls-3" d="M140.34,65.81a6.74,6.74,0,1,1,6.74,6.71A6.66,6.66,0,0,1,140.34,65.81Zm9.66,0a2.93,2.93,0,1,0-2.92,3A2.85,2.85,0,0,0,150,65.81Z"/><path class="cls-3" d="M167.78,59.46l-4.7,12.7h-4.32l-4.7-12.7h4.22l2.64,8.05,2.65-8.05Z"/><path class="cls-2" d="M191,73.41v12.1c0,2.94,2.53,3.22,7.05,2.94v9.3c-13.4,1.37-17.3-2.67-17.3-12.24V73.41h-5.47V63.57h5.47V57.08L191,54v9.57h7.05v9.84Z"/><path class="cls-2" d="M236.67,76.76v21H226.41V78.27c0-4.24-2.66-6.22-5.94-6.22-3.76,0-6.36,2.18-6.36,7V97.75H203.86V49.9h10.25V66.78c1.85-2.53,5.26-4.17,9.77-4.17C230.79,62.61,236.67,67.54,236.67,76.76Z"/><path class="cls-2" d="M261.07,89.55a8.93,8.93,0,0,0,6.56-2.6l8.21,4.72c-3.35,4.64-8.41,7-14.91,7-11.68,0-18.93-7.86-18.93-18s7.38-18,18.18-18c10,0,17.37,7.73,17.37,18a20.07,20.07,0,0,1-.41,4.1H252.87C254.17,88.32,257.31,89.55,261.07,89.55Zm6.29-12.44a7,7,0,0,0-7.25-5.4c-3.89,0-6.49,1.91-7.45,5.4Z"/><path class="cls-2" d="M213.08,109.9v47.85H202.83v-3.21c-2.25,2.59-5.6,4.17-10.18,4.17-9,0-16.34-7.86-16.34-18.05s7.38-18,16.34-18c4.58,0,7.93,1.58,10.18,4.17V109.9Zm-10.25,30.76c0-5.13-3.42-8.34-8.13-8.34s-8.14,3.21-8.14,8.34S190,149,194.7,149,202.83,145.79,202.83,140.66Z"/><path class="cls-2" d="M255.67,123.57v34.18H245.42v-3.21c-2.26,2.59-5.61,4.17-10.19,4.17-8.95,0-16.34-7.86-16.34-18.05s7.39-18,16.34-18c4.58,0,7.93,1.58,10.19,4.17v-3.21Zm-10.25,17.09c0-5.13-3.42-8.34-8.14-8.34s-8.13,3.21-8.13,8.34,3.42,8.34,8.13,8.34S245.42,145.79,245.42,140.66Z"/><path class="cls-2" d="M276.18,133.41v12.1c0,2.94,2.53,3.22,7,2.94v9.3c-13.4,1.37-17.3-2.67-17.3-12.24v-12.1h-5.46v-9.84h5.46v-6.49L276.18,114v9.57h7v9.84Z"/><path class="cls-2" d="M305.71,149.55a8.93,8.93,0,0,0,6.56-2.6l8.21,4.72c-3.35,4.64-8.41,7-14.91,7-11.69,0-18.93-7.86-18.93-18.05s7.38-18,18.18-18c10,0,17.36,7.73,17.36,18a19.39,19.39,0,0,1-.41,4.1H297.51C298.81,148.32,302,149.55,305.71,149.55ZM312,137.11a7,7,0,0,0-7.25-5.4c-3.89,0-6.49,1.91-7.45,5.4Z"/></g></g></svg>